<?xml version="1.0" encoding="UTF-8" standalone="no"?>
<!DOCTYPE svg PUBLIC "-//W3C//DTD SVG 1.1//EN"
 "http://www.w3.org/Graphics/SVG/1.1/DTD/svg11.dtd">
<!-- Generated by graphviz version 2.38.0 (20140413.2041)
 -->
<!-- Title: arbolAST Pages: 1 -->
<svg width="2218pt" height="476pt"
 viewBox="0.00 0.00 2218.00 476.00" xmlns="http://www.w3.org/2000/svg" xmlns:xlink="http://www.w3.org/1999/xlink">
<g id="graph0" class="graph" transform="scale(1 1) rotate(0) translate(4 472)">
<title>arbolAST</title>
<polygon fill="white" stroke="none" points="-4,4 -4,-472 2214,-472 2214,4 -4,4"/>
<!-- n0 -->
<g id="node1" class="node"><title>n0</title>
<ellipse fill="none" stroke="black" cx="1293" cy="-450" rx="31.6951" ry="18"/>
<text text-anchor="middle" x="1293" y="-446.3" font-family="Times New Roman,serif" font-size="14.00">RAIZ</text>
</g>
<!-- n1 -->
<g id="node2" class="node"><title>n1</title>
<ellipse fill="none" stroke="black" cx="1293" cy="-378" rx="83.3857" ry="18"/>
<text text-anchor="middle" x="1293" y="-374.3" font-family="Times New Roman,serif" font-size="14.00">INSTRUCCIONES</text>
</g>
<!-- n0&#45;&gt;n1 -->
<g id="edge1" class="edge"><title>n0&#45;&gt;n1</title>
<path fill="none" stroke="black" d="M1293,-431.697C1293,-423.983 1293,-414.712 1293,-406.112"/>
<polygon fill="black" stroke="black" points="1296.5,-406.104 1293,-396.104 1289.5,-406.104 1296.5,-406.104"/>
</g>
<!-- n2 -->
<g id="node3" class="node"><title>n2</title>
<ellipse fill="none" stroke="black" cx="588" cy="-306" rx="50.0912" ry="18"/>
<text text-anchor="middle" x="588" y="-302.3" font-family="Times New Roman,serif" font-size="14.00">METODO</text>
</g>
<!-- n1&#45;&gt;n2 -->
<g id="edge2" class="edge"><title>n1&#45;&gt;n2</title>
<path fill="none" stroke="black" d="M1219.22,-369.674C1078.23,-355.676 773.267,-325.395 645.816,-312.741"/>
<polygon fill="black" stroke="black" points="645.792,-309.221 635.496,-311.716 645.101,-316.187 645.792,-309.221"/>
</g>
<!-- n45 -->
<g id="node46" class="node"><title>n45</title>
<ellipse fill="none" stroke="black" cx="2003" cy="-306" rx="34.394" ry="18"/>
<text text-anchor="middle" x="2003" y="-302.3" font-family="Times New Roman,serif" font-size="14.00">EXEC</text>
</g>
<!-- n1&#45;&gt;n45 -->
<g id="edge45" class="edge"><title>n1&#45;&gt;n45</title>
<path fill="none" stroke="black" d="M1366.97,-369.707C1514.53,-355.159 1841.41,-322.932 1959.43,-311.296"/>
<polygon fill="black" stroke="black" points="1959.93,-314.764 1969.53,-310.3 1959.24,-307.798 1959.93,-314.764"/>
</g>
<!-- n3 -->
<g id="node4" class="node"><title>n3</title>
<ellipse fill="none" stroke="black" cx="27" cy="-234" rx="27" ry="18"/>
<text text-anchor="middle" x="27" y="-230.3" font-family="Times New Roman,serif" font-size="14.00">void</text>
</g>
<!-- n2&#45;&gt;n3 -->
<g id="edge3" class="edge"><title>n2&#45;&gt;n3</title>
<path fill="none" stroke="black" d="M537.745,-305.544C443.05,-305.346 232.475,-299.067 63,-252 61.052,-251.459 59.0792,-250.82 57.1127,-250.112"/>
<polygon fill="black" stroke="black" points="58.0553,-246.714 47.4763,-246.135 55.3848,-253.185 58.0553,-246.714"/>
</g>
<!-- n4 -->
<g id="node5" class="node"><title>n4</title>
<ellipse fill="none" stroke="black" cx="99" cy="-234" rx="27" ry="18"/>
<text text-anchor="middle" x="99" y="-230.3" font-family="Times New Roman,serif" font-size="14.00">eje</text>
</g>
<!-- n2&#45;&gt;n4 -->
<g id="edge4" class="edge"><title>n2&#45;&gt;n4</title>
<path fill="none" stroke="black" d="M538.037,-304.406C453.451,-302.248 277.352,-292.753 135,-252 133.056,-251.444 131.087,-250.792 129.123,-250.075"/>
<polygon fill="black" stroke="black" points="130.071,-246.679 119.493,-246.075 127.385,-253.144 130.071,-246.679"/>
</g>
<!-- n5 -->
<g id="node6" class="node"><title>n5</title>
<ellipse fill="none" stroke="black" cx="171" cy="-234" rx="27" ry="18"/>
<text text-anchor="middle" x="171" y="-230.3" font-family="Times New Roman,serif" font-size="14.00">(</text>
</g>
<!-- n2&#45;&gt;n5 -->
<g id="edge5" class="edge"><title>n2&#45;&gt;n5</title>
<path fill="none" stroke="black" d="M538.579,-302.892C464.941,-298.693 322.68,-286.483 207,-252 205.063,-251.422 203.098,-250.755 201.137,-250.026"/>
<polygon fill="black" stroke="black" points="202.093,-246.631 191.517,-245.993 199.387,-253.087 202.093,-246.631"/>
</g>
<!-- n6 -->
<g id="node7" class="node"><title>n6</title>
<ellipse fill="none" stroke="black" cx="243" cy="-234" rx="27" ry="18"/>
<text text-anchor="middle" x="243" y="-230.3" font-family="Times New Roman,serif" font-size="14.00">)</text>
</g>
<!-- n2&#45;&gt;n6 -->
<g id="edge6" class="edge"><title>n2&#45;&gt;n6</title>
<path fill="none" stroke="black" d="M539.937,-300.831C478.345,-294.57 368.802,-280.323 279,-252 277.072,-251.392 275.114,-250.701 273.16,-249.954"/>
<polygon fill="black" stroke="black" points="274.126,-246.562 263.553,-245.875 271.39,-253.005 274.126,-246.562"/>
</g>
<!-- n7 -->
<g id="node8" class="node"><title>n7</title>
<ellipse fill="none" stroke="black" cx="315" cy="-234" rx="27" ry="18"/>
<text text-anchor="middle" x="315" y="-230.3" font-family="Times New Roman,serif" font-size="14.00">{</text>
</g>
<!-- n2&#45;&gt;n7 -->
<g id="edge7" class="edge"><title>n2&#45;&gt;n7</title>
<path fill="none" stroke="black" d="M543.072,-298.006C494.792,-289.789 416.202,-274.377 351,-252 349.088,-251.344 347.143,-250.616 345.197,-249.84"/>
<polygon fill="black" stroke="black" points="346.182,-246.453 335.615,-245.689 343.399,-252.876 346.182,-246.453"/>
</g>
<!-- n8 -->
<g id="node9" class="node"><title>n8</title>
<ellipse fill="none" stroke="black" cx="402" cy="-234" rx="42.4939" ry="18"/>
<text text-anchor="middle" x="402" y="-230.3" font-family="Times New Roman,serif" font-size="14.00">LISTAS</text>
</g>
<!-- n2&#45;&gt;n8 -->
<g id="edge8" class="edge"><title>n2&#45;&gt;n8</title>
<path fill="none" stroke="black" d="M554.747,-292.485C523.172,-280.602 475.663,-262.723 442.026,-250.064"/>
<polygon fill="black" stroke="black" points="443.091,-246.725 432.499,-246.478 440.626,-253.276 443.091,-246.725"/>
</g>
<!-- n9 -->
<g id="node10" class="node"><title>n9</title>
<ellipse fill="none" stroke="black" cx="521" cy="-234" rx="58.4896" ry="18"/>
<text text-anchor="middle" x="521" y="-230.3" font-family="Times New Roman,serif" font-size="14.00">ADD&#45;LISTA</text>
</g>
<!-- n2&#45;&gt;n9 -->
<g id="edge9" class="edge"><title>n2&#45;&gt;n9</title>
<path fill="none" stroke="black" d="M572.46,-288.765C564.042,-279.969 553.474,-268.928 544.109,-259.144"/>
<polygon fill="black" stroke="black" points="546.364,-256.437 536.921,-251.633 541.307,-261.278 546.364,-256.437"/>
</g>
<!-- n10 -->
<g id="node11" class="node"><title>n10</title>
<ellipse fill="none" stroke="black" cx="656" cy="-234" rx="58.4896" ry="18"/>
<text text-anchor="middle" x="656" y="-230.3" font-family="Times New Roman,serif" font-size="14.00">ADD&#45;LISTA</text>
</g>
<!-- n2&#45;&gt;n10 -->
<g id="edge10" class="edge"><title>n2&#45;&gt;n10</title>
<path fill="none" stroke="black" d="M603.771,-288.765C612.401,-279.882 623.254,-268.709 632.828,-258.854"/>
<polygon fill="black" stroke="black" points="635.384,-261.245 639.842,-251.633 630.363,-256.367 635.384,-261.245"/>
</g>
<!-- n11 -->
<g id="node12" class="node"><title>n11</title>
<ellipse fill="none" stroke="black" cx="791" cy="-234" rx="58.4896" ry="18"/>
<text text-anchor="middle" x="791" y="-230.3" font-family="Times New Roman,serif" font-size="14.00">ADD&#45;LISTA</text>
</g>
<!-- n2&#45;&gt;n11 -->
<g id="edge11" class="edge"><title>n2&#45;&gt;n11</title>
<path fill="none" stroke="black" d="M622.897,-292.967C656.301,-281.448 706.935,-263.988 743.903,-251.24"/>
<polygon fill="black" stroke="black" points="745.152,-254.512 753.464,-247.943 742.87,-247.894 745.152,-254.512"/>
</g>
<!-- n12 -->
<g id="node13" class="node"><title>n12</title>
<ellipse fill="none" stroke="black" cx="964" cy="-234" rx="96.3833" ry="18"/>
<text text-anchor="middle" x="964" y="-230.3" font-family="Times New Roman,serif" font-size="14.00">ASIGNACION&#45;LISTA</text>
</g>
<!-- n2&#45;&gt;n12 -->
<g id="edge12" class="edge"><title>n2&#45;&gt;n12</title>
<path fill="none" stroke="black" d="M631.499,-296.902C694.216,-285.226 810.957,-263.492 888.075,-249.135"/>
<polygon fill="black" stroke="black" points="889.024,-252.519 898.214,-247.247 887.743,-245.637 889.024,-252.519"/>
</g>
<!-- n24 -->
<g id="node25" class="node"><title>n24</title>
<ellipse fill="none" stroke="black" cx="1332" cy="-234" rx="75.2868" ry="18"/>
<text text-anchor="middle" x="1332" y="-230.3" font-family="Times New Roman,serif" font-size="14.00">DECLARACION</text>
</g>
<!-- n2&#45;&gt;n24 -->
<g id="edge24" class="edge"><title>n2&#45;&gt;n24</title>
<path fill="none" stroke="black" d="M635.672,-300.515C760.609,-288.76 1098.52,-256.967 1253,-242.432"/>
<polygon fill="black" stroke="black" points="1253.73,-245.88 1263.36,-241.458 1253.07,-238.911 1253.73,-245.88"/>
</g>
<!-- n37 -->
<g id="node38" class="node"><title>n37</title>
<ellipse fill="none" stroke="black" cx="1718" cy="-234" rx="59.5901" ry="18"/>
<text text-anchor="middle" x="1718" y="-230.3" font-family="Times New Roman,serif" font-size="14.00">IMPRESION</text>
</g>
<!-- n2&#45;&gt;n37 -->
<g id="edge37" class="edge"><title>n2&#45;&gt;n37</title>
<path fill="none" stroke="black" d="M636.917,-301.97C816.777,-290.828 1441.77,-252.112 1649.95,-239.216"/>
<polygon fill="black" stroke="black" points="1650.36,-242.697 1660.13,-238.585 1649.93,-235.71 1650.36,-242.697"/>
</g>
<!-- n44 -->
<g id="node45" class="node"><title>n44</title>
<ellipse fill="none" stroke="black" cx="1823" cy="-234" rx="27" ry="18"/>
<text text-anchor="middle" x="1823" y="-230.3" font-family="Times New Roman,serif" font-size="14.00">}</text>
</g>
<!-- n2&#45;&gt;n44 -->
<g id="edge44" class="edge"><title>n2&#45;&gt;n44</title>
<path fill="none" stroke="black" d="M638.248,-305.412C836.46,-306.631 1564.14,-307.171 1787,-252 1789.18,-251.46 1791.39,-250.783 1793.58,-250.013"/>
<polygon fill="black" stroke="black" points="1795.03,-253.201 1802.96,-246.173 1792.38,-246.722 1795.03,-253.201"/>
</g>
<!-- n13 -->
<g id="node14" class="node"><title>n13</title>
<ellipse fill="none" stroke="black" cx="491" cy="-162" rx="32.4942" ry="18"/>
<text text-anchor="middle" x="491" y="-158.3" font-family="Times New Roman,serif" font-size="14.00">nuevo</text>
</g>
<!-- n12&#45;&gt;n13 -->
<g id="edge13" class="edge"><title>n12&#45;&gt;n13</title>
<path fill="none" stroke="black" d="M894.794,-221.4C882.552,-219.491 869.913,-217.612 858,-216 713.547,-196.453 673.183,-216.279 532,-180 529.518,-179.362 526.99,-178.604 524.468,-177.766"/>
<polygon fill="black" stroke="black" points="525.486,-174.411 514.892,-174.233 523.063,-180.978 525.486,-174.411"/>
</g>
<!-- n14 -->
<g id="node15" class="node"><title>n14</title>
<ellipse fill="none" stroke="black" cx="568" cy="-162" rx="27" ry="18"/>
<text text-anchor="middle" x="568" y="-158.3" font-family="Times New Roman,serif" font-size="14.00">[</text>
</g>
<!-- n12&#45;&gt;n14 -->
<g id="edge14" class="edge"><title>n12&#45;&gt;n14</title>
<path fill="none" stroke="black" d="M894.181,-221.617C882.121,-219.704 869.702,-217.768 858,-216 745.262,-198.972 713.224,-212.711 604,-180 602.063,-179.42 600.099,-178.751 598.139,-178.02"/>
<polygon fill="black" stroke="black" points="599.095,-174.625 588.52,-173.984 596.387,-181.08 599.095,-174.625"/>
</g>
<!-- n15 -->
<g id="node16" class="node"><title>n15</title>
<ellipse fill="none" stroke="black" cx="640" cy="-162" rx="27" ry="18"/>
<text text-anchor="middle" x="640" y="-158.3" font-family="Times New Roman,serif" font-size="14.00">[</text>
</g>
<!-- n12&#45;&gt;n15 -->
<g id="edge15" class="edge"><title>n12&#45;&gt;n15</title>
<path fill="none" stroke="black" d="M895.294,-221.317C816.82,-207.822 696.566,-186.624 676,-180 674.076,-179.38 672.121,-178.68 670.168,-177.926"/>
<polygon fill="black" stroke="black" points="671.139,-174.535 660.568,-173.83 668.392,-180.974 671.139,-174.535"/>
</g>
<!-- n16 -->
<g id="node17" class="node"><title>n16</title>
<ellipse fill="none" stroke="black" cx="730" cy="-162" rx="45.4919" ry="18"/>
<text text-anchor="middle" x="730" y="-158.3" font-family="Times New Roman,serif" font-size="14.00">NATIVO</text>
</g>
<!-- n12&#45;&gt;n16 -->
<g id="edge16" class="edge"><title>n12&#45;&gt;n16</title>
<path fill="none" stroke="black" d="M913.879,-218.514C877.726,-207.998 827.784,-193.337 784,-180 780.703,-178.996 777.297,-177.948 773.872,-176.887"/>
<polygon fill="black" stroke="black" points="774.838,-173.522 764.25,-173.888 772.756,-180.205 774.838,-173.522"/>
</g>
<!-- n18 -->
<g id="node19" class="node"><title>n18</title>
<ellipse fill="none" stroke="black" cx="820" cy="-162" rx="27" ry="18"/>
<text text-anchor="middle" x="820" y="-158.3" font-family="Times New Roman,serif" font-size="14.00">]</text>
</g>
<!-- n12&#45;&gt;n18 -->
<g id="edge18" class="edge"><title>n12&#45;&gt;n18</title>
<path fill="none" stroke="black" d="M930.963,-216.941C906.734,-205.162 874.081,-189.289 850.475,-177.814"/>
<polygon fill="black" stroke="black" points="851.803,-174.568 841.279,-173.344 848.743,-180.864 851.803,-174.568"/>
</g>
<!-- n19 -->
<g id="node20" class="node"><title>n19</title>
<ellipse fill="none" stroke="black" cx="892" cy="-162" rx="27" ry="18"/>
<text text-anchor="middle" x="892" y="-158.3" font-family="Times New Roman,serif" font-size="14.00">]</text>
</g>
<!-- n12&#45;&gt;n19 -->
<g id="edge19" class="edge"><title>n12&#45;&gt;n19</title>
<path fill="none" stroke="black" d="M946.571,-216.055C936.792,-206.548 924.495,-194.593 914.051,-184.439"/>
<polygon fill="black" stroke="black" points="916.446,-181.886 906.837,-177.424 911.567,-186.905 916.446,-181.886"/>
</g>
<!-- n20 -->
<g id="node21" class="node"><title>n20</title>
<ellipse fill="none" stroke="black" cx="964" cy="-162" rx="27" ry="18"/>
<text text-anchor="middle" x="964" y="-158.3" font-family="Times New Roman,serif" font-size="14.00">=</text>
</g>
<!-- n12&#45;&gt;n20 -->
<g id="edge20" class="edge"><title>n12&#45;&gt;n20</title>
<path fill="none" stroke="black" d="M964,-215.697C964,-207.983 964,-198.712 964,-190.112"/>
<polygon fill="black" stroke="black" points="967.5,-190.104 964,-180.104 960.5,-190.104 967.5,-190.104"/>
</g>
<!-- n21 -->
<g id="node22" class="node"><title>n21</title>
<ellipse fill="none" stroke="black" cx="1054" cy="-162" rx="45.4919" ry="18"/>
<text text-anchor="middle" x="1054" y="-158.3" font-family="Times New Roman,serif" font-size="14.00">NATIVO</text>
</g>
<!-- n12&#45;&gt;n21 -->
<g id="edge21" class="edge"><title>n12&#45;&gt;n21</title>
<path fill="none" stroke="black" d="M985.329,-216.411C997.524,-206.926 1012.96,-194.919 1026.11,-184.692"/>
<polygon fill="black" stroke="black" points="1028.62,-187.176 1034.36,-178.274 1024.32,-181.651 1028.62,-187.176"/>
</g>
<!-- n23 -->
<g id="node24" class="node"><title>n23</title>
<ellipse fill="none" stroke="black" cx="1144" cy="-162" rx="27" ry="18"/>
<text text-anchor="middle" x="1144" y="-158.3" font-family="Times New Roman,serif" font-size="14.00">;</text>
</g>
<!-- n12&#45;&gt;n23 -->
<g id="edge23" class="edge"><title>n12&#45;&gt;n23</title>
<path fill="none" stroke="black" d="M1008.19,-217.877C1036.88,-207.778 1074.96,-193.851 1108,-180 1109.82,-179.238 1111.68,-178.436 1113.54,-177.611"/>
<polygon fill="black" stroke="black" points="1115.17,-180.715 1122.82,-173.383 1112.27,-174.345 1115.17,-180.715"/>
</g>
<!-- n17 -->
<g id="node18" class="node"><title>n17</title>
<ellipse fill="none" stroke="black" cx="730" cy="-90" rx="27" ry="18"/>
<text text-anchor="middle" x="730" y="-86.3" font-family="Times New Roman,serif" font-size="14.00">1</text>
</g>
<!-- n16&#45;&gt;n17 -->
<g id="edge17" class="edge"><title>n16&#45;&gt;n17</title>
<path fill="none" stroke="black" d="M730,-143.697C730,-135.983 730,-126.712 730,-118.112"/>
<polygon fill="black" stroke="black" points="733.5,-118.104 730,-108.104 726.5,-118.104 733.5,-118.104"/>
</g>
<!-- n22 -->
<g id="node23" class="node"><title>n22</title>
<ellipse fill="none" stroke="black" cx="1054" cy="-90" rx="27" ry="18"/>
<text text-anchor="middle" x="1054" y="-86.3" font-family="Times New Roman,serif" font-size="14.00">345</text>
</g>
<!-- n21&#45;&gt;n22 -->
<g id="edge22" class="edge"><title>n21&#45;&gt;n22</title>
<path fill="none" stroke="black" d="M1054,-143.697C1054,-135.983 1054,-126.712 1054,-118.112"/>
<polygon fill="black" stroke="black" points="1057.5,-118.104 1054,-108.104 1050.5,-118.104 1057.5,-118.104"/>
</g>
<!-- n25 -->
<g id="node26" class="node"><title>n25</title>
<ellipse fill="none" stroke="black" cx="1220" cy="-162" rx="30.5947" ry="18"/>
<text text-anchor="middle" x="1220" y="-158.3" font-family="Times New Roman,serif" font-size="14.00">string</text>
</g>
<!-- n24&#45;&gt;n25 -->
<g id="edge25" class="edge"><title>n24&#45;&gt;n25</title>
<path fill="none" stroke="black" d="M1306.3,-216.941C1289.26,-206.285 1266.84,-192.278 1249.13,-181.208"/>
<polygon fill="black" stroke="black" points="1250.69,-178.052 1240.35,-175.72 1246.98,-183.988 1250.69,-178.052"/>
</g>
<!-- n26 -->
<g id="node27" class="node"><title>n26</title>
<ellipse fill="none" stroke="black" cx="1296" cy="-162" rx="27" ry="18"/>
<text text-anchor="middle" x="1296" y="-158.3" font-family="Times New Roman,serif" font-size="14.00">a</text>
</g>
<!-- n24&#45;&gt;n26 -->
<g id="edge26" class="edge"><title>n24&#45;&gt;n26</title>
<path fill="none" stroke="black" d="M1323.29,-216.055C1319.02,-207.767 1313.8,-197.618 1309.08,-188.424"/>
<polygon fill="black" stroke="black" points="1312.07,-186.599 1304.39,-179.307 1305.85,-189.801 1312.07,-186.599"/>
</g>
<!-- n27 -->
<g id="node28" class="node"><title>n27</title>
<ellipse fill="none" stroke="black" cx="1368" cy="-162" rx="27" ry="18"/>
<text text-anchor="middle" x="1368" y="-158.3" font-family="Times New Roman,serif" font-size="14.00">=</text>
</g>
<!-- n24&#45;&gt;n27 -->
<g id="edge27" class="edge"><title>n24&#45;&gt;n27</title>
<path fill="none" stroke="black" d="M1340.71,-216.055C1344.98,-207.767 1350.2,-197.618 1354.92,-188.424"/>
<polygon fill="black" stroke="black" points="1358.15,-189.801 1359.61,-179.307 1351.93,-186.599 1358.15,-189.801"/>
</g>
<!-- n28 -->
<g id="node29" class="node"><title>n28</title>
<ellipse fill="none" stroke="black" cx="1489" cy="-162" rx="76.0865" ry="18"/>
<text text-anchor="middle" x="1489" y="-158.3" font-family="Times New Roman,serif" font-size="14.00">ACCESO&#45;LISTA</text>
</g>
<!-- n24&#45;&gt;n28 -->
<g id="edge28" class="edge"><title>n24&#45;&gt;n28</title>
<path fill="none" stroke="black" d="M1366.07,-217.811C1389.42,-207.4 1420.59,-193.501 1445.7,-182.305"/>
<polygon fill="black" stroke="black" points="1447.29,-185.428 1455,-178.159 1444.44,-179.035 1447.29,-185.428"/>
</g>
<!-- n36 -->
<g id="node37" class="node"><title>n36</title>
<ellipse fill="none" stroke="black" cx="1610" cy="-162" rx="27" ry="18"/>
<text text-anchor="middle" x="1610" y="-158.3" font-family="Times New Roman,serif" font-size="14.00">;</text>
</g>
<!-- n24&#45;&gt;n36 -->
<g id="edge36" class="edge"><title>n24&#45;&gt;n36</title>
<path fill="none" stroke="black" d="M1393.46,-223.491C1443,-214.889 1514.05,-200.426 1574,-180 1575.91,-179.348 1577.86,-178.623 1579.81,-177.85"/>
<polygon fill="black" stroke="black" points="1581.6,-180.887 1589.39,-173.705 1578.82,-174.462 1581.6,-180.887"/>
</g>
<!-- n29 -->
<g id="node30" class="node"><title>n29</title>
<ellipse fill="none" stroke="black" cx="1295" cy="-90" rx="32.4942" ry="18"/>
<text text-anchor="middle" x="1295" y="-86.3" font-family="Times New Roman,serif" font-size="14.00">nuevo</text>
</g>
<!-- n28&#45;&gt;n29 -->
<g id="edge29" class="edge"><title>n28&#45;&gt;n29</title>
<path fill="none" stroke="black" d="M1446.54,-147.05C1415.7,-136.732 1373.05,-122.084 1336,-108 1333.89,-107.199 1331.73,-106.359 1329.56,-105.5"/>
<polygon fill="black" stroke="black" points="1330.64,-102.163 1320.06,-101.667 1328.02,-108.654 1330.64,-102.163"/>
</g>
<!-- n30 -->
<g id="node31" class="node"><title>n30</title>
<ellipse fill="none" stroke="black" cx="1372" cy="-90" rx="27" ry="18"/>
<text text-anchor="middle" x="1372" y="-86.3" font-family="Times New Roman,serif" font-size="14.00">[</text>
</g>
<!-- n28&#45;&gt;n30 -->
<g id="edge30" class="edge"><title>n28&#45;&gt;n30</title>
<path fill="none" stroke="black" d="M1462.45,-145.116C1443.91,-134.023 1419.19,-119.235 1400.28,-107.921"/>
<polygon fill="black" stroke="black" points="1401.9,-104.808 1391.52,-102.677 1398.3,-110.815 1401.9,-104.808"/>
</g>
<!-- n31 -->
<g id="node32" class="node"><title>n31</title>
<ellipse fill="none" stroke="black" cx="1444" cy="-90" rx="27" ry="18"/>
<text text-anchor="middle" x="1444" y="-86.3" font-family="Times New Roman,serif" font-size="14.00">[</text>
</g>
<!-- n28&#45;&gt;n31 -->
<g id="edge31" class="edge"><title>n28&#45;&gt;n31</title>
<path fill="none" stroke="black" d="M1478.11,-144.055C1472.59,-135.469 1465.78,-124.888 1459.71,-115.439"/>
<polygon fill="black" stroke="black" points="1462.53,-113.349 1454.18,-106.829 1456.64,-117.134 1462.53,-113.349"/>
</g>
<!-- n32 -->
<g id="node33" class="node"><title>n32</title>
<ellipse fill="none" stroke="black" cx="1534" cy="-90" rx="45.4919" ry="18"/>
<text text-anchor="middle" x="1534" y="-86.3" font-family="Times New Roman,serif" font-size="14.00">NATIVO</text>
</g>
<!-- n28&#45;&gt;n32 -->
<g id="edge32" class="edge"><title>n28&#45;&gt;n32</title>
<path fill="none" stroke="black" d="M1499.89,-144.055C1505.25,-135.715 1511.83,-125.491 1517.77,-116.252"/>
<polygon fill="black" stroke="black" points="1520.74,-118.093 1523.21,-107.789 1514.86,-114.308 1520.74,-118.093"/>
</g>
<!-- n34 -->
<g id="node35" class="node"><title>n34</title>
<ellipse fill="none" stroke="black" cx="1624" cy="-90" rx="27" ry="18"/>
<text text-anchor="middle" x="1624" y="-86.3" font-family="Times New Roman,serif" font-size="14.00">]</text>
</g>
<!-- n28&#45;&gt;n34 -->
<g id="edge34" class="edge"><title>n28&#45;&gt;n34</title>
<path fill="none" stroke="black" d="M1519.3,-145.291C1541.61,-133.722 1571.81,-118.064 1594.04,-106.536"/>
<polygon fill="black" stroke="black" points="1595.76,-109.583 1603.03,-101.873 1592.54,-103.369 1595.76,-109.583"/>
</g>
<!-- n35 -->
<g id="node36" class="node"><title>n35</title>
<ellipse fill="none" stroke="black" cx="1696" cy="-90" rx="27" ry="18"/>
<text text-anchor="middle" x="1696" y="-86.3" font-family="Times New Roman,serif" font-size="14.00">]</text>
</g>
<!-- n28&#45;&gt;n35 -->
<g id="edge35" class="edge"><title>n28&#45;&gt;n35</title>
<path fill="none" stroke="black" d="M1537.16,-148.034C1571.77,-138.245 1619.3,-123.826 1660,-108 1661.84,-107.286 1663.71,-106.52 1665.59,-105.723"/>
<polygon fill="black" stroke="black" points="1667.19,-108.842 1674.9,-101.571 1664.34,-102.449 1667.19,-108.842"/>
</g>
<!-- n33 -->
<g id="node34" class="node"><title>n33</title>
<ellipse fill="none" stroke="black" cx="1534" cy="-18" rx="27" ry="18"/>
<text text-anchor="middle" x="1534" y="-14.3" font-family="Times New Roman,serif" font-size="14.00">1</text>
</g>
<!-- n32&#45;&gt;n33 -->
<g id="edge33" class="edge"><title>n32&#45;&gt;n33</title>
<path fill="none" stroke="black" d="M1534,-71.6966C1534,-63.9827 1534,-54.7125 1534,-46.1124"/>
<polygon fill="black" stroke="black" points="1537.5,-46.1043 1534,-36.1043 1530.5,-46.1044 1537.5,-46.1043"/>
</g>
<!-- n38 -->
<g id="node39" class="node"><title>n38</title>
<ellipse fill="none" stroke="black" cx="1682" cy="-162" rx="27.0966" ry="18"/>
<text text-anchor="middle" x="1682" y="-158.3" font-family="Times New Roman,serif" font-size="14.00">print</text>
</g>
<!-- n37&#45;&gt;n38 -->
<g id="edge38" class="edge"><title>n37&#45;&gt;n38</title>
<path fill="none" stroke="black" d="M1709.29,-216.055C1705.02,-207.767 1699.8,-197.618 1695.08,-188.424"/>
<polygon fill="black" stroke="black" points="1698.07,-186.599 1690.39,-179.307 1691.85,-189.801 1698.07,-186.599"/>
</g>
<!-- n39 -->
<g id="node40" class="node"><title>n39</title>
<ellipse fill="none" stroke="black" cx="1754" cy="-162" rx="27" ry="18"/>
<text text-anchor="middle" x="1754" y="-158.3" font-family="Times New Roman,serif" font-size="14.00">(</text>
</g>
<!-- n37&#45;&gt;n39 -->
<g id="edge39" class="edge"><title>n37&#45;&gt;n39</title>
<path fill="none" stroke="black" d="M1726.71,-216.055C1730.98,-207.767 1736.2,-197.618 1740.92,-188.424"/>
<polygon fill="black" stroke="black" points="1744.15,-189.801 1745.61,-179.307 1737.93,-186.599 1744.15,-189.801"/>
</g>
<!-- n40 -->
<g id="node41" class="node"><title>n40</title>
<ellipse fill="none" stroke="black" cx="1880" cy="-162" rx="81.4863" ry="18"/>
<text text-anchor="middle" x="1880" y="-158.3" font-family="Times New Roman,serif" font-size="14.00">IDENTIFICADOR</text>
</g>
<!-- n37&#45;&gt;n40 -->
<g id="edge40" class="edge"><title>n37&#45;&gt;n40</title>
<path fill="none" stroke="black" d="M1750.78,-218.834C1775.07,-208.338 1808.46,-193.912 1835.21,-182.353"/>
<polygon fill="black" stroke="black" points="1836.95,-185.416 1844.74,-178.236 1834.17,-178.99 1836.95,-185.416"/>
</g>
<!-- n42 -->
<g id="node43" class="node"><title>n42</title>
<ellipse fill="none" stroke="black" cx="2006" cy="-162" rx="27" ry="18"/>
<text text-anchor="middle" x="2006" y="-158.3" font-family="Times New Roman,serif" font-size="14.00">)</text>
</g>
<!-- n37&#45;&gt;n42 -->
<g id="edge42" class="edge"><title>n37&#45;&gt;n42</title>
<path fill="none" stroke="black" d="M1762.1,-221.806C1770.36,-219.803 1778.93,-217.787 1787,-216 1867.93,-198.08 1891.26,-205.895 1970,-180 1971.92,-179.368 1973.87,-178.659 1975.82,-177.898"/>
<polygon fill="black" stroke="black" points="1977.61,-180.942 1985.42,-173.784 1974.85,-174.508 1977.61,-180.942"/>
</g>
<!-- n43 -->
<g id="node44" class="node"><title>n43</title>
<ellipse fill="none" stroke="black" cx="2078" cy="-162" rx="27" ry="18"/>
<text text-anchor="middle" x="2078" y="-158.3" font-family="Times New Roman,serif" font-size="14.00">;</text>
</g>
<!-- n37&#45;&gt;n43 -->
<g id="edge43" class="edge"><title>n37&#45;&gt;n43</title>
<path fill="none" stroke="black" d="M1761.65,-221.537C1770.03,-219.538 1778.76,-217.592 1787,-216 1899.38,-194.282 1932.35,-212.808 2042,-180 2043.94,-179.421 2045.9,-178.752 2047.86,-178.021"/>
<polygon fill="black" stroke="black" points="2049.61,-181.082 2057.48,-173.986 2046.91,-174.627 2049.61,-181.082"/>
</g>
<!-- n41 -->
<g id="node42" class="node"><title>n41</title>
<ellipse fill="none" stroke="black" cx="1880" cy="-90" rx="27" ry="18"/>
<text text-anchor="middle" x="1880" y="-86.3" font-family="Times New Roman,serif" font-size="14.00">a</text>
</g>
<!-- n40&#45;&gt;n41 -->
<g id="edge41" class="edge"><title>n40&#45;&gt;n41</title>
<path fill="none" stroke="black" d="M1880,-143.697C1880,-135.983 1880,-126.712 1880,-118.112"/>
<polygon fill="black" stroke="black" points="1883.5,-118.104 1880,-108.104 1876.5,-118.104 1883.5,-118.104"/>
</g>
<!-- n46 -->
<g id="node47" class="node"><title>n46</title>
<ellipse fill="none" stroke="black" cx="1895" cy="-234" rx="27.0966" ry="18"/>
<text text-anchor="middle" x="1895" y="-230.3" font-family="Times New Roman,serif" font-size="14.00">exec</text>
</g>
<!-- n45&#45;&gt;n46 -->
<g id="edge46" class="edge"><title>n45&#45;&gt;n46</title>
<path fill="none" stroke="black" d="M1982.18,-291.503C1965.21,-280.51 1941.12,-264.894 1922.56,-252.865"/>
<polygon fill="black" stroke="black" points="1924.25,-249.785 1913.95,-247.283 1920.44,-255.659 1924.25,-249.785"/>
</g>
<!-- n47 -->
<g id="node48" class="node"><title>n47</title>
<ellipse fill="none" stroke="black" cx="1967" cy="-234" rx="27" ry="18"/>
<text text-anchor="middle" x="1967" y="-230.3" font-family="Times New Roman,serif" font-size="14.00">eje</text>
</g>
<!-- n45&#45;&gt;n47 -->
<g id="edge47" class="edge"><title>n45&#45;&gt;n47</title>
<path fill="none" stroke="black" d="M1994.47,-288.411C1990.16,-280.042 1984.85,-269.71 1980.05,-260.37"/>
<polygon fill="black" stroke="black" points="1983.16,-258.762 1975.47,-251.47 1976.93,-261.964 1983.16,-258.762"/>
</g>
<!-- n48 -->
<g id="node49" class="node"><title>n48</title>
<ellipse fill="none" stroke="black" cx="2039" cy="-234" rx="27" ry="18"/>
<text text-anchor="middle" x="2039" y="-230.3" font-family="Times New Roman,serif" font-size="14.00">(</text>
</g>
<!-- n45&#45;&gt;n48 -->
<g id="edge48" class="edge"><title>n45&#45;&gt;n48</title>
<path fill="none" stroke="black" d="M2011.53,-288.411C2015.84,-280.042 2021.15,-269.71 2025.95,-260.37"/>
<polygon fill="black" stroke="black" points="2029.07,-261.964 2030.53,-251.47 2022.84,-258.762 2029.07,-261.964"/>
</g>
<!-- n49 -->
<g id="node50" class="node"><title>n49</title>
<ellipse fill="none" stroke="black" cx="2111" cy="-234" rx="27" ry="18"/>
<text text-anchor="middle" x="2111" y="-230.3" font-family="Times New Roman,serif" font-size="14.00">)</text>
</g>
<!-- n45&#45;&gt;n49 -->
<g id="edge49" class="edge"><title>n45&#45;&gt;n49</title>
<path fill="none" stroke="black" d="M2023.82,-291.503C2040.89,-280.441 2065.18,-264.7 2083.78,-252.641"/>
<polygon fill="black" stroke="black" points="2085.92,-255.429 2092.4,-247.053 2082.11,-249.555 2085.92,-255.429"/>
</g>
<!-- n50 -->
<g id="node51" class="node"><title>n50</title>
<ellipse fill="none" stroke="black" cx="2183" cy="-234" rx="27" ry="18"/>
<text text-anchor="middle" x="2183" y="-230.3" font-family="Times New Roman,serif" font-size="14.00">;</text>
</g>
<!-- n45&#45;&gt;n50 -->
<g id="edge50" class="edge"><title>n45&#45;&gt;n50</title>
<path fill="none" stroke="black" d="M2031.16,-295.465C2060.4,-285.372 2107.32,-268.632 2147,-252 2148.82,-251.238 2150.68,-250.436 2152.54,-249.611"/>
<polygon fill="black" stroke="black" points="2154.17,-252.715 2161.82,-245.383 2151.27,-246.345 2154.17,-252.715"/>
</g>
</g>
</svg>
