<?xml version="1.0" encoding="UTF-8" standalone="no"?>
<!DOCTYPE svg PUBLIC "-//W3C//DTD SVG 1.1//EN"
 "http://www.w3.org/Graphics/SVG/1.1/DTD/svg11.dtd">
<!-- Generated by graphviz version 2.38.0 (20140413.2041)
 -->
<!-- Title: arbolAST Pages: 1 -->
<svg width="1716pt" height="476pt"
 viewBox="0.00 0.00 1716.00 476.00" xmlns="http://www.w3.org/2000/svg" xmlns:xlink="http://www.w3.org/1999/xlink">
<g id="graph0" class="graph" transform="scale(1 1) rotate(0) translate(4 472)">
<title>arbolAST</title>
<polygon fill="white" stroke="none" points="-4,4 -4,-472 1712,-472 1712,4 -4,4"/>
<!-- n0 -->
<g id="node1" class="node"><title>n0</title>
<ellipse fill="none" stroke="black" cx="1002" cy="-450" rx="31.6951" ry="18"/>
<text text-anchor="middle" x="1002" y="-446.3" font-family="Times New Roman,serif" font-size="14.00">RAIZ</text>
</g>
<!-- n1 -->
<g id="node2" class="node"><title>n1</title>
<ellipse fill="none" stroke="black" cx="1002" cy="-378" rx="83.3857" ry="18"/>
<text text-anchor="middle" x="1002" y="-374.3" font-family="Times New Roman,serif" font-size="14.00">INSTRUCCIONES</text>
</g>
<!-- n0&#45;&gt;n1 -->
<g id="edge1" class="edge"><title>n0&#45;&gt;n1</title>
<path fill="none" stroke="black" d="M1002,-431.697C1002,-423.983 1002,-414.712 1002,-406.112"/>
<polygon fill="black" stroke="black" points="1005.5,-406.104 1002,-396.104 998.5,-406.104 1005.5,-406.104"/>
</g>
<!-- n2 -->
<g id="node3" class="node"><title>n2</title>
<ellipse fill="none" stroke="black" cx="576" cy="-306" rx="50.0912" ry="18"/>
<text text-anchor="middle" x="576" y="-302.3" font-family="Times New Roman,serif" font-size="14.00">METODO</text>
</g>
<!-- n1&#45;&gt;n2 -->
<g id="edge2" class="edge"><title>n1&#45;&gt;n2</title>
<path fill="none" stroke="black" d="M937.762,-366.445C854.122,-352.701 709.355,-328.913 630.698,-315.988"/>
<polygon fill="black" stroke="black" points="630.95,-312.483 620.515,-314.315 629.815,-319.39 630.95,-312.483"/>
</g>
<!-- n38 -->
<g id="node39" class="node"><title>n38</title>
<ellipse fill="none" stroke="black" cx="1501" cy="-306" rx="34.394" ry="18"/>
<text text-anchor="middle" x="1501" y="-302.3" font-family="Times New Roman,serif" font-size="14.00">EXEC</text>
</g>
<!-- n1&#45;&gt;n38 -->
<g id="edge38" class="edge"><title>n1&#45;&gt;n38</title>
<path fill="none" stroke="black" d="M1069.82,-367.487C1174.16,-352.849 1371.11,-325.221 1457.98,-313.035"/>
<polygon fill="black" stroke="black" points="1458.6,-316.482 1468.02,-311.627 1457.63,-309.55 1458.6,-316.482"/>
</g>
<!-- n3 -->
<g id="node4" class="node"><title>n3</title>
<ellipse fill="none" stroke="black" cx="288" cy="-234" rx="27" ry="18"/>
<text text-anchor="middle" x="288" y="-230.3" font-family="Times New Roman,serif" font-size="14.00">void</text>
</g>
<!-- n2&#45;&gt;n3 -->
<g id="edge3" class="edge"><title>n2&#45;&gt;n3</title>
<path fill="none" stroke="black" d="M530.082,-298.65C478.909,-290.817 394.135,-275.572 324,-252 322.084,-251.356 320.135,-250.637 318.187,-249.869"/>
<polygon fill="black" stroke="black" points="319.167,-246.48 308.599,-245.736 316.396,-252.908 319.167,-246.48"/>
</g>
<!-- n4 -->
<g id="node5" class="node"><title>n4</title>
<ellipse fill="none" stroke="black" cx="360" cy="-234" rx="27" ry="18"/>
<text text-anchor="middle" x="360" y="-230.3" font-family="Times New Roman,serif" font-size="14.00">eje</text>
</g>
<!-- n2&#45;&gt;n4 -->
<g id="edge4" class="edge"><title>n2&#45;&gt;n4</title>
<path fill="none" stroke="black" d="M535.733,-295.057C498.861,-285.504 443.037,-269.907 396,-252 394.159,-251.299 392.282,-250.544 390.399,-249.754"/>
<polygon fill="black" stroke="black" points="391.644,-246.478 381.084,-245.623 388.806,-252.877 391.644,-246.478"/>
</g>
<!-- n5 -->
<g id="node6" class="node"><title>n5</title>
<ellipse fill="none" stroke="black" cx="432" cy="-234" rx="27" ry="18"/>
<text text-anchor="middle" x="432" y="-230.3" font-family="Times New Roman,serif" font-size="14.00">(</text>
</g>
<!-- n2&#45;&gt;n5 -->
<g id="edge5" class="edge"><title>n2&#45;&gt;n5</title>
<path fill="none" stroke="black" d="M547.55,-291.17C522.984,-279.229 487.584,-262.02 462.452,-249.803"/>
<polygon fill="black" stroke="black" points="463.89,-246.611 453.366,-245.386 460.83,-252.906 463.89,-246.611"/>
</g>
<!-- n6 -->
<g id="node7" class="node"><title>n6</title>
<ellipse fill="none" stroke="black" cx="504" cy="-234" rx="27" ry="18"/>
<text text-anchor="middle" x="504" y="-230.3" font-family="Times New Roman,serif" font-size="14.00">)</text>
</g>
<!-- n2&#45;&gt;n6 -->
<g id="edge6" class="edge"><title>n2&#45;&gt;n6</title>
<path fill="none" stroke="black" d="M559.301,-288.765C549.406,-279.145 536.749,-266.84 526.042,-256.43"/>
<polygon fill="black" stroke="black" points="528.267,-253.711 518.657,-249.25 523.387,-258.73 528.267,-253.711"/>
</g>
<!-- n7 -->
<g id="node8" class="node"><title>n7</title>
<ellipse fill="none" stroke="black" cx="576" cy="-234" rx="27" ry="18"/>
<text text-anchor="middle" x="576" y="-230.3" font-family="Times New Roman,serif" font-size="14.00">{</text>
</g>
<!-- n2&#45;&gt;n7 -->
<g id="edge7" class="edge"><title>n2&#45;&gt;n7</title>
<path fill="none" stroke="black" d="M576,-287.697C576,-279.983 576,-270.712 576,-262.112"/>
<polygon fill="black" stroke="black" points="579.5,-262.104 576,-252.104 572.5,-262.104 579.5,-262.104"/>
</g>
<!-- n8 -->
<g id="node9" class="node"><title>n8</title>
<ellipse fill="none" stroke="black" cx="679" cy="-234" rx="58.4896" ry="18"/>
<text text-anchor="middle" x="679" y="-230.3" font-family="Times New Roman,serif" font-size="14.00">VECTORES</text>
</g>
<!-- n2&#45;&gt;n8 -->
<g id="edge8" class="edge"><title>n2&#45;&gt;n8</title>
<path fill="none" stroke="black" d="M598.349,-289.811C612.727,-280.04 631.624,-267.197 647.512,-256.4"/>
<polygon fill="black" stroke="black" points="649.678,-259.16 655.981,-250.644 645.743,-253.37 649.678,-259.16"/>
</g>
<!-- n26 -->
<g id="node27" class="node"><title>n26</title>
<ellipse fill="none" stroke="black" cx="1201" cy="-234" rx="75.2868" ry="18"/>
<text text-anchor="middle" x="1201" y="-230.3" font-family="Times New Roman,serif" font-size="14.00">DECLARACION</text>
</g>
<!-- n2&#45;&gt;n26 -->
<g id="edge26" class="edge"><title>n2&#45;&gt;n26</title>
<path fill="none" stroke="black" d="M622.977,-299.739C730.052,-287.746 993.051,-258.29 1124.14,-243.609"/>
<polygon fill="black" stroke="black" points="1124.56,-247.083 1134.11,-242.492 1123.78,-240.127 1124.56,-247.083"/>
</g>
<!-- n37 -->
<g id="node38" class="node"><title>n37</title>
<ellipse fill="none" stroke="black" cx="1321" cy="-234" rx="27" ry="18"/>
<text text-anchor="middle" x="1321" y="-230.3" font-family="Times New Roman,serif" font-size="14.00">}</text>
</g>
<!-- n2&#45;&gt;n37 -->
<g id="edge37" class="edge"><title>n2&#45;&gt;n37</title>
<path fill="none" stroke="black" d="M625.805,-303.638C765.699,-299.44 1160.13,-284.937 1285,-252 1287.17,-251.427 1289.37,-250.726 1291.56,-249.938"/>
<polygon fill="black" stroke="black" points="1293.03,-253.117 1300.93,-246.057 1290.35,-246.649 1293.03,-253.117"/>
</g>
<!-- n9 -->
<g id="node10" class="node"><title>n9</title>
<ellipse fill="none" stroke="black" cx="27" cy="-162" rx="27" ry="18"/>
<text text-anchor="middle" x="27" y="-158.3" font-family="Times New Roman,serif" font-size="14.00">int</text>
</g>
<!-- n8&#45;&gt;n9 -->
<g id="edge9" class="edge"><title>n8&#45;&gt;n9</title>
<path fill="none" stroke="black" d="M637.429,-221.198C629.066,-219.179 620.297,-217.313 612,-216 370.483,-177.771 299.72,-241.285 63,-180 60.8254,-179.437 58.6227,-178.743 56.4341,-177.96"/>
<polygon fill="black" stroke="black" points="57.639,-174.671 47.06,-174.092 54.9689,-181.142 57.639,-174.671"/>
</g>
<!-- n10 -->
<g id="node11" class="node"><title>n10</title>
<ellipse fill="none" stroke="black" cx="99" cy="-162" rx="27" ry="18"/>
<text text-anchor="middle" x="99" y="-158.3" font-family="Times New Roman,serif" font-size="14.00">[</text>
</g>
<!-- n8&#45;&gt;n10 -->
<g id="edge10" class="edge"><title>n8&#45;&gt;n10</title>
<path fill="none" stroke="black" d="M637.418,-221.263C629.057,-219.239 620.291,-217.354 612,-216 402.178,-181.728 340.552,-234.297 135,-180 132.828,-179.426 130.628,-178.724 128.44,-177.936"/>
<polygon fill="black" stroke="black" points="129.648,-174.648 119.07,-174.055 126.969,-181.115 129.648,-174.648"/>
</g>
<!-- n11 -->
<g id="node12" class="node"><title>n11</title>
<ellipse fill="none" stroke="black" cx="171" cy="-162" rx="27" ry="18"/>
<text text-anchor="middle" x="171" y="-158.3" font-family="Times New Roman,serif" font-size="14.00">]</text>
</g>
<!-- n8&#45;&gt;n11 -->
<g id="edge11" class="edge"><title>n8&#45;&gt;n11</title>
<path fill="none" stroke="black" d="M637.045,-221.263C628.793,-219.265 620.163,-217.389 612,-216 433.852,-185.682 381.405,-227.315 207,-180 205.049,-179.471 203.074,-178.84 201.105,-178.139"/>
<polygon fill="black" stroke="black" points="202.044,-174.741 191.464,-174.18 199.385,-181.216 202.044,-174.741"/>
</g>
<!-- n12 -->
<g id="node13" class="node"><title>n12</title>
<ellipse fill="none" stroke="black" cx="254" cy="-162" rx="38.1938" ry="18"/>
<text text-anchor="middle" x="254" y="-158.3" font-family="Times New Roman,serif" font-size="14.00">variable</text>
</g>
<!-- n8&#45;&gt;n12 -->
<g id="edge12" class="edge"><title>n8&#45;&gt;n12</title>
<path fill="none" stroke="black" d="M637.014,-221.437C628.765,-219.423 620.144,-217.498 612,-216 475.15,-190.834 436.444,-211.878 301,-180 297.973,-179.287 294.871,-178.441 291.777,-177.513"/>
<polygon fill="black" stroke="black" points="292.604,-174.101 282.012,-174.329 290.434,-180.756 292.604,-174.101"/>
</g>
<!-- n13 -->
<g id="node14" class="node"><title>n13</title>
<ellipse fill="none" stroke="black" cx="337" cy="-162" rx="27" ry="18"/>
<text text-anchor="middle" x="337" y="-158.3" font-family="Times New Roman,serif" font-size="14.00">=</text>
</g>
<!-- n8&#45;&gt;n13 -->
<g id="edge13" class="edge"><title>n8&#45;&gt;n13</title>
<path fill="none" stroke="black" d="M636.613,-221.571C628.476,-219.569 619.999,-217.613 612,-216 506.699,-194.765 475.769,-211.267 373,-180 371.066,-179.412 369.104,-178.736 367.145,-178"/>
<polygon fill="black" stroke="black" points="368.104,-174.606 357.53,-173.951 365.388,-181.058 368.104,-174.606"/>
</g>
<!-- n14 -->
<g id="node15" class="node"><title>n14</title>
<ellipse fill="none" stroke="black" cx="409" cy="-162" rx="27" ry="18"/>
<text text-anchor="middle" x="409" y="-158.3" font-family="Times New Roman,serif" font-size="14.00">{</text>
</g>
<!-- n8&#45;&gt;n14 -->
<g id="edge14" class="edge"><title>n8&#45;&gt;n14</title>
<path fill="none" stroke="black" d="M635.806,-221.796C627.899,-219.815 619.711,-217.809 612,-216 538.079,-198.66 516.91,-204.37 445,-180 443.085,-179.351 441.138,-178.629 439.191,-177.858"/>
<polygon fill="black" stroke="black" points="440.173,-174.469 429.605,-173.717 437.397,-180.896 440.173,-174.469"/>
</g>
<!-- n15 -->
<g id="node16" class="node"><title>n15</title>
<ellipse fill="none" stroke="black" cx="499" cy="-162" rx="45.4919" ry="18"/>
<text text-anchor="middle" x="499" y="-158.3" font-family="Times New Roman,serif" font-size="14.00">NATIVO</text>
</g>
<!-- n8&#45;&gt;n15 -->
<g id="edge15" class="edge"><title>n8&#45;&gt;n15</title>
<path fill="none" stroke="black" d="M644.294,-219.503C614.39,-207.874 571.188,-191.073 539.669,-178.816"/>
<polygon fill="black" stroke="black" points="540.878,-175.531 530.289,-175.168 538.341,-182.055 540.878,-175.531"/>
</g>
<!-- n17 -->
<g id="node18" class="node"><title>n17</title>
<ellipse fill="none" stroke="black" cx="589" cy="-162" rx="27" ry="18"/>
<text text-anchor="middle" x="589" y="-158.3" font-family="Times New Roman,serif" font-size="14.00">,</text>
</g>
<!-- n8&#45;&gt;n17 -->
<g id="edge17" class="edge"><title>n8&#45;&gt;n17</title>
<path fill="none" stroke="black" d="M658.578,-217.116C645.435,-206.894 628.258,-193.534 614.26,-182.647"/>
<polygon fill="black" stroke="black" points="616.062,-179.614 606.019,-176.237 611.764,-185.139 616.062,-179.614"/>
</g>
<!-- n18 -->
<g id="node19" class="node"><title>n18</title>
<ellipse fill="none" stroke="black" cx="679" cy="-162" rx="45.4919" ry="18"/>
<text text-anchor="middle" x="679" y="-158.3" font-family="Times New Roman,serif" font-size="14.00">NATIVO</text>
</g>
<!-- n8&#45;&gt;n18 -->
<g id="edge18" class="edge"><title>n8&#45;&gt;n18</title>
<path fill="none" stroke="black" d="M679,-215.697C679,-207.983 679,-198.712 679,-190.112"/>
<polygon fill="black" stroke="black" points="682.5,-190.104 679,-180.104 675.5,-190.104 682.5,-190.104"/>
</g>
<!-- n20 -->
<g id="node21" class="node"><title>n20</title>
<ellipse fill="none" stroke="black" cx="769" cy="-162" rx="27" ry="18"/>
<text text-anchor="middle" x="769" y="-158.3" font-family="Times New Roman,serif" font-size="14.00">,</text>
</g>
<!-- n8&#45;&gt;n20 -->
<g id="edge20" class="edge"><title>n8&#45;&gt;n20</title>
<path fill="none" stroke="black" d="M699.422,-217.116C712.565,-206.894 729.742,-193.534 743.74,-182.647"/>
<polygon fill="black" stroke="black" points="746.236,-185.139 751.981,-176.237 741.938,-179.614 746.236,-185.139"/>
</g>
<!-- n21 -->
<g id="node22" class="node"><title>n21</title>
<ellipse fill="none" stroke="black" cx="859" cy="-162" rx="45.4919" ry="18"/>
<text text-anchor="middle" x="859" y="-158.3" font-family="Times New Roman,serif" font-size="14.00">NATIVO</text>
</g>
<!-- n8&#45;&gt;n21 -->
<g id="edge21" class="edge"><title>n8&#45;&gt;n21</title>
<path fill="none" stroke="black" d="M713.706,-219.503C743.61,-207.874 786.812,-191.073 818.331,-178.816"/>
<polygon fill="black" stroke="black" points="819.659,-182.055 827.711,-175.168 817.122,-175.531 819.659,-182.055"/>
</g>
<!-- n23 -->
<g id="node24" class="node"><title>n23</title>
<ellipse fill="none" stroke="black" cx="949" cy="-162" rx="27" ry="18"/>
<text text-anchor="middle" x="949" y="-158.3" font-family="Times New Roman,serif" font-size="14.00">,</text>
</g>
<!-- n8&#45;&gt;n23 -->
<g id="edge23" class="edge"><title>n8&#45;&gt;n23</title>
<path fill="none" stroke="black" d="M729.639,-224.832C777.642,-216.322 851.37,-201.245 913,-180 914.911,-179.341 916.856,-178.611 918.801,-177.834"/>
<polygon fill="black" stroke="black" points="920.6,-180.869 928.382,-173.679 917.815,-174.447 920.6,-180.869"/>
</g>
<!-- n24 -->
<g id="node25" class="node"><title>n24</title>
<ellipse fill="none" stroke="black" cx="1021" cy="-162" rx="27" ry="18"/>
<text text-anchor="middle" x="1021" y="-158.3" font-family="Times New Roman,serif" font-size="14.00">}</text>
</g>
<!-- n8&#45;&gt;n24 -->
<g id="edge24" class="edge"><title>n8&#45;&gt;n24</title>
<path fill="none" stroke="black" d="M734.228,-227.962C796.336,-221.263 899.666,-206.991 985,-180 986.928,-179.39 988.885,-178.698 990.839,-177.95"/>
<polygon fill="black" stroke="black" points="992.61,-181.001 1000.44,-173.869 989.872,-174.558 992.61,-181.001"/>
</g>
<!-- n25 -->
<g id="node26" class="node"><title>n25</title>
<ellipse fill="none" stroke="black" cx="1093" cy="-162" rx="27" ry="18"/>
<text text-anchor="middle" x="1093" y="-158.3" font-family="Times New Roman,serif" font-size="14.00">;</text>
</g>
<!-- n8&#45;&gt;n25 -->
<g id="edge25" class="edge"><title>n8&#45;&gt;n25</title>
<path fill="none" stroke="black" d="M736.497,-230.327C811.596,-225.624 946.518,-212.998 1057,-180 1058.94,-179.421 1060.9,-178.753 1062.86,-178.023"/>
<polygon fill="black" stroke="black" points="1064.61,-181.084 1072.48,-173.989 1061.91,-174.629 1064.61,-181.084"/>
</g>
<!-- n16 -->
<g id="node17" class="node"><title>n16</title>
<ellipse fill="none" stroke="black" cx="499" cy="-90" rx="27" ry="18"/>
<text text-anchor="middle" x="499" y="-86.3" font-family="Times New Roman,serif" font-size="14.00">3</text>
</g>
<!-- n15&#45;&gt;n16 -->
<g id="edge16" class="edge"><title>n15&#45;&gt;n16</title>
<path fill="none" stroke="black" d="M499,-143.697C499,-135.983 499,-126.712 499,-118.112"/>
<polygon fill="black" stroke="black" points="502.5,-118.104 499,-108.104 495.5,-118.104 502.5,-118.104"/>
</g>
<!-- n19 -->
<g id="node20" class="node"><title>n19</title>
<ellipse fill="none" stroke="black" cx="679" cy="-90" rx="27" ry="18"/>
<text text-anchor="middle" x="679" y="-86.3" font-family="Times New Roman,serif" font-size="14.00">4</text>
</g>
<!-- n18&#45;&gt;n19 -->
<g id="edge19" class="edge"><title>n18&#45;&gt;n19</title>
<path fill="none" stroke="black" d="M679,-143.697C679,-135.983 679,-126.712 679,-118.112"/>
<polygon fill="black" stroke="black" points="682.5,-118.104 679,-108.104 675.5,-118.104 682.5,-118.104"/>
</g>
<!-- n22 -->
<g id="node23" class="node"><title>n22</title>
<ellipse fill="none" stroke="black" cx="859" cy="-90" rx="27" ry="18"/>
<text text-anchor="middle" x="859" y="-86.3" font-family="Times New Roman,serif" font-size="14.00">6</text>
</g>
<!-- n21&#45;&gt;n22 -->
<g id="edge22" class="edge"><title>n21&#45;&gt;n22</title>
<path fill="none" stroke="black" d="M859,-143.697C859,-135.983 859,-126.712 859,-118.112"/>
<polygon fill="black" stroke="black" points="862.5,-118.104 859,-108.104 855.5,-118.104 862.5,-118.104"/>
</g>
<!-- n27 -->
<g id="node28" class="node"><title>n27</title>
<ellipse fill="none" stroke="black" cx="1165" cy="-162" rx="27" ry="18"/>
<text text-anchor="middle" x="1165" y="-158.3" font-family="Times New Roman,serif" font-size="14.00">int</text>
</g>
<!-- n26&#45;&gt;n27 -->
<g id="edge27" class="edge"><title>n26&#45;&gt;n27</title>
<path fill="none" stroke="black" d="M1192.29,-216.055C1188.02,-207.767 1182.8,-197.618 1178.08,-188.424"/>
<polygon fill="black" stroke="black" points="1181.07,-186.599 1173.39,-179.307 1174.85,-189.801 1181.07,-186.599"/>
</g>
<!-- n28 -->
<g id="node29" class="node"><title>n28</title>
<ellipse fill="none" stroke="black" cx="1237" cy="-162" rx="27" ry="18"/>
<text text-anchor="middle" x="1237" y="-158.3" font-family="Times New Roman,serif" font-size="14.00">a</text>
</g>
<!-- n26&#45;&gt;n28 -->
<g id="edge28" class="edge"><title>n26&#45;&gt;n28</title>
<path fill="none" stroke="black" d="M1209.71,-216.055C1213.98,-207.767 1219.2,-197.618 1223.92,-188.424"/>
<polygon fill="black" stroke="black" points="1227.15,-189.801 1228.61,-179.307 1220.93,-186.599 1227.15,-189.801"/>
</g>
<!-- n29 -->
<g id="node30" class="node"><title>n29</title>
<ellipse fill="none" stroke="black" cx="1309" cy="-162" rx="27" ry="18"/>
<text text-anchor="middle" x="1309" y="-158.3" font-family="Times New Roman,serif" font-size="14.00">=</text>
</g>
<!-- n26&#45;&gt;n29 -->
<g id="edge29" class="edge"><title>n26&#45;&gt;n29</title>
<path fill="none" stroke="black" d="M1225.78,-216.941C1242.54,-206.079 1264.67,-191.735 1281.89,-180.569"/>
<polygon fill="black" stroke="black" points="1283.91,-183.431 1290.4,-175.055 1280.11,-177.557 1283.91,-183.431"/>
</g>
<!-- n30 -->
<g id="node31" class="node"><title>n30</title>
<ellipse fill="none" stroke="black" cx="1441" cy="-162" rx="87.1846" ry="18"/>
<text text-anchor="middle" x="1441" y="-158.3" font-family="Times New Roman,serif" font-size="14.00">ACCESO&#45;VECTOR</text>
</g>
<!-- n26&#45;&gt;n30 -->
<g id="edge30" class="edge"><title>n26&#45;&gt;n30</title>
<path fill="none" stroke="black" d="M1246.71,-219.669C1285.36,-208.395 1340.97,-192.175 1382.8,-179.975"/>
<polygon fill="black" stroke="black" points="1383.96,-183.283 1392.58,-177.122 1382,-176.563 1383.96,-183.283"/>
</g>
<!-- n36 -->
<g id="node37" class="node"><title>n36</title>
<ellipse fill="none" stroke="black" cx="1573" cy="-162" rx="27" ry="18"/>
<text text-anchor="middle" x="1573" y="-158.3" font-family="Times New Roman,serif" font-size="14.00">;</text>
</g>
<!-- n26&#45;&gt;n36 -->
<g id="edge36" class="edge"><title>n26&#45;&gt;n36</title>
<path fill="none" stroke="black" d="M1255.59,-221.476C1265.36,-219.549 1275.47,-217.644 1285,-216 1396.49,-196.771 1428.64,-212.519 1537,-180 1538.94,-179.419 1540.9,-178.749 1542.86,-178.017"/>
<polygon fill="black" stroke="black" points="1544.61,-181.077 1552.48,-173.98 1541.9,-174.623 1544.61,-181.077"/>
</g>
<!-- n31 -->
<g id="node32" class="node"><title>n31</title>
<ellipse fill="none" stroke="black" cx="1313" cy="-90" rx="38.1938" ry="18"/>
<text text-anchor="middle" x="1313" y="-86.3" font-family="Times New Roman,serif" font-size="14.00">variable</text>
</g>
<!-- n30&#45;&gt;n31 -->
<g id="edge31" class="edge"><title>n30&#45;&gt;n31</title>
<path fill="none" stroke="black" d="M1411.63,-144.941C1392.05,-134.23 1366.27,-120.132 1345.98,-109.035"/>
<polygon fill="black" stroke="black" points="1347.54,-105.898 1337.08,-104.171 1344.18,-112.04 1347.54,-105.898"/>
</g>
<!-- n32 -->
<g id="node33" class="node"><title>n32</title>
<ellipse fill="none" stroke="black" cx="1396" cy="-90" rx="27" ry="18"/>
<text text-anchor="middle" x="1396" y="-86.3" font-family="Times New Roman,serif" font-size="14.00">[</text>
</g>
<!-- n30&#45;&gt;n32 -->
<g id="edge32" class="edge"><title>n30&#45;&gt;n32</title>
<path fill="none" stroke="black" d="M1430.11,-144.055C1424.59,-135.469 1417.78,-124.888 1411.71,-115.439"/>
<polygon fill="black" stroke="black" points="1414.53,-113.349 1406.18,-106.829 1408.64,-117.134 1414.53,-113.349"/>
</g>
<!-- n33 -->
<g id="node34" class="node"><title>n33</title>
<ellipse fill="none" stroke="black" cx="1486" cy="-90" rx="45.4919" ry="18"/>
<text text-anchor="middle" x="1486" y="-86.3" font-family="Times New Roman,serif" font-size="14.00">NATIVO</text>
</g>
<!-- n30&#45;&gt;n33 -->
<g id="edge33" class="edge"><title>n30&#45;&gt;n33</title>
<path fill="none" stroke="black" d="M1451.89,-144.055C1457.25,-135.715 1463.83,-125.491 1469.77,-116.252"/>
<polygon fill="black" stroke="black" points="1472.74,-118.093 1475.21,-107.789 1466.86,-114.308 1472.74,-118.093"/>
</g>
<!-- n35 -->
<g id="node36" class="node"><title>n35</title>
<ellipse fill="none" stroke="black" cx="1576" cy="-90" rx="27" ry="18"/>
<text text-anchor="middle" x="1576" y="-86.3" font-family="Times New Roman,serif" font-size="14.00">]</text>
</g>
<!-- n30&#45;&gt;n35 -->
<g id="edge35" class="edge"><title>n30&#45;&gt;n35</title>
<path fill="none" stroke="black" d="M1471.63,-145.116C1493.96,-133.539 1524.05,-117.937 1546.18,-106.46"/>
<polygon fill="black" stroke="black" points="1547.87,-109.528 1555.14,-101.818 1544.65,-103.314 1547.87,-109.528"/>
</g>
<!-- n34 -->
<g id="node35" class="node"><title>n34</title>
<ellipse fill="none" stroke="black" cx="1486" cy="-18" rx="27" ry="18"/>
<text text-anchor="middle" x="1486" y="-14.3" font-family="Times New Roman,serif" font-size="14.00">1</text>
</g>
<!-- n33&#45;&gt;n34 -->
<g id="edge34" class="edge"><title>n33&#45;&gt;n34</title>
<path fill="none" stroke="black" d="M1486,-71.6966C1486,-63.9827 1486,-54.7125 1486,-46.1124"/>
<polygon fill="black" stroke="black" points="1489.5,-46.1043 1486,-36.1043 1482.5,-46.1044 1489.5,-46.1043"/>
</g>
<!-- n39 -->
<g id="node40" class="node"><title>n39</title>
<ellipse fill="none" stroke="black" cx="1393" cy="-234" rx="27.0966" ry="18"/>
<text text-anchor="middle" x="1393" y="-230.3" font-family="Times New Roman,serif" font-size="14.00">exec</text>
</g>
<!-- n38&#45;&gt;n39 -->
<g id="edge39" class="edge"><title>n38&#45;&gt;n39</title>
<path fill="none" stroke="black" d="M1480.18,-291.503C1463.21,-280.51 1439.12,-264.894 1420.56,-252.865"/>
<polygon fill="black" stroke="black" points="1422.25,-249.785 1411.95,-247.283 1418.44,-255.659 1422.25,-249.785"/>
</g>
<!-- n40 -->
<g id="node41" class="node"><title>n40</title>
<ellipse fill="none" stroke="black" cx="1465" cy="-234" rx="27" ry="18"/>
<text text-anchor="middle" x="1465" y="-230.3" font-family="Times New Roman,serif" font-size="14.00">eje</text>
</g>
<!-- n38&#45;&gt;n40 -->
<g id="edge40" class="edge"><title>n38&#45;&gt;n40</title>
<path fill="none" stroke="black" d="M1492.47,-288.411C1488.16,-280.042 1482.85,-269.71 1478.05,-260.37"/>
<polygon fill="black" stroke="black" points="1481.16,-258.762 1473.47,-251.47 1474.93,-261.964 1481.16,-258.762"/>
</g>
<!-- n41 -->
<g id="node42" class="node"><title>n41</title>
<ellipse fill="none" stroke="black" cx="1537" cy="-234" rx="27" ry="18"/>
<text text-anchor="middle" x="1537" y="-230.3" font-family="Times New Roman,serif" font-size="14.00">(</text>
</g>
<!-- n38&#45;&gt;n41 -->
<g id="edge41" class="edge"><title>n38&#45;&gt;n41</title>
<path fill="none" stroke="black" d="M1509.53,-288.411C1513.84,-280.042 1519.15,-269.71 1523.95,-260.37"/>
<polygon fill="black" stroke="black" points="1527.07,-261.964 1528.53,-251.47 1520.84,-258.762 1527.07,-261.964"/>
</g>
<!-- n42 -->
<g id="node43" class="node"><title>n42</title>
<ellipse fill="none" stroke="black" cx="1609" cy="-234" rx="27" ry="18"/>
<text text-anchor="middle" x="1609" y="-230.3" font-family="Times New Roman,serif" font-size="14.00">)</text>
</g>
<!-- n38&#45;&gt;n42 -->
<g id="edge42" class="edge"><title>n38&#45;&gt;n42</title>
<path fill="none" stroke="black" d="M1521.82,-291.503C1538.89,-280.441 1563.18,-264.7 1581.78,-252.641"/>
<polygon fill="black" stroke="black" points="1583.92,-255.429 1590.4,-247.053 1580.11,-249.555 1583.92,-255.429"/>
</g>
<!-- n43 -->
<g id="node44" class="node"><title>n43</title>
<ellipse fill="none" stroke="black" cx="1681" cy="-234" rx="27" ry="18"/>
<text text-anchor="middle" x="1681" y="-230.3" font-family="Times New Roman,serif" font-size="14.00">;</text>
</g>
<!-- n38&#45;&gt;n43 -->
<g id="edge43" class="edge"><title>n38&#45;&gt;n43</title>
<path fill="none" stroke="black" d="M1529.16,-295.465C1558.4,-285.372 1605.32,-268.632 1645,-252 1646.82,-251.238 1648.68,-250.436 1650.54,-249.611"/>
<polygon fill="black" stroke="black" points="1652.17,-252.715 1659.82,-245.383 1649.27,-246.345 1652.17,-252.715"/>
</g>
</g>
</svg>
