<?xml version="1.0" encoding="UTF-8" standalone="no"?>
<!DOCTYPE svg PUBLIC "-//W3C//DTD SVG 1.1//EN"
 "http://www.w3.org/Graphics/SVG/1.1/DTD/svg11.dtd">
<!-- Generated by graphviz version 2.38.0 (20140413.2041)
 -->
<!-- Title: arbolAST Pages: 1 -->
<svg width="956pt" height="422pt"
 viewBox="0.00 0.00 956.00 421.74" xmlns="http://www.w3.org/2000/svg" xmlns:xlink="http://www.w3.org/1999/xlink">
<g id="graph0" class="graph" transform="scale(1 1) rotate(0) translate(4 417.74)">
<title>arbolAST</title>
<polygon fill="white" stroke="none" points="-4,4 -4,-417.74 952,-417.74 952,4 -4,4"/>
<!-- n0 -->
<g id="node1" class="node"><title>n0</title>
<ellipse fill="none" stroke="black" cx="514" cy="-395.74" rx="31.6951" ry="18"/>
<text text-anchor="middle" x="514" y="-392.04" font-family="Times New Roman,serif" font-size="14.00">RAIZ</text>
</g>
<!-- n1 -->
<g id="node2" class="node"><title>n1</title>
<ellipse fill="none" stroke="black" cx="514" cy="-323.74" rx="83.3857" ry="18"/>
<text text-anchor="middle" x="514" y="-320.04" font-family="Times New Roman,serif" font-size="14.00">INSTRUCCIONES</text>
</g>
<!-- n0&#45;&gt;n1 -->
<g id="edge1" class="edge"><title>n0&#45;&gt;n1</title>
<path fill="none" stroke="black" d="M514,-377.437C514,-369.723 514,-360.453 514,-351.853"/>
<polygon fill="black" stroke="black" points="517.5,-351.844 514,-341.844 510.5,-351.844 517.5,-351.844"/>
</g>
<!-- n2 -->
<g id="node3" class="node"><title>n2</title>
<ellipse fill="none" stroke="black" cx="297" cy="-251.74" rx="50.0912" ry="18"/>
<text text-anchor="middle" x="297" y="-248.04" font-family="Times New Roman,serif" font-size="14.00">METODO</text>
</g>
<!-- n1&#45;&gt;n2 -->
<g id="edge2" class="edge"><title>n1&#45;&gt;n2</title>
<path fill="none" stroke="black" d="M469.563,-308.406C432.57,-296.472 380.097,-279.546 342.745,-267.497"/>
<polygon fill="black" stroke="black" points="343.707,-264.129 333.116,-264.39 341.558,-270.791 343.707,-264.129"/>
</g>
<!-- n16 -->
<g id="node17" class="node"><title>n16</title>
<ellipse fill="none" stroke="black" cx="736" cy="-251.74" rx="34.394" ry="18"/>
<text text-anchor="middle" x="736" y="-248.04" font-family="Times New Roman,serif" font-size="14.00">EXEC</text>
</g>
<!-- n1&#45;&gt;n16 -->
<g id="edge16" class="edge"><title>n1&#45;&gt;n16</title>
<path fill="none" stroke="black" d="M558.925,-308.575C599.631,-295.739 658.978,-277.026 697.542,-264.867"/>
<polygon fill="black" stroke="black" points="698.869,-268.118 707.354,-261.773 696.764,-261.442 698.869,-268.118"/>
</g>
<!-- n3 -->
<g id="node4" class="node"><title>n3</title>
<ellipse fill="none" stroke="black" cx="27" cy="-179.74" rx="27" ry="18"/>
<text text-anchor="middle" x="27" y="-176.04" font-family="Times New Roman,serif" font-size="14.00">void</text>
</g>
<!-- n2&#45;&gt;n3 -->
<g id="edge3" class="edge"><title>n2&#45;&gt;n3</title>
<path fill="none" stroke="black" d="M252.206,-243.599C204.504,-235.304 127.189,-219.867 63,-197.74 61.0887,-197.081 59.1441,-196.351 57.1989,-195.574"/>
<polygon fill="black" stroke="black" points="58.185,-192.187 47.618,-191.419 55.3997,-198.609 58.185,-192.187"/>
</g>
<!-- n4 -->
<g id="node5" class="node"><title>n4</title>
<ellipse fill="none" stroke="black" cx="108" cy="-179.74" rx="35.9954" ry="18"/>
<text text-anchor="middle" x="108" y="-176.04" font-family="Times New Roman,serif" font-size="14.00">prueba</text>
</g>
<!-- n2&#45;&gt;n4 -->
<g id="edge4" class="edge"><title>n2&#45;&gt;n4</title>
<path fill="none" stroke="black" d="M263.219,-238.399C234.018,-227.709 190.69,-211.795 153,-197.74 150.447,-196.788 147.814,-195.803 145.163,-194.808"/>
<polygon fill="black" stroke="black" points="146.184,-191.452 135.592,-191.206 143.719,-198.004 146.184,-191.452"/>
</g>
<!-- n5 -->
<g id="node6" class="node"><title>n5</title>
<ellipse fill="none" stroke="black" cx="189" cy="-179.74" rx="27" ry="18"/>
<text text-anchor="middle" x="189" y="-176.04" font-family="Times New Roman,serif" font-size="14.00">(</text>
</g>
<!-- n2&#45;&gt;n5 -->
<g id="edge5" class="edge"><title>n2&#45;&gt;n5</title>
<path fill="none" stroke="black" d="M273.831,-235.723C257.047,-224.845 234.287,-210.093 216.567,-198.608"/>
<polygon fill="black" stroke="black" points="218.114,-195.44 207.819,-192.938 214.307,-201.314 218.114,-195.44"/>
</g>
<!-- n6 -->
<g id="node7" class="node"><title>n6</title>
<ellipse fill="none" stroke="black" cx="261" cy="-179.74" rx="27" ry="18"/>
<text text-anchor="middle" x="261" y="-176.04" font-family="Times New Roman,serif" font-size="14.00">)</text>
</g>
<!-- n2&#45;&gt;n6 -->
<g id="edge6" class="edge"><title>n2&#45;&gt;n6</title>
<path fill="none" stroke="black" d="M288.285,-233.795C284.023,-225.507 278.803,-215.358 274.075,-206.164"/>
<polygon fill="black" stroke="black" points="277.073,-204.339 269.386,-197.047 270.847,-207.541 277.073,-204.339"/>
</g>
<!-- n7 -->
<g id="node8" class="node"><title>n7</title>
<ellipse fill="none" stroke="black" cx="333" cy="-179.74" rx="27" ry="18"/>
<text text-anchor="middle" x="333" y="-176.04" font-family="Times New Roman,serif" font-size="14.00">{</text>
</g>
<!-- n2&#45;&gt;n7 -->
<g id="edge7" class="edge"><title>n2&#45;&gt;n7</title>
<path fill="none" stroke="black" d="M305.715,-233.795C309.977,-225.507 315.197,-215.358 319.925,-206.164"/>
<polygon fill="black" stroke="black" points="323.153,-207.541 324.614,-197.047 316.927,-204.339 323.153,-207.541"/>
</g>
<!-- n8 -->
<g id="node9" class="node"><title>n8</title>
<ellipse fill="none" stroke="black" cx="438" cy="-179.74" rx="59.5901" ry="18"/>
<text text-anchor="middle" x="438" y="-176.04" font-family="Times New Roman,serif" font-size="14.00">IMPRESION</text>
</g>
<!-- n2&#45;&gt;n8 -->
<g id="edge8" class="edge"><title>n2&#45;&gt;n8</title>
<path fill="none" stroke="black" d="M325.195,-236.743C346.479,-226.176 375.927,-211.556 399.398,-199.904"/>
<polygon fill="black" stroke="black" points="400.996,-203.019 408.396,-195.437 397.883,-196.749 400.996,-203.019"/>
</g>
<!-- n15 -->
<g id="node16" class="node"><title>n15</title>
<ellipse fill="none" stroke="black" cx="543" cy="-179.74" rx="27" ry="18"/>
<text text-anchor="middle" x="543" y="-176.04" font-family="Times New Roman,serif" font-size="14.00">}</text>
</g>
<!-- n2&#45;&gt;n15 -->
<g id="edge15" class="edge"><title>n2&#45;&gt;n15</title>
<path fill="none" stroke="black" d="M339.956,-242.452C382.918,-233.572 450.543,-217.978 507,-197.74 508.854,-197.075 510.742,-196.348 512.632,-195.58"/>
<polygon fill="black" stroke="black" points="514.203,-198.713 521.969,-191.506 511.403,-192.298 514.203,-198.713"/>
</g>
<!-- n9 -->
<g id="node10" class="node"><title>n9</title>
<ellipse fill="none" stroke="black" cx="276" cy="-107.74" rx="27.0966" ry="18"/>
<text text-anchor="middle" x="276" y="-104.04" font-family="Times New Roman,serif" font-size="14.00">print</text>
</g>
<!-- n8&#45;&gt;n9 -->
<g id="edge9" class="edge"><title>n8&#45;&gt;n9</title>
<path fill="none" stroke="black" d="M403.871,-164.849C378.425,-154.38 342.883,-139.519 312,-125.74 310.394,-125.024 308.752,-124.282 307.097,-123.527"/>
<polygon fill="black" stroke="black" points="308.177,-120.17 297.632,-119.14 305.233,-126.521 308.177,-120.17"/>
</g>
<!-- n10 -->
<g id="node11" class="node"><title>n10</title>
<ellipse fill="none" stroke="black" cx="348" cy="-107.74" rx="27" ry="18"/>
<text text-anchor="middle" x="348" y="-104.04" font-family="Times New Roman,serif" font-size="14.00">(</text>
</g>
<!-- n8&#45;&gt;n10 -->
<g id="edge10" class="edge"><title>n8&#45;&gt;n10</title>
<path fill="none" stroke="black" d="M417.126,-162.505C403.967,-152.27 386.901,-138.996 373.018,-128.199"/>
<polygon fill="black" stroke="black" points="374.891,-125.222 364.849,-121.845 370.594,-130.747 374.891,-125.222"/>
</g>
<!-- n11 -->
<g id="node12" class="node"><title>n11</title>
<ellipse fill="none" stroke="black" cx="438" cy="-107.74" rx="45.4919" ry="18"/>
<text text-anchor="middle" x="438" y="-104.04" font-family="Times New Roman,serif" font-size="14.00">NATIVO</text>
</g>
<!-- n8&#45;&gt;n11 -->
<g id="edge11" class="edge"><title>n8&#45;&gt;n11</title>
<path fill="none" stroke="black" d="M438,-161.437C438,-153.723 438,-144.453 438,-135.853"/>
<polygon fill="black" stroke="black" points="441.5,-135.844 438,-125.844 434.5,-135.844 441.5,-135.844"/>
</g>
<!-- n13 -->
<g id="node14" class="node"><title>n13</title>
<ellipse fill="none" stroke="black" cx="528" cy="-107.74" rx="27" ry="18"/>
<text text-anchor="middle" x="528" y="-104.04" font-family="Times New Roman,serif" font-size="14.00">)</text>
</g>
<!-- n8&#45;&gt;n13 -->
<g id="edge13" class="edge"><title>n8&#45;&gt;n13</title>
<path fill="none" stroke="black" d="M458.874,-162.505C472.033,-152.27 489.099,-138.996 502.982,-128.199"/>
<polygon fill="black" stroke="black" points="505.406,-130.747 511.151,-121.845 501.109,-125.222 505.406,-130.747"/>
</g>
<!-- n14 -->
<g id="node15" class="node"><title>n14</title>
<ellipse fill="none" stroke="black" cx="600" cy="-107.74" rx="27" ry="18"/>
<text text-anchor="middle" x="600" y="-104.04" font-family="Times New Roman,serif" font-size="14.00">;</text>
</g>
<!-- n8&#45;&gt;n14 -->
<g id="edge14" class="edge"><title>n8&#45;&gt;n14</title>
<path fill="none" stroke="black" d="M472.129,-164.849C497.575,-154.38 533.117,-139.519 564,-125.74 565.799,-124.937 567.643,-124.103 569.501,-123.253"/>
<polygon fill="black" stroke="black" points="571.153,-126.345 578.75,-118.96 568.205,-119.996 571.153,-126.345"/>
</g>
<!-- n12 -->
<g id="node13" class="node"><title>n12</title>
<ellipse fill="none" stroke="black" cx="438" cy="-26.8701" rx="48.1667" ry="26.7407"/>
<text text-anchor="middle" x="438" y="-30.6701" font-family="Times New Roman,serif" font-size="14.00">as</text>
<text text-anchor="middle" x="438" y="-15.6701" font-family="Times New Roman,serif" font-size="14.00"> 	 &#160;&#160;&#39;d</text>
</g>
<!-- n11&#45;&gt;n12 -->
<g id="edge12" class="edge"><title>n11&#45;&gt;n12</title>
<path fill="none" stroke="black" d="M438,-89.6265C438,-82.137 438,-73.0458 438,-64.168"/>
<polygon fill="black" stroke="black" points="441.5,-63.9529 438,-53.953 434.5,-63.953 441.5,-63.9529"/>
</g>
<!-- n17 -->
<g id="node18" class="node"><title>n17</title>
<ellipse fill="none" stroke="black" cx="615" cy="-179.74" rx="27.0966" ry="18"/>
<text text-anchor="middle" x="615" y="-176.04" font-family="Times New Roman,serif" font-size="14.00">exec</text>
</g>
<!-- n16&#45;&gt;n17 -->
<g id="edge17" class="edge"><title>n16&#45;&gt;n17</title>
<path fill="none" stroke="black" d="M713.807,-237.901C694.106,-226.504 665.201,-209.782 643.738,-197.366"/>
<polygon fill="black" stroke="black" points="645.453,-194.314 635.044,-192.336 641.948,-200.373 645.453,-194.314"/>
</g>
<!-- n18 -->
<g id="node19" class="node"><title>n18</title>
<ellipse fill="none" stroke="black" cx="696" cy="-179.74" rx="35.9954" ry="18"/>
<text text-anchor="middle" x="696" y="-176.04" font-family="Times New Roman,serif" font-size="14.00">prueba</text>
</g>
<!-- n16&#45;&gt;n18 -->
<g id="edge18" class="edge"><title>n16&#45;&gt;n18</title>
<path fill="none" stroke="black" d="M726.521,-234.151C721.738,-225.782 715.834,-215.45 710.497,-206.11"/>
<polygon fill="black" stroke="black" points="713.412,-204.156 705.411,-197.21 707.334,-207.629 713.412,-204.156"/>
</g>
<!-- n19 -->
<g id="node20" class="node"><title>n19</title>
<ellipse fill="none" stroke="black" cx="777" cy="-179.74" rx="27" ry="18"/>
<text text-anchor="middle" x="777" y="-176.04" font-family="Times New Roman,serif" font-size="14.00">(</text>
</g>
<!-- n16&#45;&gt;n19 -->
<g id="edge19" class="edge"><title>n16&#45;&gt;n19</title>
<path fill="none" stroke="black" d="M745.716,-234.151C750.741,-225.572 756.974,-214.931 762.551,-205.41"/>
<polygon fill="black" stroke="black" points="765.602,-207.126 767.636,-196.728 759.561,-203.588 765.602,-207.126"/>
</g>
<!-- n20 -->
<g id="node21" class="node"><title>n20</title>
<ellipse fill="none" stroke="black" cx="849" cy="-179.74" rx="27" ry="18"/>
<text text-anchor="middle" x="849" y="-176.04" font-family="Times New Roman,serif" font-size="14.00">)</text>
</g>
<!-- n16&#45;&gt;n20 -->
<g id="edge20" class="edge"><title>n16&#45;&gt;n20</title>
<path fill="none" stroke="black" d="M757.254,-237.574C775.328,-226.377 801.414,-210.218 821.154,-197.99"/>
<polygon fill="black" stroke="black" points="823.067,-200.922 829.725,-192.68 819.381,-194.971 823.067,-200.922"/>
</g>
<!-- n21 -->
<g id="node22" class="node"><title>n21</title>
<ellipse fill="none" stroke="black" cx="921" cy="-179.74" rx="27" ry="18"/>
<text text-anchor="middle" x="921" y="-176.04" font-family="Times New Roman,serif" font-size="14.00">;</text>
</g>
<!-- n16&#45;&gt;n21 -->
<g id="edge21" class="edge"><title>n16&#45;&gt;n21</title>
<path fill="none" stroke="black" d="M764.605,-241.507C794.839,-231.53 843.759,-214.763 885,-197.74 886.821,-196.989 888.682,-196.194 890.553,-195.374"/>
<polygon fill="black" stroke="black" points="892.176,-198.481 899.836,-191.162 889.284,-192.107 892.176,-198.481"/>
</g>
</g>
</svg>
