<?xml version="1.0" encoding="UTF-8" standalone="no"?>
<!DOCTYPE svg PUBLIC "-//W3C//DTD SVG 1.1//EN"
 "http://www.w3.org/Graphics/SVG/1.1/DTD/svg11.dtd">
<!-- Generated by graphviz version 2.38.0 (20140413.2041)
 -->
<!-- Title: arbolAST Pages: 1 -->
<svg width="1914pt" height="548pt"
 viewBox="0.00 0.00 1914.00 548.00" xmlns="http://www.w3.org/2000/svg" xmlns:xlink="http://www.w3.org/1999/xlink">
<g id="graph0" class="graph" transform="scale(1 1) rotate(0) translate(4 544)">
<title>arbolAST</title>
<polygon fill="white" stroke="none" points="-4,4 -4,-544 1910,-544 1910,4 -4,4"/>
<!-- n0 -->
<g id="node1" class="node"><title>n0</title>
<ellipse fill="none" stroke="black" cx="1066" cy="-522" rx="31.6951" ry="18"/>
<text text-anchor="middle" x="1066" y="-518.3" font-family="Times New Roman,serif" font-size="14.00">RAIZ</text>
</g>
<!-- n1 -->
<g id="node2" class="node"><title>n1</title>
<ellipse fill="none" stroke="black" cx="1066" cy="-450" rx="83.3857" ry="18"/>
<text text-anchor="middle" x="1066" y="-446.3" font-family="Times New Roman,serif" font-size="14.00">INSTRUCCIONES</text>
</g>
<!-- n0&#45;&gt;n1 -->
<g id="edge1" class="edge"><title>n0&#45;&gt;n1</title>
<path fill="none" stroke="black" d="M1066,-503.697C1066,-495.983 1066,-486.712 1066,-478.112"/>
<polygon fill="black" stroke="black" points="1069.5,-478.104 1066,-468.104 1062.5,-478.104 1069.5,-478.104"/>
</g>
<!-- n2 -->
<g id="node3" class="node"><title>n2</title>
<ellipse fill="none" stroke="black" cx="413" cy="-378" rx="51.1914" ry="18"/>
<text text-anchor="middle" x="413" y="-374.3" font-family="Times New Roman,serif" font-size="14.00">FUNCION</text>
</g>
<!-- n1&#45;&gt;n2 -->
<g id="edge2" class="edge"><title>n1&#45;&gt;n2</title>
<path fill="none" stroke="black" d="M993.308,-441.208C862.807,-427.218 591.284,-398.112 471.703,-385.293"/>
<polygon fill="black" stroke="black" points="471.957,-381.8 461.641,-384.214 471.211,-388.76 471.957,-381.8"/>
</g>
<!-- n24 -->
<g id="node25" class="node"><title>n24</title>
<ellipse fill="none" stroke="black" cx="1066" cy="-378" rx="50.0912" ry="18"/>
<text text-anchor="middle" x="1066" y="-374.3" font-family="Times New Roman,serif" font-size="14.00">METODO</text>
</g>
<!-- n1&#45;&gt;n24 -->
<g id="edge24" class="edge"><title>n1&#45;&gt;n24</title>
<path fill="none" stroke="black" d="M1066,-431.697C1066,-423.983 1066,-414.712 1066,-406.112"/>
<polygon fill="black" stroke="black" points="1069.5,-406.104 1066,-396.104 1062.5,-406.104 1069.5,-406.104"/>
</g>
<!-- n51 -->
<g id="node52" class="node"><title>n51</title>
<ellipse fill="none" stroke="black" cx="1627" cy="-378" rx="34.394" ry="18"/>
<text text-anchor="middle" x="1627" y="-374.3" font-family="Times New Roman,serif" font-size="14.00">EXEC</text>
</g>
<!-- n1&#45;&gt;n51 -->
<g id="edge51" class="edge"><title>n1&#45;&gt;n51</title>
<path fill="none" stroke="black" d="M1136.2,-440.241C1253.92,-425.552 1487.69,-396.383 1584,-384.366"/>
<polygon fill="black" stroke="black" points="1584.47,-387.833 1593.96,-383.122 1583.61,-380.887 1584.47,-387.833"/>
</g>
<!-- n3 -->
<g id="node4" class="node"><title>n3</title>
<ellipse fill="none" stroke="black" cx="27" cy="-306" rx="27" ry="18"/>
<text text-anchor="middle" x="27" y="-302.3" font-family="Times New Roman,serif" font-size="14.00">int</text>
</g>
<!-- n2&#45;&gt;n3 -->
<g id="edge3" class="edge"><title>n2&#45;&gt;n3</title>
<path fill="none" stroke="black" d="M362.723,-373.987C293.817,-368.828 166.762,-355.613 63,-324 61.0661,-323.411 59.1041,-322.734 57.1457,-321.998"/>
<polygon fill="black" stroke="black" points="58.1051,-318.604 47.5306,-317.948 55.3878,-325.056 58.1051,-318.604"/>
</g>
<!-- n4 -->
<g id="node5" class="node"><title>n4</title>
<ellipse fill="none" stroke="black" cx="102" cy="-306" rx="29.795" ry="18"/>
<text text-anchor="middle" x="102" y="-302.3" font-family="Times New Roman,serif" font-size="14.00">suma</text>
</g>
<!-- n2&#45;&gt;n4 -->
<g id="edge4" class="edge"><title>n2&#45;&gt;n4</title>
<path fill="none" stroke="black" d="M365.542,-370.964C310.644,-363.248 217.944,-347.949 141,-324 138.739,-323.296 136.432,-322.502 134.127,-321.651"/>
<polygon fill="black" stroke="black" points="135.365,-318.377 124.78,-317.92 132.77,-324.878 135.365,-318.377"/>
</g>
<!-- n5 -->
<g id="node6" class="node"><title>n5</title>
<ellipse fill="none" stroke="black" cx="177" cy="-306" rx="27" ry="18"/>
<text text-anchor="middle" x="177" y="-302.3" font-family="Times New Roman,serif" font-size="14.00">(</text>
</g>
<!-- n2&#45;&gt;n5 -->
<g id="edge5" class="edge"><title>n2&#45;&gt;n5</title>
<path fill="none" stroke="black" d="M370.17,-368.03C329.195,-358.895 265.974,-343.344 213,-324 211.15,-323.324 209.265,-322.588 207.377,-321.814"/>
<polygon fill="black" stroke="black" points="208.611,-318.533 198.047,-317.722 205.799,-324.944 208.611,-318.533"/>
</g>
<!-- n6 -->
<g id="node7" class="node"><title>n6</title>
<ellipse fill="none" stroke="black" cx="295" cy="-306" rx="72.5877" ry="18"/>
<text text-anchor="middle" x="295" y="-302.3" font-family="Times New Roman,serif" font-size="14.00">PARAMETROS</text>
</g>
<!-- n2&#45;&gt;n6 -->
<g id="edge6" class="edge"><title>n2&#45;&gt;n6</title>
<path fill="none" stroke="black" d="M387.975,-362.155C371.231,-352.222 348.95,-339.004 330.396,-327.998"/>
<polygon fill="black" stroke="black" points="332.015,-324.889 321.629,-322.797 328.443,-330.909 332.015,-324.889"/>
</g>
<!-- n12 -->
<g id="node13" class="node"><title>n12</title>
<ellipse fill="none" stroke="black" cx="413" cy="-306" rx="27" ry="18"/>
<text text-anchor="middle" x="413" y="-302.3" font-family="Times New Roman,serif" font-size="14.00">)</text>
</g>
<!-- n2&#45;&gt;n12 -->
<g id="edge12" class="edge"><title>n2&#45;&gt;n12</title>
<path fill="none" stroke="black" d="M413,-359.697C413,-351.983 413,-342.712 413,-334.112"/>
<polygon fill="black" stroke="black" points="416.5,-334.104 413,-324.104 409.5,-334.104 416.5,-334.104"/>
</g>
<!-- n13 -->
<g id="node14" class="node"><title>n13</title>
<ellipse fill="none" stroke="black" cx="485" cy="-306" rx="27" ry="18"/>
<text text-anchor="middle" x="485" y="-302.3" font-family="Times New Roman,serif" font-size="14.00">{</text>
</g>
<!-- n2&#45;&gt;n13 -->
<g id="edge13" class="edge"><title>n2&#45;&gt;n13</title>
<path fill="none" stroke="black" d="M429.699,-360.765C439.594,-351.145 452.251,-338.84 462.958,-328.43"/>
<polygon fill="black" stroke="black" points="465.613,-330.73 470.343,-321.25 460.733,-325.711 465.613,-330.73"/>
</g>
<!-- n14 -->
<g id="node15" class="node"><title>n14</title>
<ellipse fill="none" stroke="black" cx="577" cy="-306" rx="47.3916" ry="18"/>
<text text-anchor="middle" x="577" y="-302.3" font-family="Times New Roman,serif" font-size="14.00">RETURN</text>
</g>
<!-- n2&#45;&gt;n14 -->
<g id="edge14" class="edge"><title>n2&#45;&gt;n14</title>
<path fill="none" stroke="black" d="M444.233,-363.669C470.702,-352.371 508.805,-336.108 537.409,-323.899"/>
<polygon fill="black" stroke="black" points="538.891,-327.071 546.715,-319.927 536.143,-320.633 538.891,-327.071"/>
</g>
<!-- n23 -->
<g id="node24" class="node"><title>n23</title>
<ellipse fill="none" stroke="black" cx="669" cy="-306" rx="27" ry="18"/>
<text text-anchor="middle" x="669" y="-302.3" font-family="Times New Roman,serif" font-size="14.00">}</text>
</g>
<!-- n2&#45;&gt;n23 -->
<g id="edge23" class="edge"><title>n2&#45;&gt;n23</title>
<path fill="none" stroke="black" d="M457.598,-369.044C502.598,-360.372 573.714,-344.891 633,-324 634.907,-323.328 636.848,-322.588 638.79,-321.803"/>
<polygon fill="black" stroke="black" points="640.597,-324.834 648.364,-317.628 637.799,-318.418 640.597,-324.834"/>
</g>
<!-- n7 -->
<g id="node8" class="node"><title>n7</title>
<ellipse fill="none" stroke="black" cx="123" cy="-234" rx="27" ry="18"/>
<text text-anchor="middle" x="123" y="-230.3" font-family="Times New Roman,serif" font-size="14.00">int</text>
</g>
<!-- n6&#45;&gt;n7 -->
<g id="edge7" class="edge"><title>n6&#45;&gt;n7</title>
<path fill="none" stroke="black" d="M256.313,-290.743C228.938,-280.456 191.471,-265.974 159,-252 157.191,-251.221 155.338,-250.405 153.474,-249.57"/>
<polygon fill="black" stroke="black" points="154.757,-246.308 144.209,-245.315 151.836,-252.669 154.757,-246.308"/>
</g>
<!-- n8 -->
<g id="node9" class="node"><title>n8</title>
<ellipse fill="none" stroke="black" cx="195" cy="-234" rx="27" ry="18"/>
<text text-anchor="middle" x="195" y="-230.3" font-family="Times New Roman,serif" font-size="14.00">a</text>
</g>
<!-- n6&#45;&gt;n8 -->
<g id="edge8" class="edge"><title>n6&#45;&gt;n8</title>
<path fill="none" stroke="black" d="M271.807,-288.765C256.715,-278.201 236.998,-264.399 221.32,-253.424"/>
<polygon fill="black" stroke="black" points="223.28,-250.524 213.08,-247.656 219.265,-256.258 223.28,-250.524"/>
</g>
<!-- n9 -->
<g id="node10" class="node"><title>n9</title>
<ellipse fill="none" stroke="black" cx="267" cy="-234" rx="27" ry="18"/>
<text text-anchor="middle" x="267" y="-230.3" font-family="Times New Roman,serif" font-size="14.00">,</text>
</g>
<!-- n6&#45;&gt;n9 -->
<g id="edge9" class="edge"><title>n6&#45;&gt;n9</title>
<path fill="none" stroke="black" d="M288.222,-288.055C284.989,-279.973 281.049,-270.121 277.445,-261.112"/>
<polygon fill="black" stroke="black" points="280.679,-259.774 273.716,-251.789 274.18,-262.374 280.679,-259.774"/>
</g>
<!-- n10 -->
<g id="node11" class="node"><title>n10</title>
<ellipse fill="none" stroke="black" cx="339" cy="-234" rx="27" ry="18"/>
<text text-anchor="middle" x="339" y="-230.3" font-family="Times New Roman,serif" font-size="14.00">int</text>
</g>
<!-- n6&#45;&gt;n10 -->
<g id="edge10" class="edge"><title>n6&#45;&gt;n10</title>
<path fill="none" stroke="black" d="M305.651,-288.055C311.048,-279.469 317.699,-268.888 323.638,-259.439"/>
<polygon fill="black" stroke="black" points="326.692,-261.158 329.05,-250.829 320.765,-257.433 326.692,-261.158"/>
</g>
<!-- n11 -->
<g id="node12" class="node"><title>n11</title>
<ellipse fill="none" stroke="black" cx="411" cy="-234" rx="27" ry="18"/>
<text text-anchor="middle" x="411" y="-230.3" font-family="Times New Roman,serif" font-size="14.00">b</text>
</g>
<!-- n6&#45;&gt;n11 -->
<g id="edge11" class="edge"><title>n6&#45;&gt;n11</title>
<path fill="none" stroke="black" d="M321.322,-289.116C339.705,-278.023 364.211,-263.235 382.96,-251.921"/>
<polygon fill="black" stroke="black" points="384.896,-254.84 391.65,-246.677 381.279,-248.847 384.896,-254.84"/>
</g>
<!-- n15 -->
<g id="node16" class="node"><title>n15</title>
<ellipse fill="none" stroke="black" cx="488" cy="-234" rx="31.6951" ry="18"/>
<text text-anchor="middle" x="488" y="-230.3" font-family="Times New Roman,serif" font-size="14.00">return</text>
</g>
<!-- n14&#45;&gt;n15 -->
<g id="edge15" class="edge"><title>n14&#45;&gt;n15</title>
<path fill="none" stroke="black" d="M557.248,-289.465C544.525,-279.458 527.845,-266.339 514.044,-255.484"/>
<polygon fill="black" stroke="black" points="515.907,-252.497 505.883,-249.066 511.58,-257.999 515.907,-252.497"/>
</g>
<!-- n16 -->
<g id="node17" class="node"><title>n16</title>
<ellipse fill="none" stroke="black" cx="605" cy="-234" rx="66.8882" ry="18"/>
<text text-anchor="middle" x="605" y="-230.3" font-family="Times New Roman,serif" font-size="14.00">ARITMETICA</text>
</g>
<!-- n14&#45;&gt;n16 -->
<g id="edge16" class="edge"><title>n14&#45;&gt;n16</title>
<path fill="none" stroke="black" d="M583.778,-288.055C586.93,-280.176 590.753,-270.617 594.282,-261.794"/>
<polygon fill="black" stroke="black" points="597.626,-262.86 598.09,-252.275 591.126,-260.26 597.626,-262.86"/>
</g>
<!-- n22 -->
<g id="node23" class="node"><title>n22</title>
<ellipse fill="none" stroke="black" cx="717" cy="-234" rx="27" ry="18"/>
<text text-anchor="middle" x="717" y="-230.3" font-family="Times New Roman,serif" font-size="14.00">;</text>
</g>
<!-- n14&#45;&gt;n22 -->
<g id="edge22" class="edge"><title>n14&#45;&gt;n22</title>
<path fill="none" stroke="black" d="M604.659,-291.17C628.297,-279.352 662.252,-262.374 686.636,-250.182"/>
<polygon fill="black" stroke="black" points="688.415,-253.206 695.794,-245.603 685.285,-246.945 688.415,-253.206"/>
</g>
<!-- n17 -->
<g id="node18" class="node"><title>n17</title>
<ellipse fill="none" stroke="black" cx="479" cy="-162" rx="81.4863" ry="18"/>
<text text-anchor="middle" x="479" y="-158.3" font-family="Times New Roman,serif" font-size="14.00">IDENTIFICADOR</text>
</g>
<!-- n16&#45;&gt;n17 -->
<g id="edge17" class="edge"><title>n16&#45;&gt;n17</title>
<path fill="none" stroke="black" d="M577.037,-217.465C559.261,-207.59 536.03,-194.683 516.643,-183.913"/>
<polygon fill="black" stroke="black" points="518.2,-180.774 507.759,-178.977 514.801,-186.893 518.2,-180.774"/>
</g>
<!-- n19 -->
<g id="node20" class="node"><title>n19</title>
<ellipse fill="none" stroke="black" cx="605" cy="-162" rx="27" ry="18"/>
<text text-anchor="middle" x="605" y="-158.3" font-family="Times New Roman,serif" font-size="14.00">+</text>
</g>
<!-- n16&#45;&gt;n19 -->
<g id="edge19" class="edge"><title>n16&#45;&gt;n19</title>
<path fill="none" stroke="black" d="M605,-215.697C605,-207.983 605,-198.712 605,-190.112"/>
<polygon fill="black" stroke="black" points="608.5,-190.104 605,-180.104 601.5,-190.104 608.5,-190.104"/>
</g>
<!-- n20 -->
<g id="node21" class="node"><title>n20</title>
<ellipse fill="none" stroke="black" cx="731" cy="-162" rx="81.4863" ry="18"/>
<text text-anchor="middle" x="731" y="-158.3" font-family="Times New Roman,serif" font-size="14.00">IDENTIFICADOR</text>
</g>
<!-- n16&#45;&gt;n20 -->
<g id="edge20" class="edge"><title>n16&#45;&gt;n20</title>
<path fill="none" stroke="black" d="M632.963,-217.465C650.739,-207.59 673.97,-194.683 693.357,-183.913"/>
<polygon fill="black" stroke="black" points="695.199,-186.893 702.241,-178.977 691.8,-180.774 695.199,-186.893"/>
</g>
<!-- n18 -->
<g id="node19" class="node"><title>n18</title>
<ellipse fill="none" stroke="black" cx="479" cy="-90" rx="27" ry="18"/>
<text text-anchor="middle" x="479" y="-86.3" font-family="Times New Roman,serif" font-size="14.00">a</text>
</g>
<!-- n17&#45;&gt;n18 -->
<g id="edge18" class="edge"><title>n17&#45;&gt;n18</title>
<path fill="none" stroke="black" d="M479,-143.697C479,-135.983 479,-126.712 479,-118.112"/>
<polygon fill="black" stroke="black" points="482.5,-118.104 479,-108.104 475.5,-118.104 482.5,-118.104"/>
</g>
<!-- n21 -->
<g id="node22" class="node"><title>n21</title>
<ellipse fill="none" stroke="black" cx="731" cy="-90" rx="27" ry="18"/>
<text text-anchor="middle" x="731" y="-86.3" font-family="Times New Roman,serif" font-size="14.00">b</text>
</g>
<!-- n20&#45;&gt;n21 -->
<g id="edge21" class="edge"><title>n20&#45;&gt;n21</title>
<path fill="none" stroke="black" d="M731,-143.697C731,-135.983 731,-126.712 731,-118.112"/>
<polygon fill="black" stroke="black" points="734.5,-118.104 731,-108.104 727.5,-118.104 734.5,-118.104"/>
</g>
<!-- n25 -->
<g id="node26" class="node"><title>n25</title>
<ellipse fill="none" stroke="black" cx="741" cy="-306" rx="27" ry="18"/>
<text text-anchor="middle" x="741" y="-302.3" font-family="Times New Roman,serif" font-size="14.00">void</text>
</g>
<!-- n24&#45;&gt;n25 -->
<g id="edge25" class="edge"><title>n24&#45;&gt;n25</title>
<path fill="none" stroke="black" d="M1018.53,-372.127C960.497,-365.303 859.793,-350.638 777,-324 775.075,-323.381 773.121,-322.681 771.168,-321.928"/>
<polygon fill="black" stroke="black" points="772.138,-318.536 761.567,-317.832 769.392,-324.975 772.138,-318.536"/>
</g>
<!-- n26 -->
<g id="node27" class="node"><title>n26</title>
<ellipse fill="none" stroke="black" cx="815" cy="-306" rx="28.6953" ry="18"/>
<text text-anchor="middle" x="815" y="-302.3" font-family="Times New Roman,serif" font-size="14.00">texto</text>
</g>
<!-- n24&#45;&gt;n26 -->
<g id="edge26" class="edge"><title>n24&#45;&gt;n26</title>
<path fill="none" stroke="black" d="M1022.92,-368.621C979.43,-359.619 910.636,-343.888 853,-324 850.891,-323.272 848.737,-322.473 846.581,-321.629"/>
<polygon fill="black" stroke="black" points="847.817,-318.352 837.24,-317.737 845.125,-324.814 847.817,-318.352"/>
</g>
<!-- n27 -->
<g id="node28" class="node"><title>n27</title>
<ellipse fill="none" stroke="black" cx="889" cy="-306" rx="27" ry="18"/>
<text text-anchor="middle" x="889" y="-302.3" font-family="Times New Roman,serif" font-size="14.00">(</text>
</g>
<!-- n24&#45;&gt;n27 -->
<g id="edge27" class="edge"><title>n24&#45;&gt;n27</title>
<path fill="none" stroke="black" d="M1031.5,-364.922C1002.76,-354.65 960.884,-339.187 925,-324 923.186,-323.232 921.33,-322.425 919.463,-321.596"/>
<polygon fill="black" stroke="black" points="920.74,-318.332 910.19,-317.358 917.831,-324.698 920.74,-318.332"/>
</g>
<!-- n28 -->
<g id="node29" class="node"><title>n28</title>
<ellipse fill="none" stroke="black" cx="1007" cy="-306" rx="72.5877" ry="18"/>
<text text-anchor="middle" x="1007" y="-302.3" font-family="Times New Roman,serif" font-size="14.00">PARAMETROS</text>
</g>
<!-- n24&#45;&gt;n28 -->
<g id="edge28" class="edge"><title>n24&#45;&gt;n28</title>
<path fill="none" stroke="black" d="M1052.02,-360.411C1044.78,-351.82 1035.79,-341.159 1027.76,-331.627"/>
<polygon fill="black" stroke="black" points="1030.41,-329.347 1021.29,-323.956 1025.06,-333.858 1030.41,-329.347"/>
</g>
<!-- n31 -->
<g id="node32" class="node"><title>n31</title>
<ellipse fill="none" stroke="black" cx="1125" cy="-306" rx="27" ry="18"/>
<text text-anchor="middle" x="1125" y="-302.3" font-family="Times New Roman,serif" font-size="14.00">)</text>
</g>
<!-- n24&#45;&gt;n31 -->
<g id="edge31" class="edge"><title>n24&#45;&gt;n31</title>
<path fill="none" stroke="black" d="M1079.98,-360.411C1087.65,-351.314 1097.27,-339.898 1105.65,-329.958"/>
<polygon fill="black" stroke="black" points="1108.56,-331.94 1112.32,-322.038 1103.2,-327.429 1108.56,-331.94"/>
</g>
<!-- n32 -->
<g id="node33" class="node"><title>n32</title>
<ellipse fill="none" stroke="black" cx="1197" cy="-306" rx="27" ry="18"/>
<text text-anchor="middle" x="1197" y="-302.3" font-family="Times New Roman,serif" font-size="14.00">{</text>
</g>
<!-- n24&#45;&gt;n32 -->
<g id="edge32" class="edge"><title>n24&#45;&gt;n32</title>
<path fill="none" stroke="black" d="M1092.83,-362.666C1114.57,-351.046 1145.18,-334.692 1167.59,-322.716"/>
<polygon fill="black" stroke="black" points="1169.47,-325.679 1176.64,-317.879 1166.17,-319.505 1169.47,-325.679"/>
</g>
<!-- n33 -->
<g id="node34" class="node"><title>n33</title>
<ellipse fill="none" stroke="black" cx="1302" cy="-306" rx="59.5901" ry="18"/>
<text text-anchor="middle" x="1302" y="-302.3" font-family="Times New Roman,serif" font-size="14.00">IMPRESION</text>
</g>
<!-- n24&#45;&gt;n33 -->
<g id="edge33" class="edge"><title>n24&#45;&gt;n33</title>
<path fill="none" stroke="black" d="M1103.39,-365.908C1143.27,-354.081 1206.67,-335.276 1251.08,-322.103"/>
<polygon fill="black" stroke="black" points="1252.22,-325.415 1260.81,-319.216 1250.23,-318.704 1252.22,-325.415"/>
</g>
<!-- n50 -->
<g id="node51" class="node"><title>n50</title>
<ellipse fill="none" stroke="black" cx="1407" cy="-306" rx="27" ry="18"/>
<text text-anchor="middle" x="1407" y="-302.3" font-family="Times New Roman,serif" font-size="14.00">}</text>
</g>
<!-- n24&#45;&gt;n50 -->
<g id="edge50" class="edge"><title>n24&#45;&gt;n50</title>
<path fill="none" stroke="black" d="M1113.97,-372.694C1174.86,-366.319 1282.61,-351.983 1371,-324 1372.93,-323.39 1374.88,-322.697 1376.84,-321.949"/>
<polygon fill="black" stroke="black" points="1378.61,-324.999 1386.44,-317.867 1375.87,-318.557 1378.61,-324.999"/>
</g>
<!-- n29 -->
<g id="node30" class="node"><title>n29</title>
<ellipse fill="none" stroke="black" cx="950" cy="-234" rx="30.5947" ry="18"/>
<text text-anchor="middle" x="950" y="-230.3" font-family="Times New Roman,serif" font-size="14.00">string</text>
</g>
<!-- n28&#45;&gt;n29 -->
<g id="edge29" class="edge"><title>n28&#45;&gt;n29</title>
<path fill="none" stroke="black" d="M993.202,-288.055C986.067,-279.292 977.238,-268.451 969.426,-258.856"/>
<polygon fill="black" stroke="black" points="971.918,-256.374 962.89,-250.829 966.49,-260.794 971.918,-256.374"/>
</g>
<!-- n30 -->
<g id="node31" class="node"><title>n30</title>
<ellipse fill="none" stroke="black" cx="1026" cy="-234" rx="27" ry="18"/>
<text text-anchor="middle" x="1026" y="-230.3" font-family="Times New Roman,serif" font-size="14.00">tex</text>
</g>
<!-- n28&#45;&gt;n30 -->
<g id="edge30" class="edge"><title>n28&#45;&gt;n30</title>
<path fill="none" stroke="black" d="M1011.7,-287.697C1013.81,-279.898 1016.36,-270.509 1018.72,-261.829"/>
<polygon fill="black" stroke="black" points="1022.12,-262.672 1021.36,-252.104 1015.36,-260.838 1022.12,-262.672"/>
</g>
<!-- n34 -->
<g id="node35" class="node"><title>n34</title>
<ellipse fill="none" stroke="black" cx="1118" cy="-234" rx="27.0966" ry="18"/>
<text text-anchor="middle" x="1118" y="-230.3" font-family="Times New Roman,serif" font-size="14.00">print</text>
</g>
<!-- n33&#45;&gt;n34 -->
<g id="edge34" class="edge"><title>n33&#45;&gt;n34</title>
<path fill="none" stroke="black" d="M1262.97,-292.181C1232.89,-282.027 1190.44,-267.086 1154,-252 1152.18,-251.246 1150.32,-250.45 1148.45,-249.63"/>
<polygon fill="black" stroke="black" points="1149.72,-246.363 1139.17,-245.414 1146.82,-252.736 1149.72,-246.363"/>
</g>
<!-- n35 -->
<g id="node36" class="node"><title>n35</title>
<ellipse fill="none" stroke="black" cx="1190" cy="-234" rx="27" ry="18"/>
<text text-anchor="middle" x="1190" y="-230.3" font-family="Times New Roman,serif" font-size="14.00">(</text>
</g>
<!-- n33&#45;&gt;n35 -->
<g id="edge35" class="edge"><title>n33&#45;&gt;n35</title>
<path fill="none" stroke="black" d="M1277.14,-289.465C1259.69,-278.557 1236.32,-263.952 1218.18,-252.612"/>
<polygon fill="black" stroke="black" points="1219.56,-249.348 1209.23,-247.016 1215.85,-255.284 1219.56,-249.348"/>
</g>
<!-- n36 -->
<g id="node37" class="node"><title>n36</title>
<ellipse fill="none" stroke="black" cx="1302" cy="-234" rx="66.8882" ry="18"/>
<text text-anchor="middle" x="1302" y="-230.3" font-family="Times New Roman,serif" font-size="14.00">ARITMETICA</text>
</g>
<!-- n33&#45;&gt;n36 -->
<g id="edge36" class="edge"><title>n33&#45;&gt;n36</title>
<path fill="none" stroke="black" d="M1302,-287.697C1302,-279.983 1302,-270.712 1302,-262.112"/>
<polygon fill="black" stroke="black" points="1305.5,-262.104 1302,-252.104 1298.5,-262.104 1305.5,-262.104"/>
</g>
<!-- n48 -->
<g id="node49" class="node"><title>n48</title>
<ellipse fill="none" stroke="black" cx="1414" cy="-234" rx="27" ry="18"/>
<text text-anchor="middle" x="1414" y="-230.3" font-family="Times New Roman,serif" font-size="14.00">)</text>
</g>
<!-- n33&#45;&gt;n48 -->
<g id="edge48" class="edge"><title>n33&#45;&gt;n48</title>
<path fill="none" stroke="black" d="M1326.86,-289.465C1344.31,-278.557 1367.68,-263.952 1385.82,-252.612"/>
<polygon fill="black" stroke="black" points="1388.15,-255.284 1394.77,-247.016 1384.44,-249.348 1388.15,-255.284"/>
</g>
<!-- n49 -->
<g id="node50" class="node"><title>n49</title>
<ellipse fill="none" stroke="black" cx="1486" cy="-234" rx="27" ry="18"/>
<text text-anchor="middle" x="1486" y="-230.3" font-family="Times New Roman,serif" font-size="14.00">;</text>
</g>
<!-- n33&#45;&gt;n49 -->
<g id="edge49" class="edge"><title>n33&#45;&gt;n49</title>
<path fill="none" stroke="black" d="M1341.03,-292.181C1371.11,-282.027 1413.56,-267.086 1450,-252 1451.82,-251.246 1453.68,-250.45 1455.55,-249.63"/>
<polygon fill="black" stroke="black" points="1457.18,-252.736 1464.83,-245.414 1454.28,-246.363 1457.18,-252.736"/>
</g>
<!-- n37 -->
<g id="node38" class="node"><title>n37</title>
<ellipse fill="none" stroke="black" cx="1169" cy="-162" rx="81.4863" ry="18"/>
<text text-anchor="middle" x="1169" y="-158.3" font-family="Times New Roman,serif" font-size="14.00">IDENTIFICADOR</text>
</g>
<!-- n36&#45;&gt;n37 -->
<g id="edge37" class="edge"><title>n36&#45;&gt;n37</title>
<path fill="none" stroke="black" d="M1272.81,-217.638C1253.76,-207.612 1228.67,-194.406 1207.93,-183.489"/>
<polygon fill="black" stroke="black" points="1209.52,-180.371 1199.04,-178.811 1206.26,-186.566 1209.52,-180.371"/>
</g>
<!-- n39 -->
<g id="node40" class="node"><title>n39</title>
<ellipse fill="none" stroke="black" cx="1302" cy="-162" rx="27" ry="18"/>
<text text-anchor="middle" x="1302" y="-158.3" font-family="Times New Roman,serif" font-size="14.00">+</text>
</g>
<!-- n36&#45;&gt;n39 -->
<g id="edge39" class="edge"><title>n36&#45;&gt;n39</title>
<path fill="none" stroke="black" d="M1302,-215.697C1302,-207.983 1302,-198.712 1302,-190.112"/>
<polygon fill="black" stroke="black" points="1305.5,-190.104 1302,-180.104 1298.5,-190.104 1305.5,-190.104"/>
</g>
<!-- n40 -->
<g id="node41" class="node"><title>n40</title>
<ellipse fill="none" stroke="black" cx="1405" cy="-162" rx="54.6905" ry="18"/>
<text text-anchor="middle" x="1405" y="-158.3" font-family="Times New Roman,serif" font-size="14.00">LLAMADA</text>
</g>
<!-- n36&#45;&gt;n40 -->
<g id="edge40" class="edge"><title>n36&#45;&gt;n40</title>
<path fill="none" stroke="black" d="M1325.37,-217.116C1339.7,-207.382 1358.21,-194.802 1373.77,-184.222"/>
<polygon fill="black" stroke="black" points="1375.77,-187.096 1382.08,-178.58 1371.84,-181.306 1375.77,-187.096"/>
</g>
<!-- n38 -->
<g id="node39" class="node"><title>n38</title>
<ellipse fill="none" stroke="black" cx="1167" cy="-90" rx="27" ry="18"/>
<text text-anchor="middle" x="1167" y="-86.3" font-family="Times New Roman,serif" font-size="14.00">tex</text>
</g>
<!-- n37&#45;&gt;n38 -->
<g id="edge38" class="edge"><title>n37&#45;&gt;n38</title>
<path fill="none" stroke="black" d="M1168.51,-143.697C1168.29,-135.983 1168.02,-126.712 1167.77,-118.112"/>
<polygon fill="black" stroke="black" points="1171.27,-118 1167.49,-108.104 1164.28,-118.2 1171.27,-118"/>
</g>
<!-- n41 -->
<g id="node42" class="node"><title>n41</title>
<ellipse fill="none" stroke="black" cx="1242" cy="-90" rx="29.795" ry="18"/>
<text text-anchor="middle" x="1242" y="-86.3" font-family="Times New Roman,serif" font-size="14.00">suma</text>
</g>
<!-- n40&#45;&gt;n41 -->
<g id="edge41" class="edge"><title>n40&#45;&gt;n41</title>
<path fill="none" stroke="black" d="M1372.86,-147.336C1347.81,-136.67 1312.17,-121.453 1281,-108 1278.96,-107.12 1276.86,-106.212 1274.75,-105.295"/>
<polygon fill="black" stroke="black" points="1276.07,-102.051 1265.5,-101.275 1273.28,-108.471 1276.07,-102.051"/>
</g>
<!-- n42 -->
<g id="node43" class="node"><title>n42</title>
<ellipse fill="none" stroke="black" cx="1317" cy="-90" rx="27" ry="18"/>
<text text-anchor="middle" x="1317" y="-86.3" font-family="Times New Roman,serif" font-size="14.00">(</text>
</g>
<!-- n40&#45;&gt;n42 -->
<g id="edge42" class="edge"><title>n40&#45;&gt;n42</title>
<path fill="none" stroke="black" d="M1385.03,-145.116C1372.18,-134.894 1355.39,-121.534 1341.7,-110.647"/>
<polygon fill="black" stroke="black" points="1343.65,-107.723 1333.64,-104.237 1339.29,-113.202 1343.65,-107.723"/>
</g>
<!-- n43 -->
<g id="node44" class="node"><title>n43</title>
<ellipse fill="none" stroke="black" cx="1407" cy="-90" rx="45.4919" ry="18"/>
<text text-anchor="middle" x="1407" y="-86.3" font-family="Times New Roman,serif" font-size="14.00">NATIVO</text>
</g>
<!-- n40&#45;&gt;n43 -->
<g id="edge43" class="edge"><title>n40&#45;&gt;n43</title>
<path fill="none" stroke="black" d="M1405.49,-143.697C1405.71,-135.983 1405.98,-126.712 1406.23,-118.112"/>
<polygon fill="black" stroke="black" points="1409.72,-118.2 1406.51,-108.104 1402.73,-118 1409.72,-118.2"/>
</g>
<!-- n45 -->
<g id="node46" class="node"><title>n45</title>
<ellipse fill="none" stroke="black" cx="1516" cy="-90" rx="45.4919" ry="18"/>
<text text-anchor="middle" x="1516" y="-86.3" font-family="Times New Roman,serif" font-size="14.00">NATIVO</text>
</g>
<!-- n40&#45;&gt;n45 -->
<g id="edge45" class="edge"><title>n40&#45;&gt;n45</title>
<path fill="none" stroke="black" d="M1429.09,-145.811C1445.16,-135.676 1466.47,-122.235 1483.97,-111.201"/>
<polygon fill="black" stroke="black" points="1486.13,-113.974 1492.72,-105.68 1482.4,-108.053 1486.13,-113.974"/>
</g>
<!-- n47 -->
<g id="node48" class="node"><title>n47</title>
<ellipse fill="none" stroke="black" cx="1606" cy="-90" rx="27" ry="18"/>
<text text-anchor="middle" x="1606" y="-86.3" font-family="Times New Roman,serif" font-size="14.00">)</text>
</g>
<!-- n40&#45;&gt;n47 -->
<g id="edge47" class="edge"><title>n40&#45;&gt;n47</title>
<path fill="none" stroke="black" d="M1445.19,-149.69C1478.92,-139.817 1528.16,-124.517 1570,-108 1571.83,-107.277 1573.7,-106.504 1575.58,-105.701"/>
<polygon fill="black" stroke="black" points="1577.19,-108.817 1584.88,-101.534 1574.32,-102.429 1577.19,-108.817"/>
</g>
<!-- n44 -->
<g id="node45" class="node"><title>n44</title>
<ellipse fill="none" stroke="black" cx="1407" cy="-18" rx="27" ry="18"/>
<text text-anchor="middle" x="1407" y="-14.3" font-family="Times New Roman,serif" font-size="14.00">2</text>
</g>
<!-- n43&#45;&gt;n44 -->
<g id="edge44" class="edge"><title>n43&#45;&gt;n44</title>
<path fill="none" stroke="black" d="M1407,-71.6966C1407,-63.9827 1407,-54.7125 1407,-46.1124"/>
<polygon fill="black" stroke="black" points="1410.5,-46.1043 1407,-36.1043 1403.5,-46.1044 1410.5,-46.1043"/>
</g>
<!-- n46 -->
<g id="node47" class="node"><title>n46</title>
<ellipse fill="none" stroke="black" cx="1516" cy="-18" rx="27" ry="18"/>
<text text-anchor="middle" x="1516" y="-14.3" font-family="Times New Roman,serif" font-size="14.00">3</text>
</g>
<!-- n45&#45;&gt;n46 -->
<g id="edge46" class="edge"><title>n45&#45;&gt;n46</title>
<path fill="none" stroke="black" d="M1516,-71.6966C1516,-63.9827 1516,-54.7125 1516,-46.1124"/>
<polygon fill="black" stroke="black" points="1519.5,-46.1043 1516,-36.1043 1512.5,-46.1044 1519.5,-46.1043"/>
</g>
<!-- n52 -->
<g id="node53" class="node"><title>n52</title>
<ellipse fill="none" stroke="black" cx="1479" cy="-306" rx="27.0966" ry="18"/>
<text text-anchor="middle" x="1479" y="-302.3" font-family="Times New Roman,serif" font-size="14.00">exec</text>
</g>
<!-- n51&#45;&gt;n52 -->
<g id="edge52" class="edge"><title>n51&#45;&gt;n52</title>
<path fill="none" stroke="black" d="M1602.23,-365.284C1576.76,-353.237 1537.05,-334.457 1509.63,-321.486"/>
<polygon fill="black" stroke="black" points="1511.02,-318.272 1500.48,-317.16 1508.03,-324.6 1511.02,-318.272"/>
</g>
<!-- n53 -->
<g id="node54" class="node"><title>n53</title>
<ellipse fill="none" stroke="black" cx="1553" cy="-306" rx="28.6953" ry="18"/>
<text text-anchor="middle" x="1553" y="-302.3" font-family="Times New Roman,serif" font-size="14.00">texto</text>
</g>
<!-- n51&#45;&gt;n53 -->
<g id="edge53" class="edge"><title>n51&#45;&gt;n53</title>
<path fill="none" stroke="black" d="M1610.94,-361.811C1600.65,-352.075 1587.13,-339.29 1575.75,-328.517"/>
<polygon fill="black" stroke="black" points="1577.94,-325.771 1568.27,-321.442 1573.13,-330.856 1577.94,-325.771"/>
</g>
<!-- n54 -->
<g id="node55" class="node"><title>n54</title>
<ellipse fill="none" stroke="black" cx="1627" cy="-306" rx="27" ry="18"/>
<text text-anchor="middle" x="1627" y="-302.3" font-family="Times New Roman,serif" font-size="14.00">(</text>
</g>
<!-- n51&#45;&gt;n54 -->
<g id="edge54" class="edge"><title>n51&#45;&gt;n54</title>
<path fill="none" stroke="black" d="M1627,-359.697C1627,-351.983 1627,-342.712 1627,-334.112"/>
<polygon fill="black" stroke="black" points="1630.5,-334.104 1627,-324.104 1623.5,-334.104 1630.5,-334.104"/>
</g>
<!-- n55 -->
<g id="node56" class="node"><title>n55</title>
<ellipse fill="none" stroke="black" cx="1717" cy="-306" rx="45.4919" ry="18"/>
<text text-anchor="middle" x="1717" y="-302.3" font-family="Times New Roman,serif" font-size="14.00">NATIVO</text>
</g>
<!-- n51&#45;&gt;n55 -->
<g id="edge55" class="edge"><title>n51&#45;&gt;n55</title>
<path fill="none" stroke="black" d="M1645.65,-362.496C1658.22,-352.721 1675.02,-339.653 1689.16,-328.653"/>
<polygon fill="black" stroke="black" points="1691.38,-331.359 1697.13,-322.457 1687.08,-325.833 1691.38,-331.359"/>
</g>
<!-- n57 -->
<g id="node58" class="node"><title>n57</title>
<ellipse fill="none" stroke="black" cx="1807" cy="-306" rx="27" ry="18"/>
<text text-anchor="middle" x="1807" y="-302.3" font-family="Times New Roman,serif" font-size="14.00">)</text>
</g>
<!-- n51&#45;&gt;n57 -->
<g id="edge57" class="edge"><title>n51&#45;&gt;n57</title>
<path fill="none" stroke="black" d="M1655.16,-367.465C1684.4,-357.372 1731.32,-340.632 1771,-324 1772.82,-323.238 1774.68,-322.436 1776.54,-321.611"/>
<polygon fill="black" stroke="black" points="1778.17,-324.715 1785.82,-317.383 1775.27,-318.345 1778.17,-324.715"/>
</g>
<!-- n58 -->
<g id="node59" class="node"><title>n58</title>
<ellipse fill="none" stroke="black" cx="1879" cy="-306" rx="27" ry="18"/>
<text text-anchor="middle" x="1879" y="-302.3" font-family="Times New Roman,serif" font-size="14.00">;</text>
</g>
<!-- n51&#45;&gt;n58 -->
<g id="edge58" class="edge"><title>n51&#45;&gt;n58</title>
<path fill="none" stroke="black" d="M1659.06,-371.225C1701.76,-363.063 1779.32,-346.591 1843,-324 1844.91,-323.324 1846.85,-322.581 1848.79,-321.794"/>
<polygon fill="black" stroke="black" points="1850.6,-324.823 1858.36,-317.613 1847.79,-318.409 1850.6,-324.823"/>
</g>
<!-- n56 -->
<g id="node57" class="node"><title>n56</title>
<ellipse fill="none" stroke="black" cx="1717" cy="-234" rx="56.59" ry="18"/>
<text text-anchor="middle" x="1717" y="-230.3" font-family="Times New Roman,serif" font-size="14.00">mrSandman </text>
</g>
<!-- n55&#45;&gt;n56 -->
<g id="edge56" class="edge"><title>n55&#45;&gt;n56</title>
<path fill="none" stroke="black" d="M1717,-287.697C1717,-279.983 1717,-270.712 1717,-262.112"/>
<polygon fill="black" stroke="black" points="1720.5,-262.104 1717,-252.104 1713.5,-262.104 1720.5,-262.104"/>
</g>
</g>
</svg>
