<?xml version="1.0" encoding="UTF-8" standalone="no"?>
<!DOCTYPE svg PUBLIC "-//W3C//DTD SVG 1.1//EN"
 "http://www.w3.org/Graphics/SVG/1.1/DTD/svg11.dtd">
<!-- Generated by graphviz version 2.38.0 (20140413.2041)
 -->
<!-- Title: arbolAST Pages: 1 -->
<svg width="3463pt" height="548pt"
 viewBox="0.00 0.00 3462.55 548.00" xmlns="http://www.w3.org/2000/svg" xmlns:xlink="http://www.w3.org/1999/xlink">
<g id="graph0" class="graph" transform="scale(1 1) rotate(0) translate(4 544)">
<title>arbolAST</title>
<polygon fill="white" stroke="none" points="-4,4 -4,-544 3458.55,-544 3458.55,4 -4,4"/>
<!-- n0 -->
<g id="node1" class="node"><title>n0</title>
<ellipse fill="none" stroke="black" cx="1971.55" cy="-522" rx="31.6951" ry="18"/>
<text text-anchor="middle" x="1971.55" y="-518.3" font-family="Times New Roman,serif" font-size="14.00">RAIZ</text>
</g>
<!-- n1 -->
<g id="node2" class="node"><title>n1</title>
<ellipse fill="none" stroke="black" cx="1971.55" cy="-450" rx="83.3857" ry="18"/>
<text text-anchor="middle" x="1971.55" y="-446.3" font-family="Times New Roman,serif" font-size="14.00">INSTRUCCIONES</text>
</g>
<!-- n0&#45;&gt;n1 -->
<g id="edge1" class="edge"><title>n0&#45;&gt;n1</title>
<path fill="none" stroke="black" d="M1971.55,-503.697C1971.55,-495.983 1971.55,-486.712 1971.55,-478.112"/>
<polygon fill="black" stroke="black" points="1975.05,-478.104 1971.55,-468.104 1968.05,-478.104 1975.05,-478.104"/>
</g>
<!-- n2 -->
<g id="node3" class="node"><title>n2</title>
<ellipse fill="none" stroke="black" cx="776.547" cy="-378" rx="50.0912" ry="18"/>
<text text-anchor="middle" x="776.547" y="-374.3" font-family="Times New Roman,serif" font-size="14.00">METODO</text>
</g>
<!-- n1&#45;&gt;n2 -->
<g id="edge2" class="edge"><title>n1&#45;&gt;n2</title>
<path fill="none" stroke="black" d="M1892.21,-444.353C1668.03,-431.221 1033.33,-394.042 835.907,-382.477"/>
<polygon fill="black" stroke="black" points="835.922,-378.972 825.735,-381.881 835.513,-385.96 835.922,-378.972"/>
</g>
<!-- n70 -->
<g id="node71" class="node"><title>n70</title>
<ellipse fill="none" stroke="black" cx="3247.55" cy="-378" rx="34.394" ry="18"/>
<text text-anchor="middle" x="3247.55" y="-374.3" font-family="Times New Roman,serif" font-size="14.00">EXEC</text>
</g>
<!-- n1&#45;&gt;n70 -->
<g id="edge70" class="edge"><title>n1&#45;&gt;n70</title>
<path fill="none" stroke="black" d="M2051.37,-444.621C2293.82,-431.321 3016.47,-391.676 3203.14,-381.436"/>
<polygon fill="black" stroke="black" points="3203.61,-384.916 3213.4,-380.873 3203.23,-377.926 3203.61,-384.916"/>
</g>
<!-- n3 -->
<g id="node4" class="node"><title>n3</title>
<ellipse fill="none" stroke="black" cx="385.547" cy="-306" rx="27" ry="18"/>
<text text-anchor="middle" x="385.547" y="-302.3" font-family="Times New Roman,serif" font-size="14.00">void</text>
</g>
<!-- n2&#45;&gt;n3 -->
<g id="edge3" class="edge"><title>n2&#45;&gt;n3</title>
<path fill="none" stroke="black" d="M727.321,-374.21C657.854,-369.255 527.686,-356.216 421.547,-324 419.613,-323.413 417.65,-322.738 415.692,-322.003"/>
<polygon fill="black" stroke="black" points="416.65,-318.609 406.075,-317.956 413.935,-325.061 416.65,-318.609"/>
</g>
<!-- n4 -->
<g id="node5" class="node"><title>n4</title>
<ellipse fill="none" stroke="black" cx="457.547" cy="-306" rx="27" ry="18"/>
<text text-anchor="middle" x="457.547" y="-302.3" font-family="Times New Roman,serif" font-size="14.00">eje</text>
</g>
<!-- n2&#45;&gt;n4 -->
<g id="edge4" class="edge"><title>n2&#45;&gt;n4</title>
<path fill="none" stroke="black" d="M729.312,-371.907C672.372,-364.917 574.272,-350.14 493.547,-324 491.624,-323.377 489.67,-322.675 487.718,-321.919"/>
<polygon fill="black" stroke="black" points="488.69,-318.528 478.119,-317.818 485.94,-324.965 488.69,-318.528"/>
</g>
<!-- n5 -->
<g id="node6" class="node"><title>n5</title>
<ellipse fill="none" stroke="black" cx="529.547" cy="-306" rx="27" ry="18"/>
<text text-anchor="middle" x="529.547" y="-302.3" font-family="Times New Roman,serif" font-size="14.00">(</text>
</g>
<!-- n2&#45;&gt;n5 -->
<g id="edge5" class="edge"><title>n2&#45;&gt;n5</title>
<path fill="none" stroke="black" d="M733.384,-368.737C690.217,-359.876 622.268,-344.297 565.547,-324 563.693,-323.336 561.805,-322.61 559.914,-321.842"/>
<polygon fill="black" stroke="black" points="561.142,-318.56 550.577,-317.77 558.344,-324.976 561.142,-318.56"/>
</g>
<!-- n6 -->
<g id="node7" class="node"><title>n6</title>
<ellipse fill="none" stroke="black" cx="601.547" cy="-306" rx="27" ry="18"/>
<text text-anchor="middle" x="601.547" y="-302.3" font-family="Times New Roman,serif" font-size="14.00">)</text>
</g>
<!-- n2&#45;&gt;n6 -->
<g id="edge6" class="edge"><title>n2&#45;&gt;n6</title>
<path fill="none" stroke="black" d="M742.266,-364.764C713.953,-354.458 672.831,-339.032 637.547,-324 635.735,-323.228 633.88,-322.417 632.014,-321.586"/>
<polygon fill="black" stroke="black" points="633.294,-318.322 622.745,-317.341 630.38,-324.687 633.294,-318.322"/>
</g>
<!-- n7 -->
<g id="node8" class="node"><title>n7</title>
<ellipse fill="none" stroke="black" cx="673.547" cy="-306" rx="27" ry="18"/>
<text text-anchor="middle" x="673.547" y="-302.3" font-family="Times New Roman,serif" font-size="14.00">{</text>
</g>
<!-- n2&#45;&gt;n7 -->
<g id="edge7" class="edge"><title>n2&#45;&gt;n7</title>
<path fill="none" stroke="black" d="M754.198,-361.811C738.277,-350.991 716.813,-336.404 700.031,-324.998"/>
<polygon fill="black" stroke="black" points="701.974,-322.087 691.736,-319.361 698.039,-327.877 701.974,-322.087"/>
</g>
<!-- n8 -->
<g id="node9" class="node"><title>n8</title>
<ellipse fill="none" stroke="black" cx="776.547" cy="-306" rx="58.4896" ry="18"/>
<text text-anchor="middle" x="776.547" y="-302.3" font-family="Times New Roman,serif" font-size="14.00">VECTORES</text>
</g>
<!-- n2&#45;&gt;n8 -->
<g id="edge8" class="edge"><title>n2&#45;&gt;n8</title>
<path fill="none" stroke="black" d="M776.547,-359.697C776.547,-351.983 776.547,-342.712 776.547,-334.112"/>
<polygon fill="black" stroke="black" points="780.047,-334.104 776.547,-324.104 773.047,-334.104 780.047,-334.104"/>
</g>
<!-- n26 -->
<g id="node27" class="node"><title>n26</title>
<ellipse fill="none" stroke="black" cx="1622.55" cy="-306" rx="58.4896" ry="18"/>
<text text-anchor="middle" x="1622.55" y="-302.3" font-family="Times New Roman,serif" font-size="14.00">VECTORES</text>
</g>
<!-- n2&#45;&gt;n26 -->
<g id="edge26" class="edge"><title>n2&#45;&gt;n26</title>
<path fill="none" stroke="black" d="M824.763,-373.011C968.138,-361.147 1392.05,-326.072 1556.39,-312.474"/>
<polygon fill="black" stroke="black" points="1557.16,-315.922 1566.84,-311.61 1556.58,-308.946 1557.16,-315.922"/>
</g>
<!-- n44 -->
<g id="node45" class="node"><title>n44</title>
<ellipse fill="none" stroke="black" cx="2404.55" cy="-306" rx="75.2868" ry="18"/>
<text text-anchor="middle" x="2404.55" y="-302.3" font-family="Times New Roman,serif" font-size="14.00">DECLARACION</text>
</g>
<!-- n2&#45;&gt;n44 -->
<g id="edge44" class="edge"><title>n2&#45;&gt;n44</title>
<path fill="none" stroke="black" d="M826.159,-374.867C1057.09,-364.937 2027.87,-323.196 2320.62,-310.608"/>
<polygon fill="black" stroke="black" points="2320.91,-314.1 2330.75,-310.173 2320.61,-307.106 2320.91,-314.1"/>
</g>
<!-- n59 -->
<g id="node60" class="node"><title>n59</title>
<ellipse fill="none" stroke="black" cx="2915.55" cy="-306" rx="107.482" ry="18"/>
<text text-anchor="middle" x="2915.55" y="-302.3" font-family="Times New Roman,serif" font-size="14.00">ASIGNACION&#45;VECTOR</text>
</g>
<!-- n2&#45;&gt;n59 -->
<g id="edge59" class="edge"><title>n2&#45;&gt;n59</title>
<path fill="none" stroke="black" d="M826.273,-375.621C1031.28,-369.904 1831.04,-347.266 2488.55,-324 2595.17,-320.227 2716.75,-315.329 2802.83,-311.76"/>
<polygon fill="black" stroke="black" points="2803.04,-315.254 2812.89,-311.342 2802.75,-308.26 2803.04,-315.254"/>
</g>
<!-- n69 -->
<g id="node70" class="node"><title>n69</title>
<ellipse fill="none" stroke="black" cx="3067.55" cy="-306" rx="27" ry="18"/>
<text text-anchor="middle" x="3067.55" y="-302.3" font-family="Times New Roman,serif" font-size="14.00">}</text>
</g>
<!-- n2&#45;&gt;n69 -->
<g id="edge69" class="edge"><title>n2&#45;&gt;n69</title>
<path fill="none" stroke="black" d="M826.714,-377.069C1139,-377.334 2810.58,-376.283 3031.55,-324 3033.73,-323.483 3035.94,-322.823 3038.14,-322.065"/>
<polygon fill="black" stroke="black" points="3039.58,-325.258 3047.53,-318.252 3036.94,-318.772 3039.58,-325.258"/>
</g>
<!-- n9 -->
<g id="node10" class="node"><title>n9</title>
<ellipse fill="none" stroke="black" cx="30.5473" cy="-234" rx="30.5947" ry="18"/>
<text text-anchor="middle" x="30.5473" y="-230.3" font-family="Times New Roman,serif" font-size="14.00">string</text>
</g>
<!-- n8&#45;&gt;n9 -->
<g id="edge9" class="edge"><title>n8&#45;&gt;n9</title>
<path fill="none" stroke="black" d="M734.985,-293.137C726.622,-291.124 717.85,-289.275 709.547,-288 428.393,-244.822 347.567,-316.592 70.5473,-252 68.0396,-251.415 65.4897,-250.684 62.9534,-249.857"/>
<polygon fill="black" stroke="black" points="63.9496,-246.493 53.3567,-246.289 61.5102,-253.054 63.9496,-246.493"/>
</g>
<!-- n10 -->
<g id="node11" class="node"><title>n10</title>
<ellipse fill="none" stroke="black" cx="106.547" cy="-234" rx="27" ry="18"/>
<text text-anchor="middle" x="106.547" y="-230.3" font-family="Times New Roman,serif" font-size="14.00">[</text>
</g>
<!-- n8&#45;&gt;n10 -->
<g id="edge10" class="edge"><title>n8&#45;&gt;n10</title>
<path fill="none" stroke="black" d="M734.978,-293.184C726.615,-291.167 717.846,-289.305 709.547,-288 460.104,-248.782 387.061,-315.032 142.547,-252 140.372,-251.439 138.169,-250.747 135.98,-249.965"/>
<polygon fill="black" stroke="black" points="137.184,-246.676 126.605,-246.1 134.516,-253.148 137.184,-246.676"/>
</g>
<!-- n11 -->
<g id="node12" class="node"><title>n11</title>
<ellipse fill="none" stroke="black" cx="178.547" cy="-234" rx="27" ry="18"/>
<text text-anchor="middle" x="178.547" y="-230.3" font-family="Times New Roman,serif" font-size="14.00">]</text>
</g>
<!-- n8&#45;&gt;n11 -->
<g id="edge11" class="edge"><title>n8&#45;&gt;n11</title>
<path fill="none" stroke="black" d="M734.969,-293.245C726.607,-291.222 717.84,-289.343 709.547,-288 491.803,-252.739 427.89,-308.044 214.547,-252 212.375,-251.429 210.173,-250.729 207.986,-249.943"/>
<polygon fill="black" stroke="black" points="209.193,-246.654 198.614,-246.065 206.517,-253.122 209.193,-246.654"/>
</g>
<!-- n12 -->
<g id="node13" class="node"><title>n12</title>
<ellipse fill="none" stroke="black" cx="261.547" cy="-234" rx="38.1938" ry="18"/>
<text text-anchor="middle" x="261.547" y="-230.3" font-family="Times New Roman,serif" font-size="14.00">variable</text>
</g>
<!-- n8&#45;&gt;n12 -->
<g id="edge12" class="edge"><title>n8&#45;&gt;n12</title>
<path fill="none" stroke="black" d="M734.592,-293.269C726.339,-291.27 717.71,-289.393 709.547,-288 533.158,-257.901 483.24,-290.753 308.547,-252 305.511,-251.326 302.403,-250.508 299.304,-249.599"/>
<polygon fill="black" stroke="black" points="300.123,-246.186 289.531,-246.451 297.976,-252.849 300.123,-246.186"/>
</g>
<!-- n13 -->
<g id="node14" class="node"><title>n13</title>
<ellipse fill="none" stroke="black" cx="344.547" cy="-234" rx="27" ry="18"/>
<text text-anchor="middle" x="344.547" y="-230.3" font-family="Times New Roman,serif" font-size="14.00">=</text>
</g>
<!-- n8&#45;&gt;n13 -->
<g id="edge13" class="edge"><title>n8&#45;&gt;n13</title>
<path fill="none" stroke="black" d="M734.569,-293.396C726.319,-291.386 717.696,-289.472 709.547,-288 564.796,-261.848 522.112,-291.955 380.547,-252 378.602,-251.451 376.631,-250.805 374.665,-250.092"/>
<polygon fill="black" stroke="black" points="375.611,-246.696 365.032,-246.103 372.932,-253.163 375.611,-246.696"/>
</g>
<!-- n14 -->
<g id="node15" class="node"><title>n14</title>
<ellipse fill="none" stroke="black" cx="416.547" cy="-234" rx="27" ry="18"/>
<text text-anchor="middle" x="416.547" y="-230.3" font-family="Times New Roman,serif" font-size="14.00">{</text>
</g>
<!-- n8&#45;&gt;n14 -->
<g id="edge14" class="edge"><title>n8&#45;&gt;n14</title>
<path fill="none" stroke="black" d="M734.173,-293.504C726.036,-291.508 717.555,-289.572 709.547,-288 596.37,-265.784 563.063,-285 452.547,-252 450.61,-251.422 448.646,-250.753 446.685,-250.023"/>
<polygon fill="black" stroke="black" points="447.641,-246.629 437.065,-245.99 444.934,-253.084 447.641,-246.629"/>
</g>
<!-- n15 -->
<g id="node16" class="node"><title>n15</title>
<ellipse fill="none" stroke="black" cx="506.547" cy="-234" rx="45.4919" ry="18"/>
<text text-anchor="middle" x="506.547" y="-230.3" font-family="Times New Roman,serif" font-size="14.00">NATIVO</text>
</g>
<!-- n8&#45;&gt;n15 -->
<g id="edge15" class="edge"><title>n8&#45;&gt;n15</title>
<path fill="none" stroke="black" d="M732.956,-293.863C725.165,-291.894 717.119,-289.875 709.547,-288 643.418,-271.622 626.188,-270.239 560.547,-252 557.178,-251.064 553.702,-250.059 550.215,-249.024"/>
<polygon fill="black" stroke="black" points="551.019,-245.611 540.434,-246.054 548.985,-252.309 551.019,-245.611"/>
</g>
<!-- n17 -->
<g id="node18" class="node"><title>n17</title>
<ellipse fill="none" stroke="black" cx="596.547" cy="-234" rx="27" ry="18"/>
<text text-anchor="middle" x="596.547" y="-230.3" font-family="Times New Roman,serif" font-size="14.00">,</text>
</g>
<!-- n8&#45;&gt;n17 -->
<g id="edge17" class="edge"><title>n8&#45;&gt;n17</title>
<path fill="none" stroke="black" d="M738.899,-292.17C709.638,-281.953 668.172,-266.933 632.547,-252 630.731,-251.238 628.872,-250.436 627.004,-249.611"/>
<polygon fill="black" stroke="black" points="628.278,-246.345 617.727,-245.383 625.375,-252.715 628.278,-246.345"/>
</g>
<!-- n18 -->
<g id="node19" class="node"><title>n18</title>
<ellipse fill="none" stroke="black" cx="686.547" cy="-234" rx="45.4919" ry="18"/>
<text text-anchor="middle" x="686.547" y="-230.3" font-family="Times New Roman,serif" font-size="14.00">NATIVO</text>
</g>
<!-- n8&#45;&gt;n18 -->
<g id="edge18" class="edge"><title>n8&#45;&gt;n18</title>
<path fill="none" stroke="black" d="M756.125,-289.116C743.756,-279.495 727.813,-267.095 714.309,-256.593"/>
<polygon fill="black" stroke="black" points="716.313,-253.717 706.27,-250.34 712.015,-259.242 716.313,-253.717"/>
</g>
<!-- n20 -->
<g id="node21" class="node"><title>n20</title>
<ellipse fill="none" stroke="black" cx="776.547" cy="-234" rx="27" ry="18"/>
<text text-anchor="middle" x="776.547" y="-230.3" font-family="Times New Roman,serif" font-size="14.00">,</text>
</g>
<!-- n8&#45;&gt;n20 -->
<g id="edge20" class="edge"><title>n8&#45;&gt;n20</title>
<path fill="none" stroke="black" d="M776.547,-287.697C776.547,-279.983 776.547,-270.712 776.547,-262.112"/>
<polygon fill="black" stroke="black" points="780.047,-262.104 776.547,-252.104 773.047,-262.104 780.047,-262.104"/>
</g>
<!-- n21 -->
<g id="node22" class="node"><title>n21</title>
<ellipse fill="none" stroke="black" cx="866.547" cy="-234" rx="45.4919" ry="18"/>
<text text-anchor="middle" x="866.547" y="-230.3" font-family="Times New Roman,serif" font-size="14.00">NATIVO</text>
</g>
<!-- n8&#45;&gt;n21 -->
<g id="edge21" class="edge"><title>n8&#45;&gt;n21</title>
<path fill="none" stroke="black" d="M796.97,-289.116C809.339,-279.495 825.282,-267.095 838.785,-256.593"/>
<polygon fill="black" stroke="black" points="841.079,-259.242 846.824,-250.34 836.782,-253.717 841.079,-259.242"/>
</g>
<!-- n23 -->
<g id="node24" class="node"><title>n23</title>
<ellipse fill="none" stroke="black" cx="956.547" cy="-234" rx="27" ry="18"/>
<text text-anchor="middle" x="956.547" y="-230.3" font-family="Times New Roman,serif" font-size="14.00">,</text>
</g>
<!-- n8&#45;&gt;n23 -->
<g id="edge23" class="edge"><title>n8&#45;&gt;n23</title>
<path fill="none" stroke="black" d="M814.195,-292.17C843.457,-281.953 884.923,-266.933 920.547,-252 922.364,-251.238 924.222,-250.436 926.091,-249.611"/>
<polygon fill="black" stroke="black" points="927.719,-252.715 935.367,-245.383 924.816,-246.345 927.719,-252.715"/>
</g>
<!-- n24 -->
<g id="node25" class="node"><title>n24</title>
<ellipse fill="none" stroke="black" cx="1028.55" cy="-234" rx="27" ry="18"/>
<text text-anchor="middle" x="1028.55" y="-230.3" font-family="Times New Roman,serif" font-size="14.00">}</text>
</g>
<!-- n8&#45;&gt;n24 -->
<g id="edge24" class="edge"><title>n8&#45;&gt;n24</title>
<path fill="none" stroke="black" d="M825.404,-295.931C869.724,-287.022 936.506,-271.88 992.547,-252 994.453,-251.324 996.393,-250.581 998.334,-249.794"/>
<polygon fill="black" stroke="black" points="1000.14,-252.823 1007.91,-245.613 997.341,-246.409 1000.14,-252.823"/>
</g>
<!-- n25 -->
<g id="node26" class="node"><title>n25</title>
<ellipse fill="none" stroke="black" cx="1100.55" cy="-234" rx="27" ry="18"/>
<text text-anchor="middle" x="1100.55" y="-230.3" font-family="Times New Roman,serif" font-size="14.00">;</text>
</g>
<!-- n8&#45;&gt;n25 -->
<g id="edge25" class="edge"><title>n8&#45;&gt;n25</title>
<path fill="none" stroke="black" d="M830.919,-299.256C889.603,-292.079 985.306,-277.522 1064.55,-252 1066.47,-251.38 1068.43,-250.68 1070.38,-249.926"/>
<polygon fill="black" stroke="black" points="1072.16,-252.974 1079.98,-245.83 1069.41,-246.535 1072.16,-252.974"/>
</g>
<!-- n16 -->
<g id="node17" class="node"><title>n16</title>
<ellipse fill="none" stroke="black" cx="506.547" cy="-162" rx="36.2938" ry="18"/>
<text text-anchor="middle" x="506.547" y="-158.3" font-family="Times New Roman,serif" font-size="14.00">asdasd</text>
</g>
<!-- n15&#45;&gt;n16 -->
<g id="edge16" class="edge"><title>n15&#45;&gt;n16</title>
<path fill="none" stroke="black" d="M506.547,-215.697C506.547,-207.983 506.547,-198.712 506.547,-190.112"/>
<polygon fill="black" stroke="black" points="510.047,-190.104 506.547,-180.104 503.047,-190.104 510.047,-190.104"/>
</g>
<!-- n19 -->
<g id="node20" class="node"><title>n19</title>
<ellipse fill="none" stroke="black" cx="686.547" cy="-162" rx="27" ry="18"/>
<text text-anchor="middle" x="686.547" y="-158.3" font-family="Times New Roman,serif" font-size="14.00">asd</text>
</g>
<!-- n18&#45;&gt;n19 -->
<g id="edge19" class="edge"><title>n18&#45;&gt;n19</title>
<path fill="none" stroke="black" d="M686.547,-215.697C686.547,-207.983 686.547,-198.712 686.547,-190.112"/>
<polygon fill="black" stroke="black" points="690.047,-190.104 686.547,-180.104 683.047,-190.104 690.047,-190.104"/>
</g>
<!-- n22 -->
<g id="node23" class="node"><title>n22</title>
<ellipse fill="none" stroke="black" cx="866.547" cy="-162" rx="27" ry="18"/>
<text text-anchor="middle" x="866.547" y="-158.3" font-family="Times New Roman,serif" font-size="14.00">wer</text>
</g>
<!-- n21&#45;&gt;n22 -->
<g id="edge22" class="edge"><title>n21&#45;&gt;n22</title>
<path fill="none" stroke="black" d="M866.547,-215.697C866.547,-207.983 866.547,-198.712 866.547,-190.112"/>
<polygon fill="black" stroke="black" points="870.047,-190.104 866.547,-180.104 863.047,-190.104 870.047,-190.104"/>
</g>
<!-- n27 -->
<g id="node28" class="node"><title>n27</title>
<ellipse fill="none" stroke="black" cx="1172.55" cy="-234" rx="27" ry="18"/>
<text text-anchor="middle" x="1172.55" y="-230.3" font-family="Times New Roman,serif" font-size="14.00">int</text>
</g>
<!-- n26&#45;&gt;n27 -->
<g id="edge27" class="edge"><title>n26&#45;&gt;n27</title>
<path fill="none" stroke="black" d="M1564.46,-303.281C1483.29,-299.601 1332.01,-288.07 1208.55,-252 1206.61,-251.433 1204.64,-250.774 1202.68,-250.05"/>
<polygon fill="black" stroke="black" points="1203.63,-246.655 1193.05,-246.034 1200.93,-253.115 1203.63,-246.655"/>
</g>
<!-- n28 -->
<g id="node29" class="node"><title>n28</title>
<ellipse fill="none" stroke="black" cx="1244.55" cy="-234" rx="27" ry="18"/>
<text text-anchor="middle" x="1244.55" y="-230.3" font-family="Times New Roman,serif" font-size="14.00">[</text>
</g>
<!-- n26&#45;&gt;n28 -->
<g id="edge28" class="edge"><title>n26&#45;&gt;n28</title>
<path fill="none" stroke="black" d="M1566.06,-301.236C1497.32,-295.526 1378.35,-281.982 1280.55,-252 1278.61,-251.407 1276.65,-250.728 1274.7,-249.99"/>
<polygon fill="black" stroke="black" points="1275.66,-246.597 1265.08,-245.935 1272.94,-253.047 1275.66,-246.597"/>
</g>
<!-- n29 -->
<g id="node30" class="node"><title>n29</title>
<ellipse fill="none" stroke="black" cx="1316.55" cy="-234" rx="27" ry="18"/>
<text text-anchor="middle" x="1316.55" y="-230.3" font-family="Times New Roman,serif" font-size="14.00">]</text>
</g>
<!-- n26&#45;&gt;n29 -->
<g id="edge29" class="edge"><title>n26&#45;&gt;n29</title>
<path fill="none" stroke="black" d="M1569.3,-298.512C1514.11,-290.875 1425.84,-276.085 1352.55,-252 1350.63,-251.369 1348.67,-250.66 1346.72,-249.899"/>
<polygon fill="black" stroke="black" points="1347.7,-246.509 1337.13,-245.786 1344.94,-252.943 1347.7,-246.509"/>
</g>
<!-- n30 -->
<g id="node31" class="node"><title>n30</title>
<ellipse fill="none" stroke="black" cx="1388.55" cy="-234" rx="27" ry="18"/>
<text text-anchor="middle" x="1388.55" y="-230.3" font-family="Times New Roman,serif" font-size="14.00">var1</text>
</g>
<!-- n26&#45;&gt;n30 -->
<g id="edge30" class="edge"><title>n26&#45;&gt;n30</title>
<path fill="none" stroke="black" d="M1575.81,-294.991C1535.22,-285.71 1475.17,-270.555 1424.55,-252 1422.7,-251.322 1420.81,-250.584 1418.93,-249.809"/>
<polygon fill="black" stroke="black" points="1420.16,-246.528 1409.6,-245.713 1417.35,-252.938 1420.16,-246.528"/>
</g>
<!-- n31 -->
<g id="node32" class="node"><title>n31</title>
<ellipse fill="none" stroke="black" cx="1460.55" cy="-234" rx="27" ry="18"/>
<text text-anchor="middle" x="1460.55" y="-230.3" font-family="Times New Roman,serif" font-size="14.00">=</text>
</g>
<!-- n26&#45;&gt;n31 -->
<g id="edge31" class="edge"><title>n26&#45;&gt;n31</title>
<path fill="none" stroke="black" d="M1588.69,-291.219C1563.22,-280.745 1527.54,-265.828 1496.55,-252 1494.75,-251.197 1492.9,-250.363 1491.05,-249.513"/>
<polygon fill="black" stroke="black" points="1492.34,-246.256 1481.8,-245.22 1489.39,-252.605 1492.34,-246.256"/>
</g>
<!-- n32 -->
<g id="node33" class="node"><title>n32</title>
<ellipse fill="none" stroke="black" cx="1532.55" cy="-234" rx="27" ry="18"/>
<text text-anchor="middle" x="1532.55" y="-230.3" font-family="Times New Roman,serif" font-size="14.00">{</text>
</g>
<!-- n26&#45;&gt;n32 -->
<g id="edge32" class="edge"><title>n26&#45;&gt;n32</title>
<path fill="none" stroke="black" d="M1602.12,-289.116C1588.98,-278.894 1571.81,-265.534 1557.81,-254.647"/>
<polygon fill="black" stroke="black" points="1559.61,-251.614 1549.57,-248.237 1555.31,-257.139 1559.61,-251.614"/>
</g>
<!-- n33 -->
<g id="node34" class="node"><title>n33</title>
<ellipse fill="none" stroke="black" cx="1622.55" cy="-234" rx="45.4919" ry="18"/>
<text text-anchor="middle" x="1622.55" y="-230.3" font-family="Times New Roman,serif" font-size="14.00">NATIVO</text>
</g>
<!-- n26&#45;&gt;n33 -->
<g id="edge33" class="edge"><title>n26&#45;&gt;n33</title>
<path fill="none" stroke="black" d="M1622.55,-287.697C1622.55,-279.983 1622.55,-270.712 1622.55,-262.112"/>
<polygon fill="black" stroke="black" points="1626.05,-262.104 1622.55,-252.104 1619.05,-262.104 1626.05,-262.104"/>
</g>
<!-- n35 -->
<g id="node36" class="node"><title>n35</title>
<ellipse fill="none" stroke="black" cx="1712.55" cy="-234" rx="27" ry="18"/>
<text text-anchor="middle" x="1712.55" y="-230.3" font-family="Times New Roman,serif" font-size="14.00">,</text>
</g>
<!-- n26&#45;&gt;n35 -->
<g id="edge35" class="edge"><title>n26&#45;&gt;n35</title>
<path fill="none" stroke="black" d="M1642.97,-289.116C1656.11,-278.894 1673.29,-265.534 1687.29,-254.647"/>
<polygon fill="black" stroke="black" points="1689.78,-257.139 1695.53,-248.237 1685.49,-251.614 1689.78,-257.139"/>
</g>
<!-- n36 -->
<g id="node37" class="node"><title>n36</title>
<ellipse fill="none" stroke="black" cx="1802.55" cy="-234" rx="45.4919" ry="18"/>
<text text-anchor="middle" x="1802.55" y="-230.3" font-family="Times New Roman,serif" font-size="14.00">NATIVO</text>
</g>
<!-- n26&#45;&gt;n36 -->
<g id="edge36" class="edge"><title>n26&#45;&gt;n36</title>
<path fill="none" stroke="black" d="M1657.25,-291.503C1687.16,-279.874 1730.36,-263.073 1761.88,-250.816"/>
<polygon fill="black" stroke="black" points="1763.21,-254.055 1771.26,-247.168 1760.67,-247.531 1763.21,-254.055"/>
</g>
<!-- n38 -->
<g id="node39" class="node"><title>n38</title>
<ellipse fill="none" stroke="black" cx="1892.55" cy="-234" rx="27" ry="18"/>
<text text-anchor="middle" x="1892.55" y="-230.3" font-family="Times New Roman,serif" font-size="14.00">,</text>
</g>
<!-- n26&#45;&gt;n38 -->
<g id="edge38" class="edge"><title>n26&#45;&gt;n38</title>
<path fill="none" stroke="black" d="M1673.19,-296.832C1721.19,-288.322 1794.92,-273.245 1856.55,-252 1858.46,-251.341 1860.4,-250.611 1862.35,-249.834"/>
<polygon fill="black" stroke="black" points="1864.15,-252.869 1871.93,-245.679 1861.36,-246.447 1864.15,-252.869"/>
</g>
<!-- n39 -->
<g id="node40" class="node"><title>n39</title>
<ellipse fill="none" stroke="black" cx="1982.55" cy="-234" rx="45.4919" ry="18"/>
<text text-anchor="middle" x="1982.55" y="-230.3" font-family="Times New Roman,serif" font-size="14.00">NATIVO</text>
</g>
<!-- n26&#45;&gt;n39 -->
<g id="edge39" class="edge"><title>n26&#45;&gt;n39</title>
<path fill="none" stroke="black" d="M1675.23,-298.057C1736.56,-289.474 1840.66,-273.345 1928.55,-252 1932.1,-251.137 1935.76,-250.167 1939.42,-249.138"/>
<polygon fill="black" stroke="black" points="1940.43,-252.488 1949.04,-246.311 1938.46,-245.772 1940.43,-252.488"/>
</g>
<!-- n41 -->
<g id="node42" class="node"><title>n41</title>
<ellipse fill="none" stroke="black" cx="2072.55" cy="-234" rx="27" ry="18"/>
<text text-anchor="middle" x="2072.55" y="-230.3" font-family="Times New Roman,serif" font-size="14.00">,</text>
</g>
<!-- n26&#45;&gt;n41 -->
<g id="edge41" class="edge"><title>n26&#45;&gt;n41</title>
<path fill="none" stroke="black" d="M1680.63,-303.281C1761.8,-299.601 1913.09,-288.07 2036.55,-252 2038.49,-251.433 2040.45,-250.774 2042.42,-250.05"/>
<polygon fill="black" stroke="black" points="2044.16,-253.115 2052.04,-246.034 2041.47,-246.655 2044.16,-253.115"/>
</g>
<!-- n42 -->
<g id="node43" class="node"><title>n42</title>
<ellipse fill="none" stroke="black" cx="2144.55" cy="-234" rx="27" ry="18"/>
<text text-anchor="middle" x="2144.55" y="-230.3" font-family="Times New Roman,serif" font-size="14.00">}</text>
</g>
<!-- n26&#45;&gt;n42 -->
<g id="edge42" class="edge"><title>n26&#45;&gt;n42</title>
<path fill="none" stroke="black" d="M1680.96,-304.834C1773.44,-303.202 1958.44,-294.335 2108.55,-252 2110.49,-251.451 2112.46,-250.806 2114.43,-250.093"/>
<polygon fill="black" stroke="black" points="2116.16,-253.164 2124.06,-246.105 2113.48,-246.697 2116.16,-253.164"/>
</g>
<!-- n43 -->
<g id="node44" class="node"><title>n43</title>
<ellipse fill="none" stroke="black" cx="2216.55" cy="-234" rx="27" ry="18"/>
<text text-anchor="middle" x="2216.55" y="-230.3" font-family="Times New Roman,serif" font-size="14.00">;</text>
</g>
<!-- n26&#45;&gt;n43 -->
<g id="edge43" class="edge"><title>n26&#45;&gt;n43</title>
<path fill="none" stroke="black" d="M1679.79,-302.075C1802.51,-295.396 2087.29,-277.602 2180.55,-252 2182.5,-251.465 2184.47,-250.83 2186.44,-250.125"/>
<polygon fill="black" stroke="black" points="2188.16,-253.2 2196.08,-246.157 2185.5,-246.727 2188.16,-253.2"/>
</g>
<!-- n34 -->
<g id="node35" class="node"><title>n34</title>
<ellipse fill="none" stroke="black" cx="1622.55" cy="-162" rx="27" ry="18"/>
<text text-anchor="middle" x="1622.55" y="-158.3" font-family="Times New Roman,serif" font-size="14.00">4</text>
</g>
<!-- n33&#45;&gt;n34 -->
<g id="edge34" class="edge"><title>n33&#45;&gt;n34</title>
<path fill="none" stroke="black" d="M1622.55,-215.697C1622.55,-207.983 1622.55,-198.712 1622.55,-190.112"/>
<polygon fill="black" stroke="black" points="1626.05,-190.104 1622.55,-180.104 1619.05,-190.104 1626.05,-190.104"/>
</g>
<!-- n37 -->
<g id="node38" class="node"><title>n37</title>
<ellipse fill="none" stroke="black" cx="1802.55" cy="-162" rx="27" ry="18"/>
<text text-anchor="middle" x="1802.55" y="-158.3" font-family="Times New Roman,serif" font-size="14.00">1</text>
</g>
<!-- n36&#45;&gt;n37 -->
<g id="edge37" class="edge"><title>n36&#45;&gt;n37</title>
<path fill="none" stroke="black" d="M1802.55,-215.697C1802.55,-207.983 1802.55,-198.712 1802.55,-190.112"/>
<polygon fill="black" stroke="black" points="1806.05,-190.104 1802.55,-180.104 1799.05,-190.104 1806.05,-190.104"/>
</g>
<!-- n40 -->
<g id="node41" class="node"><title>n40</title>
<ellipse fill="none" stroke="black" cx="1982.55" cy="-162" rx="27" ry="18"/>
<text text-anchor="middle" x="1982.55" y="-158.3" font-family="Times New Roman,serif" font-size="14.00">21</text>
</g>
<!-- n39&#45;&gt;n40 -->
<g id="edge40" class="edge"><title>n39&#45;&gt;n40</title>
<path fill="none" stroke="black" d="M1982.55,-215.697C1982.55,-207.983 1982.55,-198.712 1982.55,-190.112"/>
<polygon fill="black" stroke="black" points="1986.05,-190.104 1982.55,-180.104 1979.05,-190.104 1986.05,-190.104"/>
</g>
<!-- n45 -->
<g id="node46" class="node"><title>n45</title>
<ellipse fill="none" stroke="black" cx="2292.55" cy="-234" rx="30.5947" ry="18"/>
<text text-anchor="middle" x="2292.55" y="-230.3" font-family="Times New Roman,serif" font-size="14.00">string</text>
</g>
<!-- n44&#45;&gt;n45 -->
<g id="edge45" class="edge"><title>n44&#45;&gt;n45</title>
<path fill="none" stroke="black" d="M2378.85,-288.941C2361.8,-278.285 2339.39,-264.278 2321.68,-253.208"/>
<polygon fill="black" stroke="black" points="2323.23,-250.052 2312.9,-247.72 2319.52,-255.988 2323.23,-250.052"/>
</g>
<!-- n46 -->
<g id="node47" class="node"><title>n46</title>
<ellipse fill="none" stroke="black" cx="2368.55" cy="-234" rx="27" ry="18"/>
<text text-anchor="middle" x="2368.55" y="-230.3" font-family="Times New Roman,serif" font-size="14.00">a</text>
</g>
<!-- n44&#45;&gt;n46 -->
<g id="edge46" class="edge"><title>n44&#45;&gt;n46</title>
<path fill="none" stroke="black" d="M2395.83,-288.055C2391.57,-279.767 2386.35,-269.618 2381.62,-260.424"/>
<polygon fill="black" stroke="black" points="2384.62,-258.599 2376.93,-251.307 2378.39,-261.801 2384.62,-258.599"/>
</g>
<!-- n47 -->
<g id="node48" class="node"><title>n47</title>
<ellipse fill="none" stroke="black" cx="2440.55" cy="-234" rx="27" ry="18"/>
<text text-anchor="middle" x="2440.55" y="-230.3" font-family="Times New Roman,serif" font-size="14.00">=</text>
</g>
<!-- n44&#45;&gt;n47 -->
<g id="edge47" class="edge"><title>n44&#45;&gt;n47</title>
<path fill="none" stroke="black" d="M2413.26,-288.055C2417.52,-279.767 2422.74,-269.618 2427.47,-260.424"/>
<polygon fill="black" stroke="black" points="2430.7,-261.801 2432.16,-251.307 2424.47,-258.599 2430.7,-261.801"/>
</g>
<!-- n48 -->
<g id="node49" class="node"><title>n48</title>
<ellipse fill="none" stroke="black" cx="2572.55" cy="-234" rx="87.1846" ry="18"/>
<text text-anchor="middle" x="2572.55" y="-230.3" font-family="Times New Roman,serif" font-size="14.00">ACCESO&#45;VECTOR</text>
</g>
<!-- n44&#45;&gt;n48 -->
<g id="edge48" class="edge"><title>n44&#45;&gt;n48</title>
<path fill="none" stroke="black" d="M2440.59,-289.983C2465.68,-279.526 2499.37,-265.49 2526.43,-254.216"/>
<polygon fill="black" stroke="black" points="2527.81,-257.432 2535.7,-250.355 2525.12,-250.97 2527.81,-257.432"/>
</g>
<!-- n58 -->
<g id="node59" class="node"><title>n58</title>
<ellipse fill="none" stroke="black" cx="2704.55" cy="-234" rx="27" ry="18"/>
<text text-anchor="middle" x="2704.55" y="-230.3" font-family="Times New Roman,serif" font-size="14.00">;</text>
</g>
<!-- n44&#45;&gt;n58 -->
<g id="edge58" class="edge"><title>n44&#45;&gt;n58</title>
<path fill="none" stroke="black" d="M2468.88,-296.557C2523.05,-288.396 2602.09,-273.998 2668.55,-252 2670.47,-251.365 2672.42,-250.653 2674.37,-249.89"/>
<polygon fill="black" stroke="black" points="2676.15,-252.932 2683.96,-245.77 2673.39,-246.5 2676.15,-252.932"/>
</g>
<!-- n49 -->
<g id="node50" class="node"><title>n49</title>
<ellipse fill="none" stroke="black" cx="2423.55" cy="-162" rx="38.1938" ry="18"/>
<text text-anchor="middle" x="2423.55" y="-158.3" font-family="Times New Roman,serif" font-size="14.00">variable</text>
</g>
<!-- n48&#45;&gt;n49 -->
<g id="edge49" class="edge"><title>n48&#45;&gt;n49</title>
<path fill="none" stroke="black" d="M2539.11,-217.291C2515.32,-206.117 2483.42,-191.128 2459.16,-179.731"/>
<polygon fill="black" stroke="black" points="2460.48,-176.484 2449.94,-175.399 2457.5,-182.819 2460.48,-176.484"/>
</g>
<!-- n50 -->
<g id="node51" class="node"><title>n50</title>
<ellipse fill="none" stroke="black" cx="2506.55" cy="-162" rx="27" ry="18"/>
<text text-anchor="middle" x="2506.55" y="-158.3" font-family="Times New Roman,serif" font-size="14.00">[</text>
</g>
<!-- n48&#45;&gt;n50 -->
<g id="edge50" class="edge"><title>n48&#45;&gt;n50</title>
<path fill="none" stroke="black" d="M2556.57,-216.055C2547.9,-206.86 2537.07,-195.375 2527.71,-185.445"/>
<polygon fill="black" stroke="black" points="2529.99,-182.763 2520.58,-177.888 2524.9,-187.565 2529.99,-182.763"/>
</g>
<!-- n51 -->
<g id="node52" class="node"><title>n51</title>
<ellipse fill="none" stroke="black" cx="2638.55" cy="-162" rx="87.1846" ry="18"/>
<text text-anchor="middle" x="2638.55" y="-158.3" font-family="Times New Roman,serif" font-size="14.00">ACCESO&#45;VECTOR</text>
</g>
<!-- n48&#45;&gt;n51 -->
<g id="edge51" class="edge"><title>n48&#45;&gt;n51</title>
<path fill="none" stroke="black" d="M2588.52,-216.055C2596.71,-207.371 2606.83,-196.644 2615.81,-187.114"/>
<polygon fill="black" stroke="black" points="2618.4,-189.466 2622.72,-179.789 2613.31,-184.664 2618.4,-189.466"/>
</g>
<!-- n57 -->
<g id="node58" class="node"><title>n57</title>
<ellipse fill="none" stroke="black" cx="2770.55" cy="-162" rx="27" ry="18"/>
<text text-anchor="middle" x="2770.55" y="-158.3" font-family="Times New Roman,serif" font-size="14.00">]</text>
</g>
<!-- n48&#45;&gt;n57 -->
<g id="edge57" class="edge"><title>n48&#45;&gt;n57</title>
<path fill="none" stroke="black" d="M2620.96,-218.898C2653.45,-209.01 2697.02,-194.933 2734.55,-180 2736.38,-179.272 2738.25,-178.495 2740.12,-177.689"/>
<polygon fill="black" stroke="black" points="2741.73,-180.804 2749.42,-173.514 2738.86,-174.418 2741.73,-180.804"/>
</g>
<!-- n52 -->
<g id="node53" class="node"><title>n52</title>
<ellipse fill="none" stroke="black" cx="2521.55" cy="-90" rx="27" ry="18"/>
<text text-anchor="middle" x="2521.55" y="-86.3" font-family="Times New Roman,serif" font-size="14.00">var1</text>
</g>
<!-- n51&#45;&gt;n52 -->
<g id="edge52" class="edge"><title>n51&#45;&gt;n52</title>
<path fill="none" stroke="black" d="M2611.41,-144.765C2592.96,-133.727 2568.61,-119.155 2549.91,-107.966"/>
<polygon fill="black" stroke="black" points="2551.61,-104.906 2541.23,-102.776 2548.01,-110.913 2551.61,-104.906"/>
</g>
<!-- n53 -->
<g id="node54" class="node"><title>n53</title>
<ellipse fill="none" stroke="black" cx="2593.55" cy="-90" rx="27" ry="18"/>
<text text-anchor="middle" x="2593.55" y="-86.3" font-family="Times New Roman,serif" font-size="14.00">[</text>
</g>
<!-- n51&#45;&gt;n53 -->
<g id="edge53" class="edge"><title>n51&#45;&gt;n53</title>
<path fill="none" stroke="black" d="M2627.65,-144.055C2622.13,-135.469 2615.33,-124.888 2609.26,-115.439"/>
<polygon fill="black" stroke="black" points="2612.08,-113.349 2603.72,-106.829 2606.19,-117.134 2612.08,-113.349"/>
</g>
<!-- n54 -->
<g id="node55" class="node"><title>n54</title>
<ellipse fill="none" stroke="black" cx="2683.55" cy="-90" rx="45.4919" ry="18"/>
<text text-anchor="middle" x="2683.55" y="-86.3" font-family="Times New Roman,serif" font-size="14.00">NATIVO</text>
</g>
<!-- n51&#45;&gt;n54 -->
<g id="edge54" class="edge"><title>n51&#45;&gt;n54</title>
<path fill="none" stroke="black" d="M2649.44,-144.055C2654.8,-135.715 2661.37,-125.491 2667.31,-116.252"/>
<polygon fill="black" stroke="black" points="2670.29,-118.093 2672.75,-107.789 2664.4,-114.308 2670.29,-118.093"/>
</g>
<!-- n56 -->
<g id="node57" class="node"><title>n56</title>
<ellipse fill="none" stroke="black" cx="2773.55" cy="-90" rx="27" ry="18"/>
<text text-anchor="middle" x="2773.55" y="-86.3" font-family="Times New Roman,serif" font-size="14.00">]</text>
</g>
<!-- n51&#45;&gt;n56 -->
<g id="edge56" class="edge"><title>n51&#45;&gt;n56</title>
<path fill="none" stroke="black" d="M2669.18,-145.116C2691.51,-133.539 2721.6,-117.937 2743.73,-106.46"/>
<polygon fill="black" stroke="black" points="2745.42,-109.528 2752.68,-101.818 2742.2,-103.314 2745.42,-109.528"/>
</g>
<!-- n55 -->
<g id="node56" class="node"><title>n55</title>
<ellipse fill="none" stroke="black" cx="2683.55" cy="-18" rx="27" ry="18"/>
<text text-anchor="middle" x="2683.55" y="-14.3" font-family="Times New Roman,serif" font-size="14.00">1</text>
</g>
<!-- n54&#45;&gt;n55 -->
<g id="edge55" class="edge"><title>n54&#45;&gt;n55</title>
<path fill="none" stroke="black" d="M2683.55,-71.6966C2683.55,-63.9827 2683.55,-54.7125 2683.55,-46.1124"/>
<polygon fill="black" stroke="black" points="2687.05,-46.1043 2683.55,-36.1043 2680.05,-46.1044 2687.05,-46.1043"/>
</g>
<!-- n60 -->
<g id="node61" class="node"><title>n60</title>
<ellipse fill="none" stroke="black" cx="2787.55" cy="-234" rx="38.1938" ry="18"/>
<text text-anchor="middle" x="2787.55" y="-230.3" font-family="Times New Roman,serif" font-size="14.00">variable</text>
</g>
<!-- n59&#45;&gt;n60 -->
<g id="edge60" class="edge"><title>n59&#45;&gt;n60</title>
<path fill="none" stroke="black" d="M2885.54,-288.588C2866.06,-277.935 2840.66,-264.045 2820.6,-253.076"/>
<polygon fill="black" stroke="black" points="2822.25,-249.992 2811.8,-248.264 2818.9,-256.133 2822.25,-249.992"/>
</g>
<!-- n61 -->
<g id="node62" class="node"><title>n61</title>
<ellipse fill="none" stroke="black" cx="2870.55" cy="-234" rx="27" ry="18"/>
<text text-anchor="middle" x="2870.55" y="-230.3" font-family="Times New Roman,serif" font-size="14.00">[</text>
</g>
<!-- n59&#45;&gt;n61 -->
<g id="edge61" class="edge"><title>n59&#45;&gt;n61</title>
<path fill="none" stroke="black" d="M2904.65,-288.055C2899.13,-279.469 2892.33,-268.888 2886.26,-259.439"/>
<polygon fill="black" stroke="black" points="2889.08,-257.349 2880.72,-250.829 2883.19,-261.134 2889.08,-257.349"/>
</g>
<!-- n62 -->
<g id="node63" class="node"><title>n62</title>
<ellipse fill="none" stroke="black" cx="2960.55" cy="-234" rx="45.4919" ry="18"/>
<text text-anchor="middle" x="2960.55" y="-230.3" font-family="Times New Roman,serif" font-size="14.00">NATIVO</text>
</g>
<!-- n59&#45;&gt;n62 -->
<g id="edge62" class="edge"><title>n59&#45;&gt;n62</title>
<path fill="none" stroke="black" d="M2926.44,-288.055C2931.8,-279.715 2938.37,-269.491 2944.31,-260.252"/>
<polygon fill="black" stroke="black" points="2947.29,-262.093 2949.75,-251.789 2941.4,-258.308 2947.29,-262.093"/>
</g>
<!-- n64 -->
<g id="node65" class="node"><title>n64</title>
<ellipse fill="none" stroke="black" cx="3050.55" cy="-234" rx="27" ry="18"/>
<text text-anchor="middle" x="3050.55" y="-230.3" font-family="Times New Roman,serif" font-size="14.00">]</text>
</g>
<!-- n59&#45;&gt;n64 -->
<g id="edge64" class="edge"><title>n59&#45;&gt;n64</title>
<path fill="none" stroke="black" d="M2946.86,-288.765C2969.11,-277.225 2998.82,-261.822 3020.73,-250.46"/>
<polygon fill="black" stroke="black" points="3022.63,-253.418 3029.9,-245.708 3019.41,-247.204 3022.63,-253.418"/>
</g>
<!-- n65 -->
<g id="node66" class="node"><title>n65</title>
<ellipse fill="none" stroke="black" cx="3122.55" cy="-234" rx="27" ry="18"/>
<text text-anchor="middle" x="3122.55" y="-230.3" font-family="Times New Roman,serif" font-size="14.00">=</text>
</g>
<!-- n59&#45;&gt;n65 -->
<g id="edge65" class="edge"><title>n59&#45;&gt;n65</title>
<path fill="none" stroke="black" d="M2969.36,-290.427C3003.37,-280.702 3048.02,-266.982 3086.55,-252 3088.38,-251.286 3090.26,-250.52 3092.14,-249.723"/>
<polygon fill="black" stroke="black" points="3093.74,-252.842 3101.44,-245.571 3090.88,-246.449 3093.74,-252.842"/>
</g>
<!-- n66 -->
<g id="node67" class="node"><title>n66</title>
<ellipse fill="none" stroke="black" cx="3212.55" cy="-234" rx="45.4919" ry="18"/>
<text text-anchor="middle" x="3212.55" y="-230.3" font-family="Times New Roman,serif" font-size="14.00">NATIVO</text>
</g>
<!-- n59&#45;&gt;n66 -->
<g id="edge66" class="edge"><title>n59&#45;&gt;n66</title>
<path fill="none" stroke="black" d="M2982.98,-291.994C3031.97,-282.133 3099.71,-267.644 3158.55,-252 3161.93,-251.101 3165.41,-250.124 3168.9,-249.108"/>
<polygon fill="black" stroke="black" points="3170.12,-252.397 3178.69,-246.171 3168.11,-245.692 3170.12,-252.397"/>
</g>
<!-- n68 -->
<g id="node69" class="node"><title>n68</title>
<ellipse fill="none" stroke="black" cx="3302.55" cy="-234" rx="27" ry="18"/>
<text text-anchor="middle" x="3302.55" y="-230.3" font-family="Times New Roman,serif" font-size="14.00">;</text>
</g>
<!-- n59&#45;&gt;n68 -->
<g id="edge68" class="edge"><title>n59&#45;&gt;n68</title>
<path fill="none" stroke="black" d="M2993.33,-293.541C3094.73,-278.562 3260.03,-253.986 3266.55,-252 3268.48,-251.411 3270.44,-250.735 3272.4,-249.999"/>
<polygon fill="black" stroke="black" points="3274.16,-253.057 3282.02,-245.95 3271.44,-246.605 3274.16,-253.057"/>
</g>
<!-- n63 -->
<g id="node64" class="node"><title>n63</title>
<ellipse fill="none" stroke="black" cx="2960.55" cy="-162" rx="27" ry="18"/>
<text text-anchor="middle" x="2960.55" y="-158.3" font-family="Times New Roman,serif" font-size="14.00">0</text>
</g>
<!-- n62&#45;&gt;n63 -->
<g id="edge63" class="edge"><title>n62&#45;&gt;n63</title>
<path fill="none" stroke="black" d="M2960.55,-215.697C2960.55,-207.983 2960.55,-198.712 2960.55,-190.112"/>
<polygon fill="black" stroke="black" points="2964.05,-190.104 2960.55,-180.104 2957.05,-190.104 2964.05,-190.104"/>
</g>
<!-- n67 -->
<g id="node68" class="node"><title>n67</title>
<ellipse fill="none" stroke="black" cx="3212.55" cy="-162" rx="27.0966" ry="18"/>
<text text-anchor="middle" x="3212.55" y="-158.3" font-family="Times New Roman,serif" font-size="14.00">assd</text>
</g>
<!-- n66&#45;&gt;n67 -->
<g id="edge67" class="edge"><title>n66&#45;&gt;n67</title>
<path fill="none" stroke="black" d="M3212.55,-215.697C3212.55,-207.983 3212.55,-198.712 3212.55,-190.112"/>
<polygon fill="black" stroke="black" points="3216.05,-190.104 3212.55,-180.104 3209.05,-190.104 3216.05,-190.104"/>
</g>
<!-- n71 -->
<g id="node72" class="node"><title>n71</title>
<ellipse fill="none" stroke="black" cx="3139.55" cy="-306" rx="27.0966" ry="18"/>
<text text-anchor="middle" x="3139.55" y="-302.3" font-family="Times New Roman,serif" font-size="14.00">exec</text>
</g>
<!-- n70&#45;&gt;n71 -->
<g id="edge71" class="edge"><title>n70&#45;&gt;n71</title>
<path fill="none" stroke="black" d="M3226.72,-363.503C3209.76,-352.51 3185.67,-336.894 3167.11,-324.865"/>
<polygon fill="black" stroke="black" points="3168.79,-321.785 3158.5,-319.283 3164.99,-327.659 3168.79,-321.785"/>
</g>
<!-- n72 -->
<g id="node73" class="node"><title>n72</title>
<ellipse fill="none" stroke="black" cx="3211.55" cy="-306" rx="27" ry="18"/>
<text text-anchor="middle" x="3211.55" y="-302.3" font-family="Times New Roman,serif" font-size="14.00">eje</text>
</g>
<!-- n70&#45;&gt;n72 -->
<g id="edge72" class="edge"><title>n70&#45;&gt;n72</title>
<path fill="none" stroke="black" d="M3239.02,-360.411C3234.71,-352.042 3229.4,-341.71 3224.59,-332.37"/>
<polygon fill="black" stroke="black" points="3227.7,-330.762 3220.02,-323.47 3221.48,-333.964 3227.7,-330.762"/>
</g>
<!-- n73 -->
<g id="node74" class="node"><title>n73</title>
<ellipse fill="none" stroke="black" cx="3283.55" cy="-306" rx="27" ry="18"/>
<text text-anchor="middle" x="3283.55" y="-302.3" font-family="Times New Roman,serif" font-size="14.00">(</text>
</g>
<!-- n70&#45;&gt;n73 -->
<g id="edge73" class="edge"><title>n70&#45;&gt;n73</title>
<path fill="none" stroke="black" d="M3256.08,-360.411C3260.38,-352.042 3265.7,-341.71 3270.5,-332.37"/>
<polygon fill="black" stroke="black" points="3273.62,-333.964 3275.08,-323.47 3267.39,-330.762 3273.62,-333.964"/>
</g>
<!-- n74 -->
<g id="node75" class="node"><title>n74</title>
<ellipse fill="none" stroke="black" cx="3355.55" cy="-306" rx="27" ry="18"/>
<text text-anchor="middle" x="3355.55" y="-302.3" font-family="Times New Roman,serif" font-size="14.00">)</text>
</g>
<!-- n70&#45;&gt;n74 -->
<g id="edge74" class="edge"><title>n70&#45;&gt;n74</title>
<path fill="none" stroke="black" d="M3268.37,-363.503C3285.44,-352.441 3309.72,-336.7 3328.33,-324.641"/>
<polygon fill="black" stroke="black" points="3330.46,-327.429 3336.95,-319.053 3326.66,-321.555 3330.46,-327.429"/>
</g>
<!-- n75 -->
<g id="node76" class="node"><title>n75</title>
<ellipse fill="none" stroke="black" cx="3427.55" cy="-306" rx="27" ry="18"/>
<text text-anchor="middle" x="3427.55" y="-302.3" font-family="Times New Roman,serif" font-size="14.00">;</text>
</g>
<!-- n70&#45;&gt;n75 -->
<g id="edge75" class="edge"><title>n70&#45;&gt;n75</title>
<path fill="none" stroke="black" d="M3275.71,-367.465C3304.94,-357.372 3351.87,-340.632 3391.55,-324 3393.36,-323.238 3395.22,-322.436 3397.09,-321.611"/>
<polygon fill="black" stroke="black" points="3398.72,-324.715 3406.37,-317.383 3395.82,-318.345 3398.72,-324.715"/>
</g>
</g>
</svg>
