<?xml version="1.0" encoding="UTF-8" standalone="no"?>
<!DOCTYPE svg PUBLIC "-//W3C//DTD SVG 1.1//EN"
 "http://www.w3.org/Graphics/SVG/1.1/DTD/svg11.dtd">
<!-- Generated by graphviz version 2.38.0 (20140413.2041)
 -->
<!-- Title: arbolAST Pages: 1 -->
<svg width="3029pt" height="548pt"
 viewBox="0.00 0.00 3029.00 548.00" xmlns="http://www.w3.org/2000/svg" xmlns:xlink="http://www.w3.org/1999/xlink">
<g id="graph0" class="graph" transform="scale(1 1) rotate(0) translate(4 544)">
<title>arbolAST</title>
<polygon fill="white" stroke="none" points="-4,4 -4,-544 3025,-544 3025,4 -4,4"/>
<!-- n0 -->
<g id="node1" class="node"><title>n0</title>
<ellipse fill="none" stroke="black" cx="1773" cy="-522" rx="31.6951" ry="18"/>
<text text-anchor="middle" x="1773" y="-518.3" font-family="Times New Roman,serif" font-size="14.00">RAIZ</text>
</g>
<!-- n1 -->
<g id="node2" class="node"><title>n1</title>
<ellipse fill="none" stroke="black" cx="1773" cy="-450" rx="83.3857" ry="18"/>
<text text-anchor="middle" x="1773" y="-446.3" font-family="Times New Roman,serif" font-size="14.00">INSTRUCCIONES</text>
</g>
<!-- n0&#45;&gt;n1 -->
<g id="edge1" class="edge"><title>n0&#45;&gt;n1</title>
<path fill="none" stroke="black" d="M1773,-503.697C1773,-495.983 1773,-486.712 1773,-478.112"/>
<polygon fill="black" stroke="black" points="1776.5,-478.104 1773,-468.104 1769.5,-478.104 1776.5,-478.104"/>
</g>
<!-- n2 -->
<g id="node3" class="node"><title>n2</title>
<ellipse fill="none" stroke="black" cx="769" cy="-378" rx="50.0912" ry="18"/>
<text text-anchor="middle" x="769" y="-374.3" font-family="Times New Roman,serif" font-size="14.00">METODO</text>
</g>
<!-- n1&#45;&gt;n2 -->
<g id="edge2" class="edge"><title>n1&#45;&gt;n2</title>
<path fill="none" stroke="black" d="M1695.05,-443.565C1501.02,-430.037 999.631,-395.08 827.8,-383.1"/>
<polygon fill="black" stroke="black" points="827.907,-379.599 817.688,-382.395 827.42,-386.582 827.907,-379.599"/>
</g>
<!-- n61 -->
<g id="node62" class="node"><title>n61</title>
<ellipse fill="none" stroke="black" cx="2814" cy="-378" rx="34.394" ry="18"/>
<text text-anchor="middle" x="2814" y="-374.3" font-family="Times New Roman,serif" font-size="14.00">EXEC</text>
</g>
<!-- n1&#45;&gt;n61 -->
<g id="edge61" class="edge"><title>n1&#45;&gt;n61</title>
<path fill="none" stroke="black" d="M1851.24,-443.739C2057.14,-429.894 2609.18,-392.773 2769.67,-381.981"/>
<polygon fill="black" stroke="black" points="2769.92,-385.472 2779.67,-381.309 2769.45,-378.488 2769.92,-385.472"/>
</g>
<!-- n3 -->
<g id="node4" class="node"><title>n3</title>
<ellipse fill="none" stroke="black" cx="378" cy="-306" rx="27" ry="18"/>
<text text-anchor="middle" x="378" y="-302.3" font-family="Times New Roman,serif" font-size="14.00">void</text>
</g>
<!-- n2&#45;&gt;n3 -->
<g id="edge3" class="edge"><title>n2&#45;&gt;n3</title>
<path fill="none" stroke="black" d="M719.774,-374.21C650.307,-369.255 520.139,-356.216 414,-324 412.065,-323.413 410.103,-322.738 408.144,-322.003"/>
<polygon fill="black" stroke="black" points="409.103,-318.609 398.528,-317.956 406.388,-325.061 409.103,-318.609"/>
</g>
<!-- n4 -->
<g id="node5" class="node"><title>n4</title>
<ellipse fill="none" stroke="black" cx="450" cy="-306" rx="27" ry="18"/>
<text text-anchor="middle" x="450" y="-302.3" font-family="Times New Roman,serif" font-size="14.00">eje</text>
</g>
<!-- n2&#45;&gt;n4 -->
<g id="edge4" class="edge"><title>n2&#45;&gt;n4</title>
<path fill="none" stroke="black" d="M721.764,-371.907C664.825,-364.917 566.725,-350.14 486,-324 484.077,-323.377 482.123,-322.675 480.171,-321.919"/>
<polygon fill="black" stroke="black" points="481.142,-318.528 470.571,-317.818 478.392,-324.965 481.142,-318.528"/>
</g>
<!-- n5 -->
<g id="node6" class="node"><title>n5</title>
<ellipse fill="none" stroke="black" cx="522" cy="-306" rx="27" ry="18"/>
<text text-anchor="middle" x="522" y="-302.3" font-family="Times New Roman,serif" font-size="14.00">(</text>
</g>
<!-- n2&#45;&gt;n5 -->
<g id="edge5" class="edge"><title>n2&#45;&gt;n5</title>
<path fill="none" stroke="black" d="M725.837,-368.737C682.67,-359.876 614.721,-344.297 558,-324 556.145,-323.336 554.257,-322.61 552.367,-321.842"/>
<polygon fill="black" stroke="black" points="553.595,-318.56 543.03,-317.77 550.796,-324.976 553.595,-318.56"/>
</g>
<!-- n6 -->
<g id="node7" class="node"><title>n6</title>
<ellipse fill="none" stroke="black" cx="594" cy="-306" rx="27" ry="18"/>
<text text-anchor="middle" x="594" y="-302.3" font-family="Times New Roman,serif" font-size="14.00">)</text>
</g>
<!-- n2&#45;&gt;n6 -->
<g id="edge6" class="edge"><title>n2&#45;&gt;n6</title>
<path fill="none" stroke="black" d="M734.719,-364.764C706.405,-354.458 665.284,-339.032 630,-324 628.188,-323.228 626.333,-322.417 624.467,-321.586"/>
<polygon fill="black" stroke="black" points="625.747,-318.322 615.198,-317.341 622.833,-324.687 625.747,-318.322"/>
</g>
<!-- n7 -->
<g id="node8" class="node"><title>n7</title>
<ellipse fill="none" stroke="black" cx="666" cy="-306" rx="27" ry="18"/>
<text text-anchor="middle" x="666" y="-302.3" font-family="Times New Roman,serif" font-size="14.00">{</text>
</g>
<!-- n2&#45;&gt;n7 -->
<g id="edge7" class="edge"><title>n2&#45;&gt;n7</title>
<path fill="none" stroke="black" d="M746.651,-361.811C730.729,-350.991 709.266,-336.404 692.483,-324.998"/>
<polygon fill="black" stroke="black" points="694.426,-322.087 684.188,-319.361 690.492,-327.877 694.426,-322.087"/>
</g>
<!-- n8 -->
<g id="node9" class="node"><title>n8</title>
<ellipse fill="none" stroke="black" cx="769" cy="-306" rx="58.4896" ry="18"/>
<text text-anchor="middle" x="769" y="-302.3" font-family="Times New Roman,serif" font-size="14.00">VECTORES</text>
</g>
<!-- n2&#45;&gt;n8 -->
<g id="edge8" class="edge"><title>n2&#45;&gt;n8</title>
<path fill="none" stroke="black" d="M769,-359.697C769,-351.983 769,-342.712 769,-334.112"/>
<polygon fill="black" stroke="black" points="772.5,-334.104 769,-324.104 765.5,-334.104 772.5,-334.104"/>
</g>
<!-- n26 -->
<g id="node27" class="node"><title>n26</title>
<ellipse fill="none" stroke="black" cx="1615" cy="-306" rx="58.4896" ry="18"/>
<text text-anchor="middle" x="1615" y="-302.3" font-family="Times New Roman,serif" font-size="14.00">VECTORES</text>
</g>
<!-- n2&#45;&gt;n26 -->
<g id="edge26" class="edge"><title>n2&#45;&gt;n26</title>
<path fill="none" stroke="black" d="M817.215,-373.011C960.59,-361.147 1384.5,-326.072 1548.85,-312.474"/>
<polygon fill="black" stroke="black" points="1549.61,-315.922 1559.29,-311.61 1549.04,-308.946 1549.61,-315.922"/>
</g>
<!-- n44 -->
<g id="node45" class="node"><title>n44</title>
<ellipse fill="none" stroke="black" cx="2281" cy="-306" rx="75.2868" ry="18"/>
<text text-anchor="middle" x="2281" y="-302.3" font-family="Times New Roman,serif" font-size="14.00">DECLARACION</text>
</g>
<!-- n2&#45;&gt;n44 -->
<g id="edge44" class="edge"><title>n2&#45;&gt;n44</title>
<path fill="none" stroke="black" d="M818.447,-374.711C1037.28,-364.58 1920.02,-323.712 2197.26,-310.877"/>
<polygon fill="black" stroke="black" points="2197.82,-314.355 2207.65,-310.396 2197.5,-307.362 2197.82,-314.355"/>
</g>
<!-- n59 -->
<g id="node60" class="node"><title>n59</title>
<ellipse fill="none" stroke="black" cx="2482" cy="-306" rx="107.482" ry="18"/>
<text text-anchor="middle" x="2482" y="-302.3" font-family="Times New Roman,serif" font-size="14.00">ASIGNACION&#45;VECTOR</text>
</g>
<!-- n2&#45;&gt;n59 -->
<g id="edge59" class="edge"><title>n2&#45;&gt;n59</title>
<path fill="none" stroke="black" d="M819.102,-377.359C1016.29,-378.344 1757.83,-378.024 2365,-324 2375.64,-323.053 2386.8,-321.788 2397.81,-320.374"/>
<polygon fill="black" stroke="black" points="2398.42,-323.824 2407.87,-319.037 2397.5,-316.885 2398.42,-323.824"/>
</g>
<!-- n60 -->
<g id="node61" class="node"><title>n60</title>
<ellipse fill="none" stroke="black" cx="2634" cy="-306" rx="27" ry="18"/>
<text text-anchor="middle" x="2634" y="-302.3" font-family="Times New Roman,serif" font-size="14.00">}</text>
</g>
<!-- n2&#45;&gt;n60 -->
<g id="edge60" class="edge"><title>n2&#45;&gt;n60</title>
<path fill="none" stroke="black" d="M818.937,-376.774C1094.26,-375.365 2420.94,-366.405 2598,-324 2600.18,-323.477 2602.39,-322.812 2604.59,-322.051"/>
<polygon fill="black" stroke="black" points="2606.03,-325.243 2613.97,-318.231 2603.39,-318.759 2606.03,-325.243"/>
</g>
<!-- n9 -->
<g id="node10" class="node"><title>n9</title>
<ellipse fill="none" stroke="black" cx="27" cy="-234" rx="27" ry="18"/>
<text text-anchor="middle" x="27" y="-230.3" font-family="Times New Roman,serif" font-size="14.00">int</text>
</g>
<!-- n8&#45;&gt;n9 -->
<g id="edge9" class="edge"><title>n8&#45;&gt;n9</title>
<path fill="none" stroke="black" d="M727.438,-293.137C719.075,-291.124 710.303,-289.275 702,-288 420.846,-244.822 338.697,-322.024 63,-252 60.8228,-251.447 58.6182,-250.76 56.4282,-249.983"/>
<polygon fill="black" stroke="black" points="57.6308,-246.693 47.0511,-246.127 54.9685,-253.167 57.6308,-246.693"/>
</g>
<!-- n10 -->
<g id="node11" class="node"><title>n10</title>
<ellipse fill="none" stroke="black" cx="99" cy="-234" rx="27" ry="18"/>
<text text-anchor="middle" x="99" y="-230.3" font-family="Times New Roman,serif" font-size="14.00">[</text>
</g>
<!-- n8&#45;&gt;n10 -->
<g id="edge10" class="edge"><title>n8&#45;&gt;n10</title>
<path fill="none" stroke="black" d="M727.431,-293.184C719.068,-291.167 710.298,-289.305 702,-288 452.557,-248.782 379.514,-315.032 135,-252 132.825,-251.439 130.622,-250.747 128.433,-249.965"/>
<polygon fill="black" stroke="black" points="129.637,-246.676 119.058,-246.1 126.969,-253.148 129.637,-246.676"/>
</g>
<!-- n11 -->
<g id="node12" class="node"><title>n11</title>
<ellipse fill="none" stroke="black" cx="171" cy="-234" rx="27" ry="18"/>
<text text-anchor="middle" x="171" y="-230.3" font-family="Times New Roman,serif" font-size="14.00">]</text>
</g>
<!-- n8&#45;&gt;n11 -->
<g id="edge11" class="edge"><title>n8&#45;&gt;n11</title>
<path fill="none" stroke="black" d="M727.421,-293.245C719.059,-291.222 710.292,-289.343 702,-288 484.255,-252.739 420.343,-308.044 207,-252 204.827,-251.429 202.626,-250.729 200.439,-249.943"/>
<polygon fill="black" stroke="black" points="201.646,-246.654 191.067,-246.065 198.969,-253.122 201.646,-246.654"/>
</g>
<!-- n12 -->
<g id="node13" class="node"><title>n12</title>
<ellipse fill="none" stroke="black" cx="254" cy="-234" rx="38.1938" ry="18"/>
<text text-anchor="middle" x="254" y="-230.3" font-family="Times New Roman,serif" font-size="14.00">variable</text>
</g>
<!-- n8&#45;&gt;n12 -->
<g id="edge12" class="edge"><title>n8&#45;&gt;n12</title>
<path fill="none" stroke="black" d="M727.044,-293.269C718.792,-291.27 710.162,-289.393 702,-288 525.611,-257.901 475.692,-290.753 301,-252 297.964,-251.326 294.856,-250.508 291.757,-249.599"/>
<polygon fill="black" stroke="black" points="292.575,-246.186 281.984,-246.451 290.429,-252.849 292.575,-246.186"/>
</g>
<!-- n13 -->
<g id="node14" class="node"><title>n13</title>
<ellipse fill="none" stroke="black" cx="337" cy="-234" rx="27" ry="18"/>
<text text-anchor="middle" x="337" y="-230.3" font-family="Times New Roman,serif" font-size="14.00">=</text>
</g>
<!-- n8&#45;&gt;n13 -->
<g id="edge13" class="edge"><title>n8&#45;&gt;n13</title>
<path fill="none" stroke="black" d="M727.022,-293.396C718.772,-291.386 710.148,-289.472 702,-288 557.248,-261.848 514.565,-291.955 373,-252 371.054,-251.451 369.083,-250.805 367.118,-250.092"/>
<polygon fill="black" stroke="black" points="368.063,-246.696 357.485,-246.103 365.385,-253.163 368.063,-246.696"/>
</g>
<!-- n14 -->
<g id="node15" class="node"><title>n14</title>
<ellipse fill="none" stroke="black" cx="409" cy="-234" rx="27" ry="18"/>
<text text-anchor="middle" x="409" y="-230.3" font-family="Times New Roman,serif" font-size="14.00">{</text>
</g>
<!-- n8&#45;&gt;n14 -->
<g id="edge14" class="edge"><title>n8&#45;&gt;n14</title>
<path fill="none" stroke="black" d="M726.626,-293.504C718.488,-291.508 710.008,-289.572 702,-288 588.822,-265.784 555.516,-285 445,-252 443.063,-251.422 441.098,-250.753 439.138,-250.023"/>
<polygon fill="black" stroke="black" points="440.094,-246.629 429.518,-245.99 437.387,-253.084 440.094,-246.629"/>
</g>
<!-- n15 -->
<g id="node16" class="node"><title>n15</title>
<ellipse fill="none" stroke="black" cx="499" cy="-234" rx="45.4919" ry="18"/>
<text text-anchor="middle" x="499" y="-230.3" font-family="Times New Roman,serif" font-size="14.00">NATIVO</text>
</g>
<!-- n8&#45;&gt;n15 -->
<g id="edge15" class="edge"><title>n8&#45;&gt;n15</title>
<path fill="none" stroke="black" d="M725.409,-293.863C717.618,-291.894 709.572,-289.875 702,-288 635.87,-271.622 618.641,-270.239 553,-252 549.631,-251.064 546.155,-250.059 542.668,-249.024"/>
<polygon fill="black" stroke="black" points="543.472,-245.611 532.886,-246.054 541.438,-252.309 543.472,-245.611"/>
</g>
<!-- n17 -->
<g id="node18" class="node"><title>n17</title>
<ellipse fill="none" stroke="black" cx="589" cy="-234" rx="27" ry="18"/>
<text text-anchor="middle" x="589" y="-230.3" font-family="Times New Roman,serif" font-size="14.00">,</text>
</g>
<!-- n8&#45;&gt;n17 -->
<g id="edge17" class="edge"><title>n8&#45;&gt;n17</title>
<path fill="none" stroke="black" d="M731.352,-292.17C702.09,-281.953 660.624,-266.933 625,-252 623.183,-251.238 621.325,-250.436 619.457,-249.611"/>
<polygon fill="black" stroke="black" points="620.731,-246.345 610.18,-245.383 617.828,-252.715 620.731,-246.345"/>
</g>
<!-- n18 -->
<g id="node19" class="node"><title>n18</title>
<ellipse fill="none" stroke="black" cx="679" cy="-234" rx="45.4919" ry="18"/>
<text text-anchor="middle" x="679" y="-230.3" font-family="Times New Roman,serif" font-size="14.00">NATIVO</text>
</g>
<!-- n8&#45;&gt;n18 -->
<g id="edge18" class="edge"><title>n8&#45;&gt;n18</title>
<path fill="none" stroke="black" d="M748.578,-289.116C736.208,-279.495 720.265,-267.095 706.762,-256.593"/>
<polygon fill="black" stroke="black" points="708.765,-253.717 698.723,-250.34 704.468,-259.242 708.765,-253.717"/>
</g>
<!-- n20 -->
<g id="node21" class="node"><title>n20</title>
<ellipse fill="none" stroke="black" cx="769" cy="-234" rx="27" ry="18"/>
<text text-anchor="middle" x="769" y="-230.3" font-family="Times New Roman,serif" font-size="14.00">,</text>
</g>
<!-- n8&#45;&gt;n20 -->
<g id="edge20" class="edge"><title>n8&#45;&gt;n20</title>
<path fill="none" stroke="black" d="M769,-287.697C769,-279.983 769,-270.712 769,-262.112"/>
<polygon fill="black" stroke="black" points="772.5,-262.104 769,-252.104 765.5,-262.104 772.5,-262.104"/>
</g>
<!-- n21 -->
<g id="node22" class="node"><title>n21</title>
<ellipse fill="none" stroke="black" cx="859" cy="-234" rx="45.4919" ry="18"/>
<text text-anchor="middle" x="859" y="-230.3" font-family="Times New Roman,serif" font-size="14.00">NATIVO</text>
</g>
<!-- n8&#45;&gt;n21 -->
<g id="edge21" class="edge"><title>n8&#45;&gt;n21</title>
<path fill="none" stroke="black" d="M789.422,-289.116C801.792,-279.495 817.735,-267.095 831.238,-256.593"/>
<polygon fill="black" stroke="black" points="833.532,-259.242 839.277,-250.34 829.235,-253.717 833.532,-259.242"/>
</g>
<!-- n23 -->
<g id="node24" class="node"><title>n23</title>
<ellipse fill="none" stroke="black" cx="949" cy="-234" rx="27" ry="18"/>
<text text-anchor="middle" x="949" y="-230.3" font-family="Times New Roman,serif" font-size="14.00">,</text>
</g>
<!-- n8&#45;&gt;n23 -->
<g id="edge23" class="edge"><title>n8&#45;&gt;n23</title>
<path fill="none" stroke="black" d="M806.648,-292.17C835.91,-281.953 877.376,-266.933 913,-252 914.817,-251.238 916.675,-250.436 918.543,-249.611"/>
<polygon fill="black" stroke="black" points="920.172,-252.715 927.82,-245.383 917.269,-246.345 920.172,-252.715"/>
</g>
<!-- n24 -->
<g id="node25" class="node"><title>n24</title>
<ellipse fill="none" stroke="black" cx="1021" cy="-234" rx="27" ry="18"/>
<text text-anchor="middle" x="1021" y="-230.3" font-family="Times New Roman,serif" font-size="14.00">}</text>
</g>
<!-- n8&#45;&gt;n24 -->
<g id="edge24" class="edge"><title>n8&#45;&gt;n24</title>
<path fill="none" stroke="black" d="M817.856,-295.931C862.177,-287.022 928.959,-271.88 985,-252 986.905,-251.324 988.845,-250.581 990.787,-249.794"/>
<polygon fill="black" stroke="black" points="992.596,-252.823 1000.36,-245.613 989.794,-246.409 992.596,-252.823"/>
</g>
<!-- n25 -->
<g id="node26" class="node"><title>n25</title>
<ellipse fill="none" stroke="black" cx="1093" cy="-234" rx="27" ry="18"/>
<text text-anchor="middle" x="1093" y="-230.3" font-family="Times New Roman,serif" font-size="14.00">;</text>
</g>
<!-- n8&#45;&gt;n25 -->
<g id="edge25" class="edge"><title>n8&#45;&gt;n25</title>
<path fill="none" stroke="black" d="M823.371,-299.256C882.055,-292.079 977.759,-277.522 1057,-252 1058.92,-251.38 1060.88,-250.68 1062.83,-249.926"/>
<polygon fill="black" stroke="black" points="1064.61,-252.974 1072.43,-245.83 1061.86,-246.535 1064.61,-252.974"/>
</g>
<!-- n16 -->
<g id="node17" class="node"><title>n16</title>
<ellipse fill="none" stroke="black" cx="499" cy="-162" rx="27" ry="18"/>
<text text-anchor="middle" x="499" y="-158.3" font-family="Times New Roman,serif" font-size="14.00">3</text>
</g>
<!-- n15&#45;&gt;n16 -->
<g id="edge16" class="edge"><title>n15&#45;&gt;n16</title>
<path fill="none" stroke="black" d="M499,-215.697C499,-207.983 499,-198.712 499,-190.112"/>
<polygon fill="black" stroke="black" points="502.5,-190.104 499,-180.104 495.5,-190.104 502.5,-190.104"/>
</g>
<!-- n19 -->
<g id="node20" class="node"><title>n19</title>
<ellipse fill="none" stroke="black" cx="679" cy="-162" rx="27" ry="18"/>
<text text-anchor="middle" x="679" y="-158.3" font-family="Times New Roman,serif" font-size="14.00">123</text>
</g>
<!-- n18&#45;&gt;n19 -->
<g id="edge19" class="edge"><title>n18&#45;&gt;n19</title>
<path fill="none" stroke="black" d="M679,-215.697C679,-207.983 679,-198.712 679,-190.112"/>
<polygon fill="black" stroke="black" points="682.5,-190.104 679,-180.104 675.5,-190.104 682.5,-190.104"/>
</g>
<!-- n22 -->
<g id="node23" class="node"><title>n22</title>
<ellipse fill="none" stroke="black" cx="859" cy="-162" rx="27" ry="18"/>
<text text-anchor="middle" x="859" y="-158.3" font-family="Times New Roman,serif" font-size="14.00">6</text>
</g>
<!-- n21&#45;&gt;n22 -->
<g id="edge22" class="edge"><title>n21&#45;&gt;n22</title>
<path fill="none" stroke="black" d="M859,-215.697C859,-207.983 859,-198.712 859,-190.112"/>
<polygon fill="black" stroke="black" points="862.5,-190.104 859,-180.104 855.5,-190.104 862.5,-190.104"/>
</g>
<!-- n27 -->
<g id="node28" class="node"><title>n27</title>
<ellipse fill="none" stroke="black" cx="1165" cy="-234" rx="27" ry="18"/>
<text text-anchor="middle" x="1165" y="-230.3" font-family="Times New Roman,serif" font-size="14.00">int</text>
</g>
<!-- n26&#45;&gt;n27 -->
<g id="edge27" class="edge"><title>n26&#45;&gt;n27</title>
<path fill="none" stroke="black" d="M1556.92,-303.281C1475.74,-299.601 1324.46,-288.07 1201,-252 1199.06,-251.433 1197.09,-250.774 1195.13,-250.05"/>
<polygon fill="black" stroke="black" points="1196.08,-246.655 1185.5,-246.034 1193.39,-253.115 1196.08,-246.655"/>
</g>
<!-- n28 -->
<g id="node29" class="node"><title>n28</title>
<ellipse fill="none" stroke="black" cx="1237" cy="-234" rx="27" ry="18"/>
<text text-anchor="middle" x="1237" y="-230.3" font-family="Times New Roman,serif" font-size="14.00">[</text>
</g>
<!-- n26&#45;&gt;n28 -->
<g id="edge28" class="edge"><title>n26&#45;&gt;n28</title>
<path fill="none" stroke="black" d="M1558.51,-301.236C1489.78,-295.526 1370.8,-281.982 1273,-252 1271.07,-251.407 1269.11,-250.728 1267.15,-249.99"/>
<polygon fill="black" stroke="black" points="1268.11,-246.597 1257.53,-245.935 1265.39,-253.047 1268.11,-246.597"/>
</g>
<!-- n29 -->
<g id="node30" class="node"><title>n29</title>
<ellipse fill="none" stroke="black" cx="1309" cy="-234" rx="27" ry="18"/>
<text text-anchor="middle" x="1309" y="-230.3" font-family="Times New Roman,serif" font-size="14.00">]</text>
</g>
<!-- n26&#45;&gt;n29 -->
<g id="edge29" class="edge"><title>n26&#45;&gt;n29</title>
<path fill="none" stroke="black" d="M1561.75,-298.512C1506.57,-290.875 1418.29,-276.085 1345,-252 1343.08,-251.369 1341.13,-250.66 1339.18,-249.899"/>
<polygon fill="black" stroke="black" points="1340.15,-246.509 1329.58,-245.786 1337.39,-252.943 1340.15,-246.509"/>
</g>
<!-- n30 -->
<g id="node31" class="node"><title>n30</title>
<ellipse fill="none" stroke="black" cx="1381" cy="-234" rx="27" ry="18"/>
<text text-anchor="middle" x="1381" y="-230.3" font-family="Times New Roman,serif" font-size="14.00">var1</text>
</g>
<!-- n26&#45;&gt;n30 -->
<g id="edge30" class="edge"><title>n26&#45;&gt;n30</title>
<path fill="none" stroke="black" d="M1568.26,-294.991C1527.67,-285.71 1467.62,-270.555 1417,-252 1415.15,-251.322 1413.27,-250.584 1411.38,-249.809"/>
<polygon fill="black" stroke="black" points="1412.61,-246.528 1402.05,-245.713 1409.8,-252.938 1412.61,-246.528"/>
</g>
<!-- n31 -->
<g id="node32" class="node"><title>n31</title>
<ellipse fill="none" stroke="black" cx="1453" cy="-234" rx="27" ry="18"/>
<text text-anchor="middle" x="1453" y="-230.3" font-family="Times New Roman,serif" font-size="14.00">=</text>
</g>
<!-- n26&#45;&gt;n31 -->
<g id="edge31" class="edge"><title>n26&#45;&gt;n31</title>
<path fill="none" stroke="black" d="M1581.14,-291.219C1555.67,-280.745 1519.99,-265.828 1489,-252 1487.2,-251.197 1485.36,-250.363 1483.5,-249.513"/>
<polygon fill="black" stroke="black" points="1484.79,-246.256 1474.25,-245.22 1481.85,-252.605 1484.79,-246.256"/>
</g>
<!-- n32 -->
<g id="node33" class="node"><title>n32</title>
<ellipse fill="none" stroke="black" cx="1525" cy="-234" rx="27" ry="18"/>
<text text-anchor="middle" x="1525" y="-230.3" font-family="Times New Roman,serif" font-size="14.00">{</text>
</g>
<!-- n26&#45;&gt;n32 -->
<g id="edge32" class="edge"><title>n26&#45;&gt;n32</title>
<path fill="none" stroke="black" d="M1594.58,-289.116C1581.44,-278.894 1564.26,-265.534 1550.26,-254.647"/>
<polygon fill="black" stroke="black" points="1552.06,-251.614 1542.02,-248.237 1547.76,-257.139 1552.06,-251.614"/>
</g>
<!-- n33 -->
<g id="node34" class="node"><title>n33</title>
<ellipse fill="none" stroke="black" cx="1615" cy="-234" rx="45.4919" ry="18"/>
<text text-anchor="middle" x="1615" y="-230.3" font-family="Times New Roman,serif" font-size="14.00">NATIVO</text>
</g>
<!-- n26&#45;&gt;n33 -->
<g id="edge33" class="edge"><title>n26&#45;&gt;n33</title>
<path fill="none" stroke="black" d="M1615,-287.697C1615,-279.983 1615,-270.712 1615,-262.112"/>
<polygon fill="black" stroke="black" points="1618.5,-262.104 1615,-252.104 1611.5,-262.104 1618.5,-262.104"/>
</g>
<!-- n35 -->
<g id="node36" class="node"><title>n35</title>
<ellipse fill="none" stroke="black" cx="1705" cy="-234" rx="27" ry="18"/>
<text text-anchor="middle" x="1705" y="-230.3" font-family="Times New Roman,serif" font-size="14.00">,</text>
</g>
<!-- n26&#45;&gt;n35 -->
<g id="edge35" class="edge"><title>n26&#45;&gt;n35</title>
<path fill="none" stroke="black" d="M1635.42,-289.116C1648.56,-278.894 1665.74,-265.534 1679.74,-254.647"/>
<polygon fill="black" stroke="black" points="1682.24,-257.139 1687.98,-248.237 1677.94,-251.614 1682.24,-257.139"/>
</g>
<!-- n36 -->
<g id="node37" class="node"><title>n36</title>
<ellipse fill="none" stroke="black" cx="1795" cy="-234" rx="45.4919" ry="18"/>
<text text-anchor="middle" x="1795" y="-230.3" font-family="Times New Roman,serif" font-size="14.00">NATIVO</text>
</g>
<!-- n26&#45;&gt;n36 -->
<g id="edge36" class="edge"><title>n26&#45;&gt;n36</title>
<path fill="none" stroke="black" d="M1649.71,-291.503C1679.61,-279.874 1722.81,-263.073 1754.33,-250.816"/>
<polygon fill="black" stroke="black" points="1755.66,-254.055 1763.71,-247.168 1753.12,-247.531 1755.66,-254.055"/>
</g>
<!-- n38 -->
<g id="node39" class="node"><title>n38</title>
<ellipse fill="none" stroke="black" cx="1885" cy="-234" rx="27" ry="18"/>
<text text-anchor="middle" x="1885" y="-230.3" font-family="Times New Roman,serif" font-size="14.00">,</text>
</g>
<!-- n26&#45;&gt;n38 -->
<g id="edge38" class="edge"><title>n26&#45;&gt;n38</title>
<path fill="none" stroke="black" d="M1665.64,-296.832C1713.64,-288.322 1787.37,-273.245 1849,-252 1850.91,-251.341 1852.86,-250.611 1854.8,-249.834"/>
<polygon fill="black" stroke="black" points="1856.6,-252.869 1864.38,-245.679 1853.82,-246.447 1856.6,-252.869"/>
</g>
<!-- n39 -->
<g id="node40" class="node"><title>n39</title>
<ellipse fill="none" stroke="black" cx="1975" cy="-234" rx="45.4919" ry="18"/>
<text text-anchor="middle" x="1975" y="-230.3" font-family="Times New Roman,serif" font-size="14.00">NATIVO</text>
</g>
<!-- n26&#45;&gt;n39 -->
<g id="edge39" class="edge"><title>n26&#45;&gt;n39</title>
<path fill="none" stroke="black" d="M1667.69,-298.057C1729.01,-289.474 1833.11,-273.345 1921,-252 1924.55,-251.137 1928.21,-250.167 1931.87,-249.138"/>
<polygon fill="black" stroke="black" points="1932.88,-252.488 1941.49,-246.311 1930.91,-245.772 1932.88,-252.488"/>
</g>
<!-- n41 -->
<g id="node42" class="node"><title>n41</title>
<ellipse fill="none" stroke="black" cx="2065" cy="-234" rx="27" ry="18"/>
<text text-anchor="middle" x="2065" y="-230.3" font-family="Times New Roman,serif" font-size="14.00">,</text>
</g>
<!-- n26&#45;&gt;n41 -->
<g id="edge41" class="edge"><title>n26&#45;&gt;n41</title>
<path fill="none" stroke="black" d="M1673.08,-303.281C1754.26,-299.601 1905.54,-288.07 2029,-252 2030.94,-251.433 2032.91,-250.774 2034.87,-250.05"/>
<polygon fill="black" stroke="black" points="2036.61,-253.115 2044.5,-246.034 2033.92,-246.655 2036.61,-253.115"/>
</g>
<!-- n42 -->
<g id="node43" class="node"><title>n42</title>
<ellipse fill="none" stroke="black" cx="2137" cy="-234" rx="27" ry="18"/>
<text text-anchor="middle" x="2137" y="-230.3" font-family="Times New Roman,serif" font-size="14.00">}</text>
</g>
<!-- n26&#45;&gt;n42 -->
<g id="edge42" class="edge"><title>n26&#45;&gt;n42</title>
<path fill="none" stroke="black" d="M1673.41,-304.834C1765.89,-303.202 1950.9,-294.335 2101,-252 2102.95,-251.451 2104.92,-250.806 2106.88,-250.093"/>
<polygon fill="black" stroke="black" points="2108.61,-253.164 2116.52,-246.105 2105.94,-246.697 2108.61,-253.164"/>
</g>
<!-- n43 -->
<g id="node44" class="node"><title>n43</title>
<ellipse fill="none" stroke="black" cx="2209" cy="-234" rx="27" ry="18"/>
<text text-anchor="middle" x="2209" y="-230.3" font-family="Times New Roman,serif" font-size="14.00">;</text>
</g>
<!-- n26&#45;&gt;n43 -->
<g id="edge43" class="edge"><title>n26&#45;&gt;n43</title>
<path fill="none" stroke="black" d="M1672.25,-302.075C1794.96,-295.396 2079.75,-277.602 2173,-252 2174.95,-251.465 2176.92,-250.83 2178.89,-250.125"/>
<polygon fill="black" stroke="black" points="2180.62,-253.2 2188.53,-246.157 2177.95,-246.727 2180.62,-253.2"/>
</g>
<!-- n34 -->
<g id="node35" class="node"><title>n34</title>
<ellipse fill="none" stroke="black" cx="1615" cy="-162" rx="27" ry="18"/>
<text text-anchor="middle" x="1615" y="-158.3" font-family="Times New Roman,serif" font-size="14.00">4</text>
</g>
<!-- n33&#45;&gt;n34 -->
<g id="edge34" class="edge"><title>n33&#45;&gt;n34</title>
<path fill="none" stroke="black" d="M1615,-215.697C1615,-207.983 1615,-198.712 1615,-190.112"/>
<polygon fill="black" stroke="black" points="1618.5,-190.104 1615,-180.104 1611.5,-190.104 1618.5,-190.104"/>
</g>
<!-- n37 -->
<g id="node38" class="node"><title>n37</title>
<ellipse fill="none" stroke="black" cx="1795" cy="-162" rx="27" ry="18"/>
<text text-anchor="middle" x="1795" y="-158.3" font-family="Times New Roman,serif" font-size="14.00">1</text>
</g>
<!-- n36&#45;&gt;n37 -->
<g id="edge37" class="edge"><title>n36&#45;&gt;n37</title>
<path fill="none" stroke="black" d="M1795,-215.697C1795,-207.983 1795,-198.712 1795,-190.112"/>
<polygon fill="black" stroke="black" points="1798.5,-190.104 1795,-180.104 1791.5,-190.104 1798.5,-190.104"/>
</g>
<!-- n40 -->
<g id="node41" class="node"><title>n40</title>
<ellipse fill="none" stroke="black" cx="1975" cy="-162" rx="27" ry="18"/>
<text text-anchor="middle" x="1975" y="-158.3" font-family="Times New Roman,serif" font-size="14.00">21</text>
</g>
<!-- n39&#45;&gt;n40 -->
<g id="edge40" class="edge"><title>n39&#45;&gt;n40</title>
<path fill="none" stroke="black" d="M1975,-215.697C1975,-207.983 1975,-198.712 1975,-190.112"/>
<polygon fill="black" stroke="black" points="1978.5,-190.104 1975,-180.104 1971.5,-190.104 1978.5,-190.104"/>
</g>
<!-- n45 -->
<g id="node46" class="node"><title>n45</title>
<ellipse fill="none" stroke="black" cx="2281" cy="-234" rx="27" ry="18"/>
<text text-anchor="middle" x="2281" y="-230.3" font-family="Times New Roman,serif" font-size="14.00">int</text>
</g>
<!-- n44&#45;&gt;n45 -->
<g id="edge45" class="edge"><title>n44&#45;&gt;n45</title>
<path fill="none" stroke="black" d="M2281,-287.697C2281,-279.983 2281,-270.712 2281,-262.112"/>
<polygon fill="black" stroke="black" points="2284.5,-262.104 2281,-252.104 2277.5,-262.104 2284.5,-262.104"/>
</g>
<!-- n46 -->
<g id="node47" class="node"><title>n46</title>
<ellipse fill="none" stroke="black" cx="2353" cy="-234" rx="27" ry="18"/>
<text text-anchor="middle" x="2353" y="-230.3" font-family="Times New Roman,serif" font-size="14.00">a</text>
</g>
<!-- n44&#45;&gt;n46 -->
<g id="edge46" class="edge"><title>n44&#45;&gt;n46</title>
<path fill="none" stroke="black" d="M2298.06,-288.411C2307.83,-278.911 2320.21,-266.882 2330.74,-256.646"/>
<polygon fill="black" stroke="black" points="2333.28,-259.051 2338.01,-249.57 2328.4,-254.032 2333.28,-259.051"/>
</g>
<!-- n47 -->
<g id="node48" class="node"><title>n47</title>
<ellipse fill="none" stroke="black" cx="2425" cy="-234" rx="27" ry="18"/>
<text text-anchor="middle" x="2425" y="-230.3" font-family="Times New Roman,serif" font-size="14.00">=</text>
</g>
<!-- n44&#45;&gt;n47 -->
<g id="edge47" class="edge"><title>n44&#45;&gt;n47</title>
<path fill="none" stroke="black" d="M2312.6,-289.638C2337.01,-277.771 2370.59,-261.452 2394.67,-249.743"/>
<polygon fill="black" stroke="black" points="2396.25,-252.866 2403.72,-245.346 2393.19,-246.57 2396.25,-252.866"/>
</g>
<!-- n48 -->
<g id="node49" class="node"><title>n48</title>
<ellipse fill="none" stroke="black" cx="2557" cy="-234" rx="87.1846" ry="18"/>
<text text-anchor="middle" x="2557" y="-230.3" font-family="Times New Roman,serif" font-size="14.00">ACCESO&#45;VECTOR</text>
</g>
<!-- n44&#45;&gt;n48 -->
<g id="edge48" class="edge"><title>n44&#45;&gt;n48</title>
<path fill="none" stroke="black" d="M2330.66,-292.405C2376.4,-280.805 2444.47,-263.54 2494.01,-250.975"/>
<polygon fill="black" stroke="black" points="2495.14,-254.3 2503.97,-248.449 2493.42,-247.515 2495.14,-254.3"/>
</g>
<!-- n58 -->
<g id="node59" class="node"><title>n58</title>
<ellipse fill="none" stroke="black" cx="2689" cy="-234" rx="27" ry="18"/>
<text text-anchor="middle" x="2689" y="-230.3" font-family="Times New Roman,serif" font-size="14.00">;</text>
</g>
<!-- n44&#45;&gt;n58 -->
<g id="edge58" class="edge"><title>n44&#45;&gt;n58</title>
<path fill="none" stroke="black" d="M2335.76,-293.44C2345.8,-291.495 2356.2,-289.593 2366,-288 2492.89,-267.381 2529.56,-287.895 2653,-252 2654.94,-251.435 2656.91,-250.778 2658.87,-250.056"/>
<polygon fill="black" stroke="black" points="2660.61,-253.122 2668.5,-246.044 2657.92,-246.661 2660.61,-253.122"/>
</g>
<!-- n49 -->
<g id="node50" class="node"><title>n49</title>
<ellipse fill="none" stroke="black" cx="2408" cy="-162" rx="38.1938" ry="18"/>
<text text-anchor="middle" x="2408" y="-158.3" font-family="Times New Roman,serif" font-size="14.00">variable</text>
</g>
<!-- n48&#45;&gt;n49 -->
<g id="edge49" class="edge"><title>n48&#45;&gt;n49</title>
<path fill="none" stroke="black" d="M2523.56,-217.291C2499.78,-206.117 2467.87,-191.128 2443.61,-179.731"/>
<polygon fill="black" stroke="black" points="2444.93,-176.484 2434.39,-175.399 2441.96,-182.819 2444.93,-176.484"/>
</g>
<!-- n50 -->
<g id="node51" class="node"><title>n50</title>
<ellipse fill="none" stroke="black" cx="2491" cy="-162" rx="27" ry="18"/>
<text text-anchor="middle" x="2491" y="-158.3" font-family="Times New Roman,serif" font-size="14.00">[</text>
</g>
<!-- n48&#45;&gt;n50 -->
<g id="edge50" class="edge"><title>n48&#45;&gt;n50</title>
<path fill="none" stroke="black" d="M2541.02,-216.055C2532.35,-206.86 2521.53,-195.375 2512.16,-185.445"/>
<polygon fill="black" stroke="black" points="2514.44,-182.763 2505.04,-177.888 2509.35,-187.565 2514.44,-182.763"/>
</g>
<!-- n51 -->
<g id="node52" class="node"><title>n51</title>
<ellipse fill="none" stroke="black" cx="2623" cy="-162" rx="87.1846" ry="18"/>
<text text-anchor="middle" x="2623" y="-158.3" font-family="Times New Roman,serif" font-size="14.00">ACCESO&#45;VECTOR</text>
</g>
<!-- n48&#45;&gt;n51 -->
<g id="edge51" class="edge"><title>n48&#45;&gt;n51</title>
<path fill="none" stroke="black" d="M2572.98,-216.055C2581.16,-207.371 2591.28,-196.644 2600.26,-187.114"/>
<polygon fill="black" stroke="black" points="2602.86,-189.466 2607.17,-179.789 2597.76,-184.664 2602.86,-189.466"/>
</g>
<!-- n57 -->
<g id="node58" class="node"><title>n57</title>
<ellipse fill="none" stroke="black" cx="2755" cy="-162" rx="27" ry="18"/>
<text text-anchor="middle" x="2755" y="-158.3" font-family="Times New Roman,serif" font-size="14.00">]</text>
</g>
<!-- n48&#45;&gt;n57 -->
<g id="edge57" class="edge"><title>n48&#45;&gt;n57</title>
<path fill="none" stroke="black" d="M2605.41,-218.898C2637.9,-209.01 2681.47,-194.933 2719,-180 2720.83,-179.272 2722.7,-178.495 2724.58,-177.689"/>
<polygon fill="black" stroke="black" points="2726.18,-180.804 2733.87,-173.514 2723.32,-174.418 2726.18,-180.804"/>
</g>
<!-- n52 -->
<g id="node53" class="node"><title>n52</title>
<ellipse fill="none" stroke="black" cx="2506" cy="-90" rx="27" ry="18"/>
<text text-anchor="middle" x="2506" y="-86.3" font-family="Times New Roman,serif" font-size="14.00">var1</text>
</g>
<!-- n51&#45;&gt;n52 -->
<g id="edge52" class="edge"><title>n51&#45;&gt;n52</title>
<path fill="none" stroke="black" d="M2595.86,-144.765C2577.42,-133.727 2553.06,-119.155 2534.36,-107.966"/>
<polygon fill="black" stroke="black" points="2536.06,-104.906 2525.68,-102.776 2532.47,-110.913 2536.06,-104.906"/>
</g>
<!-- n53 -->
<g id="node54" class="node"><title>n53</title>
<ellipse fill="none" stroke="black" cx="2578" cy="-90" rx="27" ry="18"/>
<text text-anchor="middle" x="2578" y="-86.3" font-family="Times New Roman,serif" font-size="14.00">[</text>
</g>
<!-- n51&#45;&gt;n53 -->
<g id="edge53" class="edge"><title>n51&#45;&gt;n53</title>
<path fill="none" stroke="black" d="M2612.11,-144.055C2606.59,-135.469 2599.78,-124.888 2593.71,-115.439"/>
<polygon fill="black" stroke="black" points="2596.53,-113.349 2588.18,-106.829 2590.64,-117.134 2596.53,-113.349"/>
</g>
<!-- n54 -->
<g id="node55" class="node"><title>n54</title>
<ellipse fill="none" stroke="black" cx="2668" cy="-90" rx="45.4919" ry="18"/>
<text text-anchor="middle" x="2668" y="-86.3" font-family="Times New Roman,serif" font-size="14.00">NATIVO</text>
</g>
<!-- n51&#45;&gt;n54 -->
<g id="edge54" class="edge"><title>n51&#45;&gt;n54</title>
<path fill="none" stroke="black" d="M2633.89,-144.055C2639.25,-135.715 2645.83,-125.491 2651.77,-116.252"/>
<polygon fill="black" stroke="black" points="2654.74,-118.093 2657.21,-107.789 2648.86,-114.308 2654.74,-118.093"/>
</g>
<!-- n56 -->
<g id="node57" class="node"><title>n56</title>
<ellipse fill="none" stroke="black" cx="2758" cy="-90" rx="27" ry="18"/>
<text text-anchor="middle" x="2758" y="-86.3" font-family="Times New Roman,serif" font-size="14.00">]</text>
</g>
<!-- n51&#45;&gt;n56 -->
<g id="edge56" class="edge"><title>n51&#45;&gt;n56</title>
<path fill="none" stroke="black" d="M2653.63,-145.116C2675.96,-133.539 2706.05,-117.937 2728.18,-106.46"/>
<polygon fill="black" stroke="black" points="2729.87,-109.528 2737.14,-101.818 2726.65,-103.314 2729.87,-109.528"/>
</g>
<!-- n55 -->
<g id="node56" class="node"><title>n55</title>
<ellipse fill="none" stroke="black" cx="2668" cy="-18" rx="27" ry="18"/>
<text text-anchor="middle" x="2668" y="-14.3" font-family="Times New Roman,serif" font-size="14.00">1</text>
</g>
<!-- n54&#45;&gt;n55 -->
<g id="edge55" class="edge"><title>n54&#45;&gt;n55</title>
<path fill="none" stroke="black" d="M2668,-71.6966C2668,-63.9827 2668,-54.7125 2668,-46.1124"/>
<polygon fill="black" stroke="black" points="2671.5,-46.1043 2668,-36.1043 2664.5,-46.1044 2671.5,-46.1043"/>
</g>
<!-- n62 -->
<g id="node63" class="node"><title>n62</title>
<ellipse fill="none" stroke="black" cx="2706" cy="-306" rx="27.0966" ry="18"/>
<text text-anchor="middle" x="2706" y="-302.3" font-family="Times New Roman,serif" font-size="14.00">exec</text>
</g>
<!-- n61&#45;&gt;n62 -->
<g id="edge62" class="edge"><title>n61&#45;&gt;n62</title>
<path fill="none" stroke="black" d="M2793.18,-363.503C2776.21,-352.51 2752.12,-336.894 2733.56,-324.865"/>
<polygon fill="black" stroke="black" points="2735.25,-321.785 2724.95,-319.283 2731.44,-327.659 2735.25,-321.785"/>
</g>
<!-- n63 -->
<g id="node64" class="node"><title>n63</title>
<ellipse fill="none" stroke="black" cx="2778" cy="-306" rx="27" ry="18"/>
<text text-anchor="middle" x="2778" y="-302.3" font-family="Times New Roman,serif" font-size="14.00">eje</text>
</g>
<!-- n61&#45;&gt;n63 -->
<g id="edge63" class="edge"><title>n61&#45;&gt;n63</title>
<path fill="none" stroke="black" d="M2805.47,-360.411C2801.16,-352.042 2795.85,-341.71 2791.05,-332.37"/>
<polygon fill="black" stroke="black" points="2794.16,-330.762 2786.47,-323.47 2787.93,-333.964 2794.16,-330.762"/>
</g>
<!-- n64 -->
<g id="node65" class="node"><title>n64</title>
<ellipse fill="none" stroke="black" cx="2850" cy="-306" rx="27" ry="18"/>
<text text-anchor="middle" x="2850" y="-302.3" font-family="Times New Roman,serif" font-size="14.00">(</text>
</g>
<!-- n61&#45;&gt;n64 -->
<g id="edge64" class="edge"><title>n61&#45;&gt;n64</title>
<path fill="none" stroke="black" d="M2822.53,-360.411C2826.84,-352.042 2832.15,-341.71 2836.95,-332.37"/>
<polygon fill="black" stroke="black" points="2840.07,-333.964 2841.53,-323.47 2833.84,-330.762 2840.07,-333.964"/>
</g>
<!-- n65 -->
<g id="node66" class="node"><title>n65</title>
<ellipse fill="none" stroke="black" cx="2922" cy="-306" rx="27" ry="18"/>
<text text-anchor="middle" x="2922" y="-302.3" font-family="Times New Roman,serif" font-size="14.00">)</text>
</g>
<!-- n61&#45;&gt;n65 -->
<g id="edge65" class="edge"><title>n61&#45;&gt;n65</title>
<path fill="none" stroke="black" d="M2834.82,-363.503C2851.89,-352.441 2876.18,-336.7 2894.78,-324.641"/>
<polygon fill="black" stroke="black" points="2896.92,-327.429 2903.4,-319.053 2893.11,-321.555 2896.92,-327.429"/>
</g>
<!-- n66 -->
<g id="node67" class="node"><title>n66</title>
<ellipse fill="none" stroke="black" cx="2994" cy="-306" rx="27" ry="18"/>
<text text-anchor="middle" x="2994" y="-302.3" font-family="Times New Roman,serif" font-size="14.00">;</text>
</g>
<!-- n61&#45;&gt;n66 -->
<g id="edge66" class="edge"><title>n61&#45;&gt;n66</title>
<path fill="none" stroke="black" d="M2842.16,-367.465C2871.4,-357.372 2918.32,-340.632 2958,-324 2959.82,-323.238 2961.68,-322.436 2963.54,-321.611"/>
<polygon fill="black" stroke="black" points="2965.17,-324.715 2972.82,-317.383 2962.27,-318.345 2965.17,-324.715"/>
</g>
</g>
</svg>
