<?xml version="1.0" encoding="UTF-8" standalone="no"?>
<!DOCTYPE svg PUBLIC "-//W3C//DTD SVG 1.1//EN"
 "http://www.w3.org/Graphics/SVG/1.1/DTD/svg11.dtd">
<!-- Generated by graphviz version 2.38.0 (20140413.2041)
 -->
<!-- Title: arbolAST Pages: 1 -->
<svg width="1087pt" height="260pt"
 viewBox="0.00 0.00 1087.00 260.00" xmlns="http://www.w3.org/2000/svg" xmlns:xlink="http://www.w3.org/1999/xlink">
<g id="graph0" class="graph" transform="scale(1 1) rotate(0) translate(4 256)">
<title>arbolAST</title>
<polygon fill="white" stroke="none" points="-4,4 -4,-256 1083,-256 1083,4 -4,4"/>
<!-- n0 -->
<g id="node1" class="node"><title>n0</title>
<ellipse fill="none" stroke="black" cx="580" cy="-234" rx="31.6951" ry="18"/>
<text text-anchor="middle" x="580" y="-230.3" font-family="Times New Roman,serif" font-size="14.00">RAIZ</text>
</g>
<!-- n1 -->
<g id="node2" class="node"><title>n1</title>
<ellipse fill="none" stroke="black" cx="580" cy="-162" rx="83.3857" ry="18"/>
<text text-anchor="middle" x="580" y="-158.3" font-family="Times New Roman,serif" font-size="14.00">INSTRUCCIONES</text>
</g>
<!-- n0&#45;&gt;n1 -->
<g id="edge1" class="edge"><title>n0&#45;&gt;n1</title>
<path fill="none" stroke="black" d="M580,-215.697C580,-207.983 580,-198.712 580,-190.112"/>
<polygon fill="black" stroke="black" points="583.5,-190.104 580,-180.104 576.5,-190.104 583.5,-190.104"/>
</g>
<!-- n2 -->
<g id="node3" class="node"><title>n2</title>
<ellipse fill="none" stroke="black" cx="333" cy="-90" rx="50.0912" ry="18"/>
<text text-anchor="middle" x="333" y="-86.3" font-family="Times New Roman,serif" font-size="14.00">METODO</text>
</g>
<!-- n1&#45;&gt;n2 -->
<g id="edge2" class="edge"><title>n1&#45;&gt;n2</title>
<path fill="none" stroke="black" d="M531.495,-147.254C487.961,-134.916 424.418,-116.908 381.031,-104.612"/>
<polygon fill="black" stroke="black" points="381.853,-101.207 371.277,-101.848 379.944,-107.942 381.853,-101.207"/>
</g>
<!-- n11 -->
<g id="node12" class="node"><title>n11</title>
<ellipse fill="none" stroke="black" cx="867" cy="-90" rx="34.394" ry="18"/>
<text text-anchor="middle" x="867" y="-86.3" font-family="Times New Roman,serif" font-size="14.00">EXEC</text>
</g>
<!-- n1&#45;&gt;n11 -->
<g id="edge11" class="edge"><title>n1&#45;&gt;n11</title>
<path fill="none" stroke="black" d="M632.975,-148.079C688.888,-134.442 775.794,-113.245 826.479,-100.883"/>
<polygon fill="black" stroke="black" points="827.531,-104.229 836.417,-98.4592 825.873,-97.4285 827.531,-104.229"/>
</g>
<!-- n3 -->
<g id="node4" class="node"><title>n3</title>
<ellipse fill="none" stroke="black" cx="27" cy="-18" rx="27" ry="18"/>
<text text-anchor="middle" x="27" y="-14.3" font-family="Times New Roman,serif" font-size="14.00">void</text>
</g>
<!-- n2&#45;&gt;n3 -->
<g id="edge3" class="edge"><title>n2&#45;&gt;n3</title>
<path fill="none" stroke="black" d="M286.248,-83.3992C231.695,-76.0504 139.242,-61.0548 63,-36 61.0793,-35.3688 59.1276,-34.66 57.177,-33.8994"/>
<polygon fill="black" stroke="black" points="58.1521,-30.5094 47.582,-29.786 55.3939,-36.9431 58.1521,-30.5094"/>
</g>
<!-- n4 -->
<g id="node5" class="node"><title>n4</title>
<ellipse fill="none" stroke="black" cx="108" cy="-18" rx="35.9954" ry="18"/>
<text text-anchor="middle" x="108" y="-14.3" font-family="Times New Roman,serif" font-size="14.00">prueba</text>
</g>
<!-- n2&#45;&gt;n4 -->
<g id="edge4" class="edge"><title>n2&#45;&gt;n4</title>
<path fill="none" stroke="black" d="M294.115,-78.4578C257.48,-68.3123 201.179,-52.1682 153,-36 150.417,-35.1332 147.761,-34.2111 145.094,-33.2621"/>
<polygon fill="black" stroke="black" points="146.083,-29.8973 135.489,-29.7574 143.683,-36.4732 146.083,-29.8973"/>
</g>
<!-- n5 -->
<g id="node6" class="node"><title>n5</title>
<ellipse fill="none" stroke="black" cx="189" cy="-18" rx="27" ry="18"/>
<text text-anchor="middle" x="189" y="-14.3" font-family="Times New Roman,serif" font-size="14.00">(</text>
</g>
<!-- n2&#45;&gt;n5 -->
<g id="edge5" class="edge"><title>n2&#45;&gt;n5</title>
<path fill="none" stroke="black" d="M304.55,-75.1703C279.984,-63.2286 244.584,-46.0202 219.452,-33.803"/>
<polygon fill="black" stroke="black" points="220.89,-30.6106 210.366,-29.3864 217.83,-36.9062 220.89,-30.6106"/>
</g>
<!-- n6 -->
<g id="node7" class="node"><title>n6</title>
<ellipse fill="none" stroke="black" cx="261" cy="-18" rx="27" ry="18"/>
<text text-anchor="middle" x="261" y="-14.3" font-family="Times New Roman,serif" font-size="14.00">)</text>
</g>
<!-- n2&#45;&gt;n6 -->
<g id="edge6" class="edge"><title>n2&#45;&gt;n6</title>
<path fill="none" stroke="black" d="M316.301,-72.7646C306.406,-63.1447 293.749,-50.8396 283.042,-40.4296"/>
<polygon fill="black" stroke="black" points="285.267,-37.7112 275.657,-33.2499 280.387,-42.7302 285.267,-37.7112"/>
</g>
<!-- n7 -->
<g id="node8" class="node"><title>n7</title>
<ellipse fill="none" stroke="black" cx="333" cy="-18" rx="27" ry="18"/>
<text text-anchor="middle" x="333" y="-14.3" font-family="Times New Roman,serif" font-size="14.00">{</text>
</g>
<!-- n2&#45;&gt;n7 -->
<g id="edge7" class="edge"><title>n2&#45;&gt;n7</title>
<path fill="none" stroke="black" d="M333,-71.6966C333,-63.9827 333,-54.7125 333,-46.1124"/>
<polygon fill="black" stroke="black" points="336.5,-46.1043 333,-36.1043 329.5,-46.1044 336.5,-46.1043"/>
</g>
<!-- n8 -->
<g id="node9" class="node"><title>n8</title>
<ellipse fill="none" stroke="black" cx="436" cy="-18" rx="58.4896" ry="18"/>
<text text-anchor="middle" x="436" y="-14.3" font-family="Times New Roman,serif" font-size="14.00">VECTORES</text>
</g>
<!-- n2&#45;&gt;n8 -->
<g id="edge8" class="edge"><title>n2&#45;&gt;n8</title>
<path fill="none" stroke="black" d="M355.349,-73.811C369.727,-64.04 388.624,-51.1974 404.512,-40.3998"/>
<polygon fill="black" stroke="black" points="406.678,-43.1597 412.981,-34.644 402.743,-37.3702 406.678,-43.1597"/>
</g>
<!-- n9 -->
<g id="node10" class="node"><title>n9</title>
<ellipse fill="none" stroke="black" cx="571" cy="-18" rx="58.4896" ry="18"/>
<text text-anchor="middle" x="571" y="-14.3" font-family="Times New Roman,serif" font-size="14.00">VECTORES</text>
</g>
<!-- n2&#45;&gt;n9 -->
<g id="edge9" class="edge"><title>n2&#45;&gt;n9</title>
<path fill="none" stroke="black" d="M370.449,-77.9855C410.854,-66.1016 475.428,-47.1094 520.346,-33.8982"/>
<polygon fill="black" stroke="black" points="521.575,-37.185 530.181,-31.0054 519.6,-30.4694 521.575,-37.185"/>
</g>
<!-- n10 -->
<g id="node11" class="node"><title>n10</title>
<ellipse fill="none" stroke="black" cx="674" cy="-18" rx="27" ry="18"/>
<text text-anchor="middle" x="674" y="-14.3" font-family="Times New Roman,serif" font-size="14.00">}</text>
</g>
<!-- n2&#45;&gt;n10 -->
<g id="edge10" class="edge"><title>n2&#45;&gt;n10</title>
<path fill="none" stroke="black" d="M380.968,-84.6938C441.858,-78.3189 549.614,-63.983 638,-36 639.927,-35.3898 641.884,-34.6971 643.839,-33.9487"/>
<polygon fill="black" stroke="black" points="645.61,-36.9993 653.444,-29.867 642.872,-30.5568 645.61,-36.9993"/>
</g>
<!-- n12 -->
<g id="node13" class="node"><title>n12</title>
<ellipse fill="none" stroke="black" cx="746" cy="-18" rx="27.0966" ry="18"/>
<text text-anchor="middle" x="746" y="-14.3" font-family="Times New Roman,serif" font-size="14.00">exec</text>
</g>
<!-- n11&#45;&gt;n12 -->
<g id="edge12" class="edge"><title>n11&#45;&gt;n12</title>
<path fill="none" stroke="black" d="M844.807,-76.1609C825.106,-64.7641 796.201,-48.0417 774.738,-35.6254"/>
<polygon fill="black" stroke="black" points="776.453,-32.5739 766.044,-30.5959 772.948,-38.633 776.453,-32.5739"/>
</g>
<!-- n13 -->
<g id="node14" class="node"><title>n13</title>
<ellipse fill="none" stroke="black" cx="827" cy="-18" rx="35.9954" ry="18"/>
<text text-anchor="middle" x="827" y="-14.3" font-family="Times New Roman,serif" font-size="14.00">prueba</text>
</g>
<!-- n11&#45;&gt;n13 -->
<g id="edge13" class="edge"><title>n11&#45;&gt;n13</title>
<path fill="none" stroke="black" d="M857.521,-72.411C852.738,-64.0421 846.834,-53.7098 841.497,-44.3698"/>
<polygon fill="black" stroke="black" points="844.412,-42.4159 836.411,-35.4699 838.334,-45.8889 844.412,-42.4159"/>
</g>
<!-- n14 -->
<g id="node15" class="node"><title>n14</title>
<ellipse fill="none" stroke="black" cx="908" cy="-18" rx="27" ry="18"/>
<text text-anchor="middle" x="908" y="-14.3" font-family="Times New Roman,serif" font-size="14.00">(</text>
</g>
<!-- n11&#45;&gt;n14 -->
<g id="edge14" class="edge"><title>n11&#45;&gt;n14</title>
<path fill="none" stroke="black" d="M876.716,-72.411C881.741,-63.8323 887.974,-53.1908 893.551,-43.6695"/>
<polygon fill="black" stroke="black" points="896.602,-45.3859 898.636,-34.9881 890.561,-41.848 896.602,-45.3859"/>
</g>
<!-- n15 -->
<g id="node16" class="node"><title>n15</title>
<ellipse fill="none" stroke="black" cx="980" cy="-18" rx="27" ry="18"/>
<text text-anchor="middle" x="980" y="-14.3" font-family="Times New Roman,serif" font-size="14.00">)</text>
</g>
<!-- n11&#45;&gt;n15 -->
<g id="edge15" class="edge"><title>n11&#45;&gt;n15</title>
<path fill="none" stroke="black" d="M888.254,-75.8335C906.328,-64.6373 932.414,-48.4781 952.154,-36.25"/>
<polygon fill="black" stroke="black" points="954.067,-39.1818 960.725,-30.9402 950.381,-33.2311 954.067,-39.1818"/>
</g>
<!-- n16 -->
<g id="node17" class="node"><title>n16</title>
<ellipse fill="none" stroke="black" cx="1052" cy="-18" rx="27" ry="18"/>
<text text-anchor="middle" x="1052" y="-14.3" font-family="Times New Roman,serif" font-size="14.00">;</text>
</g>
<!-- n11&#45;&gt;n16 -->
<g id="edge16" class="edge"><title>n11&#45;&gt;n16</title>
<path fill="none" stroke="black" d="M895.605,-79.7667C925.839,-69.7897 974.759,-53.0228 1016,-36 1017.82,-35.2484 1019.68,-34.4535 1021.55,-33.6342"/>
<polygon fill="black" stroke="black" points="1023.18,-36.7413 1030.84,-29.4222 1020.28,-30.3668 1023.18,-36.7413"/>
</g>
</g>
</svg>
