<?xml version="1.0" encoding="UTF-8" standalone="no"?>
<!DOCTYPE svg PUBLIC "-//W3C//DTD SVG 1.1//EN"
 "http://www.w3.org/Graphics/SVG/1.1/DTD/svg11.dtd">
<!-- Generated by graphviz version 2.38.0 (20140413.2041)
 -->
<!-- Title: arbolAST Pages: 1 -->
<svg width="1467pt" height="404pt"
 viewBox="0.00 0.00 1467.00 404.00" xmlns="http://www.w3.org/2000/svg" xmlns:xlink="http://www.w3.org/1999/xlink">
<g id="graph0" class="graph" transform="scale(1 1) rotate(0) translate(4 400)">
<title>arbolAST</title>
<polygon fill="white" stroke="none" points="-4,4 -4,-400 1463,-400 1463,4 -4,4"/>
<!-- n0 -->
<g id="node1" class="node"><title>n0</title>
<ellipse fill="none" stroke="black" cx="825" cy="-378" rx="31.6951" ry="18"/>
<text text-anchor="middle" x="825" y="-374.3" font-family="Times New Roman,serif" font-size="14.00">RAIZ</text>
</g>
<!-- n1 -->
<g id="node2" class="node"><title>n1</title>
<ellipse fill="none" stroke="black" cx="825" cy="-306" rx="83.3857" ry="18"/>
<text text-anchor="middle" x="825" y="-302.3" font-family="Times New Roman,serif" font-size="14.00">INSTRUCCIONES</text>
</g>
<!-- n0&#45;&gt;n1 -->
<g id="edge1" class="edge"><title>n0&#45;&gt;n1</title>
<path fill="none" stroke="black" d="M825,-359.697C825,-351.983 825,-342.712 825,-334.112"/>
<polygon fill="black" stroke="black" points="828.5,-334.104 825,-324.104 821.5,-334.104 828.5,-334.104"/>
</g>
<!-- n2 -->
<g id="node3" class="node"><title>n2</title>
<ellipse fill="none" stroke="black" cx="375" cy="-234" rx="50.0912" ry="18"/>
<text text-anchor="middle" x="375" y="-230.3" font-family="Times New Roman,serif" font-size="14.00">METODO</text>
</g>
<!-- n1&#45;&gt;n2 -->
<g id="edge2" class="edge"><title>n1&#45;&gt;n2</title>
<path fill="none" stroke="black" d="M759.566,-294.821C670.645,-280.989 513.22,-256.501 430.043,-243.562"/>
<polygon fill="black" stroke="black" points="430.452,-240.084 420.033,-242.005 429.376,-247.001 430.452,-240.084"/>
</g>
<!-- n29 -->
<g id="node30" class="node"><title>n29</title>
<ellipse fill="none" stroke="black" cx="1252" cy="-234" rx="34.394" ry="18"/>
<text text-anchor="middle" x="1252" y="-230.3" font-family="Times New Roman,serif" font-size="14.00">EXEC</text>
</g>
<!-- n1&#45;&gt;n29 -->
<g id="edge29" class="edge"><title>n1&#45;&gt;n29</title>
<path fill="none" stroke="black" d="M889.389,-294.445C977.838,-279.945 1134.49,-254.265 1209.56,-241.957"/>
<polygon fill="black" stroke="black" points="1210.3,-245.383 1219.6,-240.311 1209.17,-238.475 1210.3,-245.383"/>
</g>
<!-- n3 -->
<g id="node4" class="node"><title>n3</title>
<ellipse fill="none" stroke="black" cx="27" cy="-162" rx="27" ry="18"/>
<text text-anchor="middle" x="27" y="-158.3" font-family="Times New Roman,serif" font-size="14.00">void</text>
</g>
<!-- n2&#45;&gt;n3 -->
<g id="edge3" class="edge"><title>n2&#45;&gt;n3</title>
<path fill="none" stroke="black" d="M326.739,-228.919C264.599,-222.737 153.803,-208.559 63,-180 61.0714,-179.393 59.1136,-178.704 57.1584,-177.957"/>
<polygon fill="black" stroke="black" points="58.1241,-174.565 47.5514,-173.881 55.39,-181.009 58.1241,-174.565"/>
</g>
<!-- n4 -->
<g id="node5" class="node"><title>n4</title>
<ellipse fill="none" stroke="black" cx="99" cy="-162" rx="27" ry="18"/>
<text text-anchor="middle" x="99" y="-158.3" font-family="Times New Roman,serif" font-size="14.00">eje</text>
</g>
<!-- n2&#45;&gt;n4 -->
<g id="edge4" class="edge"><title>n2&#45;&gt;n4</title>
<path fill="none" stroke="black" d="M329.947,-226.152C281.092,-218.015 201.22,-202.628 135,-180 133.087,-179.346 131.141,-178.62 129.195,-177.846"/>
<polygon fill="black" stroke="black" points="130.179,-174.459 119.611,-173.699 127.398,-180.883 130.179,-174.459"/>
</g>
<!-- n5 -->
<g id="node6" class="node"><title>n5</title>
<ellipse fill="none" stroke="black" cx="171" cy="-162" rx="27" ry="18"/>
<text text-anchor="middle" x="171" y="-158.3" font-family="Times New Roman,serif" font-size="14.00">(</text>
</g>
<!-- n2&#45;&gt;n5 -->
<g id="edge5" class="edge"><title>n2&#45;&gt;n5</title>
<path fill="none" stroke="black" d="M336.455,-222.454C302.068,-212.666 250.569,-197.069 207,-180 205.166,-179.281 203.294,-178.512 201.415,-177.712"/>
<polygon fill="black" stroke="black" points="202.669,-174.439 192.111,-173.553 199.812,-180.829 202.669,-174.439"/>
</g>
<!-- n6 -->
<g id="node7" class="node"><title>n6</title>
<ellipse fill="none" stroke="black" cx="243" cy="-162" rx="27" ry="18"/>
<text text-anchor="middle" x="243" y="-158.3" font-family="Times New Roman,serif" font-size="14.00">)</text>
</g>
<!-- n2&#45;&gt;n6 -->
<g id="edge6" class="edge"><title>n2&#45;&gt;n6</title>
<path fill="none" stroke="black" d="M347.969,-218.666C326.058,-207.046 295.219,-190.692 272.637,-178.716"/>
<polygon fill="black" stroke="black" points="273.988,-175.472 263.514,-173.879 270.709,-181.656 273.988,-175.472"/>
</g>
<!-- n7 -->
<g id="node8" class="node"><title>n7</title>
<ellipse fill="none" stroke="black" cx="315" cy="-162" rx="27" ry="18"/>
<text text-anchor="middle" x="315" y="-158.3" font-family="Times New Roman,serif" font-size="14.00">{</text>
</g>
<!-- n2&#45;&gt;n7 -->
<g id="edge7" class="edge"><title>n2&#45;&gt;n7</title>
<path fill="none" stroke="black" d="M360.781,-216.411C352.906,-207.223 343.002,-195.67 334.423,-185.66"/>
<polygon fill="black" stroke="black" points="337.055,-183.353 327.89,-178.038 331.74,-187.909 337.055,-183.353"/>
</g>
<!-- n8 -->
<g id="node9" class="node"><title>n8</title>
<ellipse fill="none" stroke="black" cx="435" cy="-162" rx="75.2868" ry="18"/>
<text text-anchor="middle" x="435" y="-158.3" font-family="Times New Roman,serif" font-size="14.00">DECLARACION</text>
</g>
<!-- n2&#45;&gt;n8 -->
<g id="edge8" class="edge"><title>n2&#45;&gt;n8</title>
<path fill="none" stroke="black" d="M389.219,-216.411C396.583,-207.82 405.721,-197.159 413.891,-187.627"/>
<polygon fill="black" stroke="black" points="416.616,-189.827 420.466,-179.956 411.301,-185.271 416.616,-189.827"/>
</g>
<!-- n15 -->
<g id="node16" class="node"><title>n15</title>
<ellipse fill="none" stroke="black" cx="648" cy="-162" rx="75.2868" ry="18"/>
<text text-anchor="middle" x="648" y="-158.3" font-family="Times New Roman,serif" font-size="14.00">DECLARACION</text>
</g>
<!-- n2&#45;&gt;n15 -->
<g id="edge15" class="edge"><title>n2&#45;&gt;n15</title>
<path fill="none" stroke="black" d="M414.405,-222.896C460.044,-211.194 535.708,-191.793 588.514,-178.253"/>
<polygon fill="black" stroke="black" points="589.608,-181.586 598.425,-175.712 587.869,-174.805 589.608,-181.586"/>
</g>
<!-- n22 -->
<g id="node23" class="node"><title>n22</title>
<ellipse fill="none" stroke="black" cx="959" cy="-162" rx="67.6881" ry="18"/>
<text text-anchor="middle" x="959" y="-158.3" font-family="Times New Roman,serif" font-size="14.00">ASIGNACION</text>
</g>
<!-- n2&#45;&gt;n22 -->
<g id="edge22" class="edge"><title>n2&#45;&gt;n22</title>
<path fill="none" stroke="black" d="M421.804,-227.39C523.98,-215.143 767.513,-185.952 888.414,-171.461"/>
<polygon fill="black" stroke="black" points="889.154,-174.897 898.666,-170.232 888.321,-167.947 889.154,-174.897"/>
</g>
<!-- n28 -->
<g id="node29" class="node"><title>n28</title>
<ellipse fill="none" stroke="black" cx="1072" cy="-162" rx="27" ry="18"/>
<text text-anchor="middle" x="1072" y="-158.3" font-family="Times New Roman,serif" font-size="14.00">}</text>
</g>
<!-- n2&#45;&gt;n28 -->
<g id="edge28" class="edge"><title>n2&#45;&gt;n28</title>
<path fill="none" stroke="black" d="M424.758,-231.328C558.003,-226.481 920.59,-210.775 1036,-180 1037.95,-179.479 1039.93,-178.855 1041.9,-178.159"/>
<polygon fill="black" stroke="black" points="1043.62,-181.239 1051.54,-174.212 1040.96,-174.76 1043.62,-181.239"/>
</g>
<!-- n9 -->
<g id="node10" class="node"><title>n9</title>
<ellipse fill="none" stroke="black" cx="107" cy="-90" rx="30.5947" ry="18"/>
<text text-anchor="middle" x="107" y="-86.3" font-family="Times New Roman,serif" font-size="14.00">string</text>
</g>
<!-- n8&#45;&gt;n9 -->
<g id="edge9" class="edge"><title>n8&#45;&gt;n9</title>
<path fill="none" stroke="black" d="M379.914,-149.647C370.284,-147.721 360.356,-145.772 351,-144 260.541,-126.867 235.269,-134.174 147,-108 144.595,-107.287 142.139,-106.472 139.688,-105.594"/>
<polygon fill="black" stroke="black" points="140.952,-102.33 130.363,-101.977 138.42,-108.857 140.952,-102.33"/>
</g>
<!-- n10 -->
<g id="node11" class="node"><title>n10</title>
<ellipse fill="none" stroke="black" cx="183" cy="-90" rx="27" ry="18"/>
<text text-anchor="middle" x="183" y="-86.3" font-family="Times New Roman,serif" font-size="14.00">dato</text>
</g>
<!-- n8&#45;&gt;n10 -->
<g id="edge10" class="edge"><title>n8&#45;&gt;n10</title>
<path fill="none" stroke="black" d="M381.439,-149.152C327.63,-137.017 248.567,-118.489 219,-108 217.095,-107.324 215.155,-106.581 213.213,-105.794"/>
<polygon fill="black" stroke="black" points="214.206,-102.409 203.641,-101.613 211.404,-108.823 214.206,-102.409"/>
</g>
<!-- n11 -->
<g id="node12" class="node"><title>n11</title>
<ellipse fill="none" stroke="black" cx="255" cy="-90" rx="27" ry="18"/>
<text text-anchor="middle" x="255" y="-86.3" font-family="Times New Roman,serif" font-size="14.00">=</text>
</g>
<!-- n8&#45;&gt;n11 -->
<g id="edge11" class="edge"><title>n8&#45;&gt;n11</title>
<path fill="none" stroke="black" d="M393.658,-146.878C364.669,-136.71 325.15,-122.315 291,-108 289.183,-107.238 287.325,-106.436 285.457,-105.611"/>
<polygon fill="black" stroke="black" points="286.731,-102.345 276.18,-101.383 283.828,-108.715 286.731,-102.345"/>
</g>
<!-- n12 -->
<g id="node13" class="node"><title>n12</title>
<ellipse fill="none" stroke="black" cx="345" cy="-90" rx="45.4919" ry="18"/>
<text text-anchor="middle" x="345" y="-86.3" font-family="Times New Roman,serif" font-size="14.00">NATIVO</text>
</g>
<!-- n8&#45;&gt;n12 -->
<g id="edge12" class="edge"><title>n8&#45;&gt;n12</title>
<path fill="none" stroke="black" d="M413.671,-144.411C401.476,-134.926 386.038,-122.919 372.89,-112.692"/>
<polygon fill="black" stroke="black" points="374.68,-109.651 364.638,-106.274 370.383,-115.176 374.68,-109.651"/>
</g>
<!-- n14 -->
<g id="node15" class="node"><title>n14</title>
<ellipse fill="none" stroke="black" cx="435" cy="-90" rx="27" ry="18"/>
<text text-anchor="middle" x="435" y="-86.3" font-family="Times New Roman,serif" font-size="14.00">;</text>
</g>
<!-- n8&#45;&gt;n14 -->
<g id="edge14" class="edge"><title>n8&#45;&gt;n14</title>
<path fill="none" stroke="black" d="M435,-143.697C435,-135.983 435,-126.712 435,-118.112"/>
<polygon fill="black" stroke="black" points="438.5,-118.104 435,-108.104 431.5,-118.104 438.5,-118.104"/>
</g>
<!-- n13 -->
<g id="node14" class="node"><title>n13</title>
<ellipse fill="none" stroke="black" cx="345" cy="-18" rx="38.1938" ry="18"/>
<text text-anchor="middle" x="345" y="-14.3" font-family="Times New Roman,serif" font-size="14.00">un dato</text>
</g>
<!-- n12&#45;&gt;n13 -->
<g id="edge13" class="edge"><title>n12&#45;&gt;n13</title>
<path fill="none" stroke="black" d="M345,-71.6966C345,-63.9827 345,-54.7125 345,-46.1124"/>
<polygon fill="black" stroke="black" points="348.5,-46.1043 345,-36.1043 341.5,-46.1044 348.5,-46.1043"/>
</g>
<!-- n16 -->
<g id="node17" class="node"><title>n16</title>
<ellipse fill="none" stroke="black" cx="511" cy="-90" rx="30.5947" ry="18"/>
<text text-anchor="middle" x="511" y="-86.3" font-family="Times New Roman,serif" font-size="14.00">string</text>
</g>
<!-- n15&#45;&gt;n16 -->
<g id="edge16" class="edge"><title>n15&#45;&gt;n16</title>
<path fill="none" stroke="black" d="M617.595,-145.465C595.247,-134.046 564.966,-118.574 542.389,-107.038"/>
<polygon fill="black" stroke="black" points="543.728,-103.792 533.23,-102.359 540.543,-110.025 543.728,-103.792"/>
</g>
<!-- n17 -->
<g id="node18" class="node"><title>n17</title>
<ellipse fill="none" stroke="black" cx="603" cy="-90" rx="43.5923" ry="18"/>
<text text-anchor="middle" x="603" y="-86.3" font-family="Times New Roman,serif" font-size="14.00">otroDato</text>
</g>
<!-- n15&#45;&gt;n17 -->
<g id="edge17" class="edge"><title>n15&#45;&gt;n17</title>
<path fill="none" stroke="black" d="M637.107,-144.055C631.745,-135.715 625.173,-125.491 619.233,-116.252"/>
<polygon fill="black" stroke="black" points="622.145,-114.308 613.793,-107.789 616.256,-118.093 622.145,-114.308"/>
</g>
<!-- n18 -->
<g id="node19" class="node"><title>n18</title>
<ellipse fill="none" stroke="black" cx="692" cy="-90" rx="27" ry="18"/>
<text text-anchor="middle" x="692" y="-86.3" font-family="Times New Roman,serif" font-size="14.00">=</text>
</g>
<!-- n15&#45;&gt;n18 -->
<g id="edge18" class="edge"><title>n15&#45;&gt;n18</title>
<path fill="none" stroke="black" d="M658.651,-144.055C664.048,-135.469 670.699,-124.888 676.638,-115.439"/>
<polygon fill="black" stroke="black" points="679.692,-117.158 682.05,-106.829 673.765,-113.433 679.692,-117.158"/>
</g>
<!-- n19 -->
<g id="node20" class="node"><title>n19</title>
<ellipse fill="none" stroke="black" cx="782" cy="-90" rx="45.4919" ry="18"/>
<text text-anchor="middle" x="782" y="-86.3" font-family="Times New Roman,serif" font-size="14.00">NATIVO</text>
</g>
<!-- n15&#45;&gt;n19 -->
<g id="edge19" class="edge"><title>n15&#45;&gt;n19</title>
<path fill="none" stroke="black" d="M678.072,-145.291C698.372,-134.686 725.248,-120.647 746.584,-109.501"/>
<polygon fill="black" stroke="black" points="748.409,-112.496 755.652,-104.764 745.168,-106.292 748.409,-112.496"/>
</g>
<!-- n21 -->
<g id="node22" class="node"><title>n21</title>
<ellipse fill="none" stroke="black" cx="872" cy="-90" rx="27" ry="18"/>
<text text-anchor="middle" x="872" y="-86.3" font-family="Times New Roman,serif" font-size="14.00">;</text>
</g>
<!-- n15&#45;&gt;n21 -->
<g id="edge21" class="edge"><title>n15&#45;&gt;n21</title>
<path fill="none" stroke="black" d="M699.809,-148.868C737.988,-139.334 790.899,-124.872 836,-108 837.845,-107.31 839.725,-106.563 841.61,-105.78"/>
<polygon fill="black" stroke="black" points="843.197,-108.905 850.932,-101.665 840.37,-102.501 843.197,-108.905"/>
</g>
<!-- n20 -->
<g id="node21" class="node"><title>n20</title>
<ellipse fill="none" stroke="black" cx="782" cy="-18" rx="27" ry="18"/>
<text text-anchor="middle" x="782" y="-14.3" font-family="Times New Roman,serif" font-size="14.00">a</text>
</g>
<!-- n19&#45;&gt;n20 -->
<g id="edge20" class="edge"><title>n19&#45;&gt;n20</title>
<path fill="none" stroke="black" d="M782,-71.6966C782,-63.9827 782,-54.7125 782,-46.1124"/>
<polygon fill="black" stroke="black" points="785.5,-46.1043 782,-36.1043 778.5,-46.1044 785.5,-46.1043"/>
</g>
<!-- n23 -->
<g id="node24" class="node"><title>n23</title>
<ellipse fill="none" stroke="black" cx="959" cy="-90" rx="42.4939" ry="18"/>
<text text-anchor="middle" x="959" y="-86.3" font-family="Times New Roman,serif" font-size="14.00">otrodato</text>
</g>
<!-- n22&#45;&gt;n23 -->
<g id="edge23" class="edge"><title>n22&#45;&gt;n23</title>
<path fill="none" stroke="black" d="M959,-143.697C959,-135.983 959,-126.712 959,-118.112"/>
<polygon fill="black" stroke="black" points="962.5,-118.104 959,-108.104 955.5,-118.104 962.5,-118.104"/>
</g>
<!-- n24 -->
<g id="node25" class="node"><title>n24</title>
<ellipse fill="none" stroke="black" cx="1046" cy="-90" rx="27" ry="18"/>
<text text-anchor="middle" x="1046" y="-86.3" font-family="Times New Roman,serif" font-size="14.00">=</text>
</g>
<!-- n22&#45;&gt;n24 -->
<g id="edge24" class="edge"><title>n22&#45;&gt;n24</title>
<path fill="none" stroke="black" d="M979.178,-144.765C991.815,-134.597 1008.18,-121.43 1021.55,-110.671"/>
<polygon fill="black" stroke="black" points="1023.83,-113.327 1029.43,-104.331 1019.45,-107.873 1023.83,-113.327"/>
</g>
<!-- n25 -->
<g id="node26" class="node"><title>n25</title>
<ellipse fill="none" stroke="black" cx="1136" cy="-90" rx="45.4919" ry="18"/>
<text text-anchor="middle" x="1136" y="-86.3" font-family="Times New Roman,serif" font-size="14.00">NATIVO</text>
</g>
<!-- n22&#45;&gt;n25 -->
<g id="edge25" class="edge"><title>n22&#45;&gt;n25</title>
<path fill="none" stroke="black" d="M995.246,-146.666C1024.36,-135.152 1065.23,-118.99 1095.43,-107.045"/>
<polygon fill="black" stroke="black" points="1096.82,-110.259 1104.83,-103.327 1094.24,-103.75 1096.82,-110.259"/>
</g>
<!-- n27 -->
<g id="node28" class="node"><title>n27</title>
<ellipse fill="none" stroke="black" cx="1226" cy="-90" rx="27" ry="18"/>
<text text-anchor="middle" x="1226" y="-86.3" font-family="Times New Roman,serif" font-size="14.00">;</text>
</g>
<!-- n22&#45;&gt;n27 -->
<g id="edge27" class="edge"><title>n22&#45;&gt;n27</title>
<path fill="none" stroke="black" d="M1008.96,-149.825C1074.26,-135.175 1181.4,-110.979 1190,-108 1191.91,-107.338 1193.85,-106.606 1195.8,-105.828"/>
<polygon fill="black" stroke="black" points="1197.6,-108.862 1205.38,-101.669 1194.81,-102.441 1197.6,-108.862"/>
</g>
<!-- n26 -->
<g id="node27" class="node"><title>n26</title>
<ellipse fill="none" stroke="black" cx="1136" cy="-18" rx="27" ry="18"/>
</g>
<!-- n25&#45;&gt;n26 -->
<g id="edge26" class="edge"><title>n25&#45;&gt;n26</title>
<path fill="none" stroke="black" d="M1136,-71.6966C1136,-63.9827 1136,-54.7125 1136,-46.1124"/>
<polygon fill="black" stroke="black" points="1139.5,-46.1043 1136,-36.1043 1132.5,-46.1044 1139.5,-46.1043"/>
</g>
<!-- n30 -->
<g id="node31" class="node"><title>n30</title>
<ellipse fill="none" stroke="black" cx="1144" cy="-162" rx="27.0966" ry="18"/>
<text text-anchor="middle" x="1144" y="-158.3" font-family="Times New Roman,serif" font-size="14.00">exec</text>
</g>
<!-- n29&#45;&gt;n30 -->
<g id="edge30" class="edge"><title>n29&#45;&gt;n30</title>
<path fill="none" stroke="black" d="M1231.18,-219.503C1214.21,-208.51 1190.12,-192.894 1171.56,-180.865"/>
<polygon fill="black" stroke="black" points="1173.25,-177.785 1162.95,-175.283 1169.44,-183.659 1173.25,-177.785"/>
</g>
<!-- n31 -->
<g id="node32" class="node"><title>n31</title>
<ellipse fill="none" stroke="black" cx="1216" cy="-162" rx="27" ry="18"/>
<text text-anchor="middle" x="1216" y="-158.3" font-family="Times New Roman,serif" font-size="14.00">eje</text>
</g>
<!-- n29&#45;&gt;n31 -->
<g id="edge31" class="edge"><title>n29&#45;&gt;n31</title>
<path fill="none" stroke="black" d="M1243.47,-216.411C1239.16,-208.042 1233.85,-197.71 1229.05,-188.37"/>
<polygon fill="black" stroke="black" points="1232.16,-186.762 1224.47,-179.47 1225.93,-189.964 1232.16,-186.762"/>
</g>
<!-- n32 -->
<g id="node33" class="node"><title>n32</title>
<ellipse fill="none" stroke="black" cx="1288" cy="-162" rx="27" ry="18"/>
<text text-anchor="middle" x="1288" y="-158.3" font-family="Times New Roman,serif" font-size="14.00">(</text>
</g>
<!-- n29&#45;&gt;n32 -->
<g id="edge32" class="edge"><title>n29&#45;&gt;n32</title>
<path fill="none" stroke="black" d="M1260.53,-216.411C1264.84,-208.042 1270.15,-197.71 1274.95,-188.37"/>
<polygon fill="black" stroke="black" points="1278.07,-189.964 1279.53,-179.47 1271.84,-186.762 1278.07,-189.964"/>
</g>
<!-- n33 -->
<g id="node34" class="node"><title>n33</title>
<ellipse fill="none" stroke="black" cx="1360" cy="-162" rx="27" ry="18"/>
<text text-anchor="middle" x="1360" y="-158.3" font-family="Times New Roman,serif" font-size="14.00">)</text>
</g>
<!-- n29&#45;&gt;n33 -->
<g id="edge33" class="edge"><title>n29&#45;&gt;n33</title>
<path fill="none" stroke="black" d="M1272.82,-219.503C1289.89,-208.441 1314.18,-192.7 1332.78,-180.641"/>
<polygon fill="black" stroke="black" points="1334.92,-183.429 1341.4,-175.053 1331.11,-177.555 1334.92,-183.429"/>
</g>
<!-- n34 -->
<g id="node35" class="node"><title>n34</title>
<ellipse fill="none" stroke="black" cx="1432" cy="-162" rx="27" ry="18"/>
<text text-anchor="middle" x="1432" y="-158.3" font-family="Times New Roman,serif" font-size="14.00">;</text>
</g>
<!-- n29&#45;&gt;n34 -->
<g id="edge34" class="edge"><title>n29&#45;&gt;n34</title>
<path fill="none" stroke="black" d="M1280.16,-223.465C1309.4,-213.372 1356.32,-196.632 1396,-180 1397.82,-179.238 1399.68,-178.436 1401.54,-177.611"/>
<polygon fill="black" stroke="black" points="1403.17,-180.715 1410.82,-173.383 1400.27,-174.345 1403.17,-180.715"/>
</g>
</g>
</svg>
